<svg xmlns="http://www.w3.org/2000/svg" xmlns:xlink="http://www.w3.org/1999/xlink" width="500" zoomAndPan="magnify" viewBox="0 0 375 374.999991" height="500" preserveAspectRatio="xMidYMid meet" version="1.0"><defs><clipPath id="ece53e29de"><path d="M 15.433594 64.746094 L 359.566406 64.746094 L 359.566406 309.996094 L 15.433594 309.996094 Z M 15.433594 64.746094 " clip-rule="nonzero"/></clipPath><clipPath id="e20af92245"><path d="M 345 211 L 359.566406 211 L 359.566406 235 L 345 235 Z M 345 211 " clip-rule="nonzero"/></clipPath><clipPath id="77a6653fa6"><path d="M 350 215 L 359.566406 215 L 359.566406 230 L 350 230 Z M 350 215 " clip-rule="nonzero"/></clipPath><clipPath id="276d23deb7"><path d="M 15.433594 221 L 71 221 L 71 250 L 15.433594 250 Z M 15.433594 221 " clip-rule="nonzero"/></clipPath><clipPath id="a8583d96c0"><path d="M 23 238 L 96 238 L 96 309 L 23 309 Z M 23 238 " clip-rule="nonzero"/></clipPath><clipPath id="7c913c41c2"><path d="M 94.675781 265.054688 C 94.109375 263.320312 93.664062 261.566406 92.96875 259.875 C 91.496094 256.296875 89.203125 252.769531 86.507812 249.992188 C 80.039062 243.316406 71.421875 239.539062 62.21875 238.605469 C 60.1875 238.398438 58.082031 238.457031 56.039062 238.425781 C 47.625 239.824219 39.941406 243.152344 33.894531 249.3125 C 29.429688 254.378906 26.183594 259.589844 24.777344 266.28125 C 24.511719 267.546875 24.15625 269.015625 24.203125 270.3125 C 23.234375 275.558594 24.667969 281.425781 26.195312 286.429688 C 29.882812 295.09375 35.988281 301.804688 44.671875 305.632812 C 47.121094 306.636719 49.636719 307.558594 52.253906 308.03125 C 63.148438 310 72.753906 307.070312 81.726562 300.882812 C 84.726562 298.207031 87.40625 295.609375 89.6875 292.253906 C 95.160156 284.191406 96.46875 274.511719 94.675781 265.054688 Z M 94.675781 265.054688 " clip-rule="nonzero"/></clipPath><linearGradient x1="-0.207841" gradientTransform="matrix(-61.805949, -33.373927, -33.396052, 61.765006, 90.561525, 290.225154)" y1="0" x2="1.19408" gradientUnits="userSpaceOnUse" y2="0" id="a2c14b1c69"><stop stop-opacity="1" stop-color="rgb(4.699707%, 8.599854%, 12.89978%)" offset="0"/><stop stop-opacity="1" stop-color="rgb(4.699707%, 8.599854%, 12.89978%)" offset="0.125"/><stop stop-opacity="1" stop-color="rgb(4.80957%, 8.68988%, 12.979126%)" offset="0.15625"/><stop stop-opacity="1" stop-color="rgb(5.026245%, 8.866882%, 13.136292%)" offset="0.164062"/><stop stop-opacity="1" stop-color="rgb(5.239868%, 9.043884%, 13.291931%)" offset="0.171875"/><stop stop-opacity="1" stop-color="rgb(5.455017%, 9.220886%, 13.447571%)" offset="0.179688"/><stop stop-opacity="1" stop-color="rgb(5.670166%, 9.396362%, 13.60321%)" offset="0.1875"/><stop stop-opacity="1" stop-color="rgb(5.883789%, 9.573364%, 13.75885%)" offset="0.195313"/><stop stop-opacity="1" stop-color="rgb(6.098938%, 9.74884%, 13.91449%)" offset="0.203125"/><stop stop-opacity="1" stop-color="rgb(6.314087%, 9.925842%, 14.068604%)" offset="0.210938"/><stop stop-opacity="1" stop-color="rgb(6.52771%, 10.101318%, 14.224243%)" offset="0.21875"/><stop stop-opacity="1" stop-color="rgb(6.742859%, 10.27832%, 14.379883%)" offset="0.226562"/><stop stop-opacity="1" stop-color="rgb(6.958008%, 10.453796%, 14.535522%)" offset="0.234375"/><stop stop-opacity="1" stop-color="rgb(7.173157%, 10.630798%, 14.691162%)" offset="0.242188"/><stop stop-opacity="1" stop-color="rgb(7.38678%, 10.8078%, 14.846802%)" offset="0.25"/><stop stop-opacity="1" stop-color="rgb(7.601929%, 10.983276%, 15.002441%)" offset="0.257812"/><stop stop-opacity="1" stop-color="rgb(7.817078%, 11.160278%, 15.158081%)" offset="0.265625"/><stop stop-opacity="1" stop-color="rgb(8.030701%, 11.335754%, 15.313721%)" offset="0.273438"/><stop stop-opacity="1" stop-color="rgb(8.24585%, 11.512756%, 15.46936%)" offset="0.28125"/><stop stop-opacity="1" stop-color="rgb(8.460999%, 11.688232%, 15.625%)" offset="0.289062"/><stop stop-opacity="1" stop-color="rgb(8.674622%, 11.865234%, 15.78064%)" offset="0.296875"/><stop stop-opacity="1" stop-color="rgb(8.889771%, 12.042236%, 15.936279%)" offset="0.304688"/><stop stop-opacity="1" stop-color="rgb(9.104919%, 12.217712%, 16.090393%)" offset="0.3125"/><stop stop-opacity="1" stop-color="rgb(9.318542%, 12.394714%, 16.246033%)" offset="0.320312"/><stop stop-opacity="1" stop-color="rgb(9.533691%, 12.57019%, 16.401672%)" offset="0.328125"/><stop stop-opacity="1" stop-color="rgb(9.74884%, 12.747192%, 16.557312%)" offset="0.335938"/><stop stop-opacity="1" stop-color="rgb(9.962463%, 12.922668%, 16.712952%)" offset="0.34375"/><stop stop-opacity="1" stop-color="rgb(10.177612%, 13.09967%, 16.868591%)" offset="0.351562"/><stop stop-opacity="1" stop-color="rgb(10.392761%, 13.276672%, 17.024231%)" offset="0.359375"/><stop stop-opacity="1" stop-color="rgb(10.606384%, 13.452148%, 17.179871%)" offset="0.367188"/><stop stop-opacity="1" stop-color="rgb(10.821533%, 13.62915%, 17.33551%)" offset="0.375"/><stop stop-opacity="1" stop-color="rgb(11.036682%, 13.804626%, 17.49115%)" offset="0.382812"/><stop stop-opacity="1" stop-color="rgb(11.251831%, 13.981628%, 17.64679%)" offset="0.390625"/><stop stop-opacity="1" stop-color="rgb(11.465454%, 14.157104%, 17.802429%)" offset="0.398438"/><stop stop-opacity="1" stop-color="rgb(11.680603%, 14.334106%, 17.958069%)" offset="0.40625"/><stop stop-opacity="1" stop-color="rgb(11.895752%, 14.509583%, 18.112183%)" offset="0.414063"/><stop stop-opacity="1" stop-color="rgb(12.109375%, 14.686584%, 18.267822%)" offset="0.421875"/><stop stop-opacity="1" stop-color="rgb(12.324524%, 14.863586%, 18.423462%)" offset="0.429688"/><stop stop-opacity="1" stop-color="rgb(12.539673%, 15.039062%, 18.579102%)" offset="0.4375"/><stop stop-opacity="1" stop-color="rgb(12.753296%, 15.216064%, 18.734741%)" offset="0.445312"/><stop stop-opacity="1" stop-color="rgb(12.968445%, 15.391541%, 18.890381%)" offset="0.453125"/><stop stop-opacity="1" stop-color="rgb(13.183594%, 15.568542%, 19.046021%)" offset="0.460938"/><stop stop-opacity="1" stop-color="rgb(13.397217%, 15.744019%, 19.20166%)" offset="0.46875"/><stop stop-opacity="1" stop-color="rgb(13.612366%, 15.921021%, 19.3573%)" offset="0.476562"/><stop stop-opacity="1" stop-color="rgb(13.827515%, 16.098022%, 19.512939%)" offset="0.484375"/><stop stop-opacity="1" stop-color="rgb(14.041138%, 16.273499%, 19.668579%)" offset="0.492188"/><stop stop-opacity="1" stop-color="rgb(14.256287%, 16.4505%, 19.824219%)" offset="0.5"/><stop stop-opacity="1" stop-color="rgb(14.471436%, 16.625977%, 19.979858%)" offset="0.507812"/><stop stop-opacity="1" stop-color="rgb(14.686584%, 16.802979%, 20.135498%)" offset="0.515625"/><stop stop-opacity="1" stop-color="rgb(14.900208%, 16.978455%, 20.289612%)" offset="0.523438"/><stop stop-opacity="1" stop-color="rgb(15.115356%, 17.155457%, 20.445251%)" offset="0.53125"/><stop stop-opacity="1" stop-color="rgb(15.330505%, 17.330933%, 20.600891%)" offset="0.539062"/><stop stop-opacity="1" stop-color="rgb(15.544128%, 17.507935%, 20.756531%)" offset="0.546875"/><stop stop-opacity="1" stop-color="rgb(15.759277%, 17.684937%, 20.91217%)" offset="0.554688"/><stop stop-opacity="1" stop-color="rgb(15.974426%, 17.860413%, 21.06781%)" offset="0.5625"/><stop stop-opacity="1" stop-color="rgb(16.188049%, 18.037415%, 21.22345%)" offset="0.570312"/><stop stop-opacity="1" stop-color="rgb(16.403198%, 18.212891%, 21.379089%)" offset="0.578125"/><stop stop-opacity="1" stop-color="rgb(16.618347%, 18.389893%, 21.534729%)" offset="0.585938"/><stop stop-opacity="1" stop-color="rgb(16.83197%, 18.565369%, 21.690369%)" offset="0.59375"/><stop stop-opacity="1" stop-color="rgb(17.047119%, 18.742371%, 21.846008%)" offset="0.601562"/><stop stop-opacity="1" stop-color="rgb(17.262268%, 18.919373%, 22.001648%)" offset="0.609375"/><stop stop-opacity="1" stop-color="rgb(17.475891%, 19.094849%, 22.157288%)" offset="0.617188"/><stop stop-opacity="1" stop-color="rgb(17.69104%, 19.271851%, 22.311401%)" offset="0.625"/><stop stop-opacity="1" stop-color="rgb(17.906189%, 19.447327%, 22.467041%)" offset="0.632812"/><stop stop-opacity="1" stop-color="rgb(18.119812%, 19.624329%, 22.622681%)" offset="0.640625"/><stop stop-opacity="1" stop-color="rgb(18.334961%, 19.799805%, 22.77832%)" offset="0.648438"/><stop stop-opacity="1" stop-color="rgb(18.55011%, 19.976807%, 22.93396%)" offset="0.65625"/><stop stop-opacity="1" stop-color="rgb(18.765259%, 20.152283%, 23.0896%)" offset="0.664062"/><stop stop-opacity="1" stop-color="rgb(18.978882%, 20.329285%, 23.245239%)" offset="0.671875"/><stop stop-opacity="1" stop-color="rgb(19.194031%, 20.506287%, 23.400879%)" offset="0.679688"/><stop stop-opacity="1" stop-color="rgb(19.40918%, 20.681763%, 23.556519%)" offset="0.6875"/><stop stop-opacity="1" stop-color="rgb(19.622803%, 20.858765%, 23.712158%)" offset="0.695312"/><stop stop-opacity="1" stop-color="rgb(19.837952%, 21.034241%, 23.867798%)" offset="0.703125"/><stop stop-opacity="1" stop-color="rgb(20.053101%, 21.211243%, 24.023438%)" offset="0.710938"/><stop stop-opacity="1" stop-color="rgb(20.266724%, 21.386719%, 24.179077%)" offset="0.71875"/><stop stop-opacity="1" stop-color="rgb(20.481873%, 21.563721%, 24.334717%)" offset="0.726562"/><stop stop-opacity="1" stop-color="rgb(20.697021%, 21.740723%, 24.488831%)" offset="0.734375"/><stop stop-opacity="1" stop-color="rgb(20.910645%, 21.916199%, 24.64447%)" offset="0.742188"/><stop stop-opacity="1" stop-color="rgb(21.125793%, 22.093201%, 24.80011%)" offset="0.75"/><stop stop-opacity="1" stop-color="rgb(21.340942%, 22.268677%, 24.95575%)" offset="0.757812"/><stop stop-opacity="1" stop-color="rgb(21.554565%, 22.445679%, 25.111389%)" offset="0.765625"/><stop stop-opacity="1" stop-color="rgb(21.769714%, 22.621155%, 25.267029%)" offset="0.773438"/><stop stop-opacity="1" stop-color="rgb(21.984863%, 22.798157%, 25.422668%)" offset="0.78125"/><stop stop-opacity="1" stop-color="rgb(22.200012%, 22.973633%, 25.578308%)" offset="0.789062"/><stop stop-opacity="1" stop-color="rgb(22.413635%, 23.150635%, 25.733948%)" offset="0.796875"/><stop stop-opacity="1" stop-color="rgb(22.628784%, 23.327637%, 25.889587%)" offset="0.804687"/><stop stop-opacity="1" stop-color="rgb(22.843933%, 23.503113%, 26.045227%)" offset="0.8125"/><stop stop-opacity="1" stop-color="rgb(23.057556%, 23.680115%, 26.200867%)" offset="0.820313"/><stop stop-opacity="1" stop-color="rgb(23.272705%, 23.855591%, 26.356506%)" offset="0.828125"/><stop stop-opacity="1" stop-color="rgb(23.487854%, 24.032593%, 26.51062%)" offset="0.835938"/><stop stop-opacity="1" stop-color="rgb(23.701477%, 24.208069%, 26.66626%)" offset="0.84375"/><stop stop-opacity="1" stop-color="rgb(23.916626%, 24.385071%, 26.821899%)" offset="0.851563"/><stop stop-opacity="1" stop-color="rgb(24.131775%, 24.562073%, 26.977539%)" offset="0.859375"/><stop stop-opacity="1" stop-color="rgb(24.269104%, 24.674988%, 27.076721%)" offset="0.875"/><stop stop-opacity="1" stop-color="rgb(24.299622%, 24.699402%, 27.099609%)" offset="1"/></linearGradient><clipPath id="7af2975b74"><path d="M 70 64.746094 L 293 64.746094 L 293 162 L 70 162 Z M 70 64.746094 " clip-rule="nonzero"/></clipPath><clipPath id="2a21d7d527"><path d="M 233 161 L 353 161 L 353 309.996094 L 233 309.996094 Z M 233 161 " clip-rule="nonzero"/></clipPath><clipPath id="7b0367e14f"><path d="M 260 232 L 347 232 L 347 309.996094 L 260 309.996094 Z M 260 232 " clip-rule="nonzero"/></clipPath><clipPath id="edf180ae60"><path d="M 340.609375 266.386719 C 341.816406 265.761719 344.703125 266.152344 346.121094 266.164062 C 344.339844 257.8125 338.199219 249.390625 331.832031 243.867188 C 324.554688 237.550781 314.960938 233.117188 305.292969 232.398438 C 302.191406 232.167969 299.070312 232.410156 295.976562 232.640625 C 289.90625 234.085938 284.109375 236.210938 278.945312 239.789062 C 274.007812 243.210938 269.746094 248.226562 266.613281 253.3125 L 264.195312 257.515625 L 260.839844 265.859375 L 269.8125 265.898438 C 269.585938 268.324219 269.15625 270.703125 269.121094 273.144531 C 269 281.667969 272.011719 289.960938 277.484375 296.488281 L 283.433594 302.3125 C 287.242188 304.914062 291.433594 307.195312 295.957031 308.261719 C 298.679688 308.90625 301.402344 309.089844 304.171875 309.398438 L 305.984375 309.386719 C 307.546875 309.042969 309.195312 309.015625 310.78125 308.730469 C 315.539062 307.875 319.757812 306.15625 323.953125 303.796875 C 328.289062 301.054688 331.980469 297.679688 334.871094 293.421875 C 340.328125 285.382812 342.292969 275.976562 340.46875 266.457031 Z M 340.609375 266.386719 " clip-rule="nonzero"/></clipPath><linearGradient x1="-0.241972" gradientTransform="matrix(-63.725592, -32.012694, -32.033915, 63.683378, 336.914756, 289.300044)" y1="0" x2="1.312966" gradientUnits="userSpaceOnUse" y2="0" id="08264ac310"><stop stop-opacity="1" stop-color="rgb(8.999634%, 9.799194%, 11.799622%)" offset="0"/><stop stop-opacity="1" stop-color="rgb(8.999634%, 9.799194%, 11.799622%)" offset="0.125"/><stop stop-opacity="1" stop-color="rgb(9.007263%, 9.806824%, 11.807251%)" offset="0.15625"/><stop stop-opacity="1" stop-color="rgb(9.118652%, 9.907532%, 11.914062%)" offset="0.164062"/><stop stop-opacity="1" stop-color="rgb(9.32312%, 10.093689%, 12.113953%)" offset="0.171875"/><stop stop-opacity="1" stop-color="rgb(9.529114%, 10.27832%, 12.312317%)" offset="0.179688"/><stop stop-opacity="1" stop-color="rgb(9.733582%, 10.464478%, 12.512207%)" offset="0.1875"/><stop stop-opacity="1" stop-color="rgb(9.939575%, 10.650635%, 12.712097%)" offset="0.195312"/><stop stop-opacity="1" stop-color="rgb(10.144043%, 10.836792%, 12.910461%)" offset="0.203125"/><stop stop-opacity="1" stop-color="rgb(10.350037%, 11.022949%, 13.110352%)" offset="0.210938"/><stop stop-opacity="1" stop-color="rgb(10.554504%, 11.207581%, 13.308716%)" offset="0.21875"/><stop stop-opacity="1" stop-color="rgb(10.760498%, 11.393738%, 13.508606%)" offset="0.226562"/><stop stop-opacity="1" stop-color="rgb(10.966492%, 11.579895%, 13.70697%)" offset="0.234375"/><stop stop-opacity="1" stop-color="rgb(11.170959%, 11.766052%, 13.90686%)" offset="0.242188"/><stop stop-opacity="1" stop-color="rgb(11.376953%, 11.952209%, 14.10675%)" offset="0.25"/><stop stop-opacity="1" stop-color="rgb(11.581421%, 12.136841%, 14.305115%)" offset="0.257812"/><stop stop-opacity="1" stop-color="rgb(11.787415%, 12.322998%, 14.505005%)" offset="0.265625"/><stop stop-opacity="1" stop-color="rgb(11.991882%, 12.509155%, 14.703369%)" offset="0.273438"/><stop stop-opacity="1" stop-color="rgb(12.197876%, 12.695312%, 14.903259%)" offset="0.28125"/><stop stop-opacity="1" stop-color="rgb(12.402344%, 12.88147%, 15.101624%)" offset="0.289062"/><stop stop-opacity="1" stop-color="rgb(12.608337%, 13.066101%, 15.301514%)" offset="0.296875"/><stop stop-opacity="1" stop-color="rgb(12.812805%, 13.252258%, 15.501404%)" offset="0.304688"/><stop stop-opacity="1" stop-color="rgb(13.018799%, 13.438416%, 15.699768%)" offset="0.3125"/><stop stop-opacity="1" stop-color="rgb(13.224792%, 13.624573%, 15.899658%)" offset="0.320312"/><stop stop-opacity="1" stop-color="rgb(13.42926%, 13.81073%, 16.098022%)" offset="0.328125"/><stop stop-opacity="1" stop-color="rgb(13.635254%, 13.995361%, 16.297913%)" offset="0.335938"/><stop stop-opacity="1" stop-color="rgb(13.839722%, 14.181519%, 16.496277%)" offset="0.34375"/><stop stop-opacity="1" stop-color="rgb(14.045715%, 14.367676%, 16.696167%)" offset="0.351562"/><stop stop-opacity="1" stop-color="rgb(14.250183%, 14.553833%, 16.894531%)" offset="0.359375"/><stop stop-opacity="1" stop-color="rgb(14.456177%, 14.73999%, 17.094421%)" offset="0.367187"/><stop stop-opacity="1" stop-color="rgb(14.660645%, 14.926147%, 17.294312%)" offset="0.375"/><stop stop-opacity="1" stop-color="rgb(14.866638%, 15.110779%, 17.492676%)" offset="0.382813"/><stop stop-opacity="1" stop-color="rgb(15.071106%, 15.296936%, 17.692566%)" offset="0.390625"/><stop stop-opacity="1" stop-color="rgb(15.2771%, 15.483093%, 17.89093%)" offset="0.398438"/><stop stop-opacity="1" stop-color="rgb(15.483093%, 15.66925%, 18.09082%)" offset="0.40625"/><stop stop-opacity="1" stop-color="rgb(15.687561%, 15.855408%, 18.289185%)" offset="0.414062"/><stop stop-opacity="1" stop-color="rgb(15.893555%, 16.040039%, 18.489075%)" offset="0.421875"/><stop stop-opacity="1" stop-color="rgb(16.098022%, 16.226196%, 18.688965%)" offset="0.429688"/><stop stop-opacity="1" stop-color="rgb(16.304016%, 16.412354%, 18.887329%)" offset="0.4375"/><stop stop-opacity="1" stop-color="rgb(16.508484%, 16.598511%, 19.087219%)" offset="0.445312"/><stop stop-opacity="1" stop-color="rgb(16.714478%, 16.784668%, 19.285583%)" offset="0.453125"/><stop stop-opacity="1" stop-color="rgb(16.918945%, 16.969299%, 19.485474%)" offset="0.460938"/><stop stop-opacity="1" stop-color="rgb(17.124939%, 17.155457%, 19.683838%)" offset="0.46875"/><stop stop-opacity="1" stop-color="rgb(17.329407%, 17.341614%, 19.883728%)" offset="0.476562"/><stop stop-opacity="1" stop-color="rgb(17.5354%, 17.527771%, 20.083618%)" offset="0.484375"/><stop stop-opacity="1" stop-color="rgb(17.741394%, 17.713928%, 20.281982%)" offset="0.492187"/><stop stop-opacity="1" stop-color="rgb(17.945862%, 17.89856%, 20.481873%)" offset="0.5"/><stop stop-opacity="1" stop-color="rgb(18.151855%, 18.084717%, 20.680237%)" offset="0.507812"/><stop stop-opacity="1" stop-color="rgb(18.356323%, 18.270874%, 20.880127%)" offset="0.515625"/><stop stop-opacity="1" stop-color="rgb(18.562317%, 18.457031%, 21.078491%)" offset="0.523438"/><stop stop-opacity="1" stop-color="rgb(18.766785%, 18.643188%, 21.278381%)" offset="0.53125"/><stop stop-opacity="1" stop-color="rgb(18.972778%, 18.82782%, 21.476746%)" offset="0.539062"/><stop stop-opacity="1" stop-color="rgb(19.177246%, 19.013977%, 21.676636%)" offset="0.546875"/><stop stop-opacity="1" stop-color="rgb(19.38324%, 19.200134%, 21.876526%)" offset="0.554688"/><stop stop-opacity="1" stop-color="rgb(19.587708%, 19.386292%, 22.07489%)" offset="0.5625"/><stop stop-opacity="1" stop-color="rgb(19.793701%, 19.572449%, 22.27478%)" offset="0.570312"/><stop stop-opacity="1" stop-color="rgb(19.999695%, 19.758606%, 22.473145%)" offset="0.578125"/><stop stop-opacity="1" stop-color="rgb(20.204163%, 19.943237%, 22.673035%)" offset="0.585938"/><stop stop-opacity="1" stop-color="rgb(20.410156%, 20.129395%, 22.871399%)" offset="0.59375"/><stop stop-opacity="1" stop-color="rgb(20.614624%, 20.315552%, 23.071289%)" offset="0.601562"/><stop stop-opacity="1" stop-color="rgb(20.820618%, 20.501709%, 23.271179%)" offset="0.609375"/><stop stop-opacity="1" stop-color="rgb(21.025085%, 20.687866%, 23.469543%)" offset="0.617188"/><stop stop-opacity="1" stop-color="rgb(21.231079%, 20.872498%, 23.669434%)" offset="0.625"/><stop stop-opacity="1" stop-color="rgb(21.435547%, 21.058655%, 23.867798%)" offset="0.632812"/><stop stop-opacity="1" stop-color="rgb(21.641541%, 21.244812%, 24.067688%)" offset="0.640625"/><stop stop-opacity="1" stop-color="rgb(21.847534%, 21.430969%, 24.266052%)" offset="0.648438"/><stop stop-opacity="1" stop-color="rgb(22.052002%, 21.617126%, 24.465942%)" offset="0.65625"/><stop stop-opacity="1" stop-color="rgb(22.257996%, 21.801758%, 24.665833%)" offset="0.664062"/><stop stop-opacity="1" stop-color="rgb(22.462463%, 21.987915%, 24.864197%)" offset="0.671875"/><stop stop-opacity="1" stop-color="rgb(22.668457%, 22.174072%, 25.064087%)" offset="0.679688"/><stop stop-opacity="1" stop-color="rgb(22.872925%, 22.360229%, 25.262451%)" offset="0.6875"/><stop stop-opacity="1" stop-color="rgb(23.078918%, 22.546387%, 25.462341%)" offset="0.695312"/><stop stop-opacity="1" stop-color="rgb(23.283386%, 22.731018%, 25.660706%)" offset="0.703125"/><stop stop-opacity="1" stop-color="rgb(23.48938%, 22.917175%, 25.860596%)" offset="0.710937"/><stop stop-opacity="1" stop-color="rgb(23.693848%, 23.103333%, 26.05896%)" offset="0.71875"/><stop stop-opacity="1" stop-color="rgb(23.899841%, 23.28949%, 26.25885%)" offset="0.726562"/><stop stop-opacity="1" stop-color="rgb(24.105835%, 23.475647%, 26.45874%)" offset="0.734375"/><stop stop-opacity="1" stop-color="rgb(24.310303%, 23.660278%, 26.657104%)" offset="0.742188"/><stop stop-opacity="1" stop-color="rgb(24.516296%, 23.846436%, 26.856995%)" offset="0.75"/><stop stop-opacity="1" stop-color="rgb(24.720764%, 24.032593%, 27.055359%)" offset="0.757812"/><stop stop-opacity="1" stop-color="rgb(24.926758%, 24.21875%, 27.255249%)" offset="0.765625"/><stop stop-opacity="1" stop-color="rgb(25.131226%, 24.404907%, 27.453613%)" offset="0.773438"/><stop stop-opacity="1" stop-color="rgb(25.337219%, 24.591064%, 27.653503%)" offset="0.78125"/><stop stop-opacity="1" stop-color="rgb(25.541687%, 24.775696%, 27.853394%)" offset="0.789063"/><stop stop-opacity="1" stop-color="rgb(25.747681%, 24.961853%, 28.051758%)" offset="0.796875"/><stop stop-opacity="1" stop-color="rgb(25.874329%, 25.076294%, 28.175354%)" offset="0.8125"/><stop stop-opacity="1" stop-color="rgb(25.898743%, 25.099182%, 28.199768%)" offset="0.875"/><stop stop-opacity="1" stop-color="rgb(25.898743%, 25.099182%, 28.199768%)" offset="1"/></linearGradient></defs><g clip-path="url(#ece53e29de)"><path fill="#f5bd36" d="M 359.570312 229.546875 L 359.550781 215.59375 C 359.558594 214.164062 359.636719 213.167969 358.574219 212.066406 C 358.300781 211.78125 357.914062 211.402344 357.515625 211.304688 C 356.785156 211.125 355.8125 211.269531 355.0625 211.285156 L 350.964844 211.234375 L 350.769531 210.730469 L 350.800781 205.636719 L 350.835938 197.949219 L 350.839844 193.035156 L 350.847656 185.214844 L 350.894531 161.558594 L 350.902344 159.386719 C 350.925781 154.542969 351.175781 149.53125 350.765625 144.707031 C 349.109375 125.34375 340.71875 106.40625 326.957031 92.5625 C 321.339844 86.917969 315.082031 81.863281 308.175781 77.867188 C 292.554688 68.828125 274.320312 65.125 256.417969 65.078125 C 252.003906 64.746094 247.472656 64.949219 243.042969 64.949219 L 219.3125 64.949219 L 143.933594 64.953125 L 115.058594 65.027344 L 108.960938 65.082031 C 108.445312 65.089844 107.40625 64.976562 106.949219 65.121094 C 106.445312 65.28125 105.597656 65.984375 105.132812 66.292969 L 100.390625 69.464844 L 75.5625 86.386719 L 70.445312 89.933594 L 88.109375 89.917969 L 85.066406 97.773438 L 60.035156 160.640625 L 56.367188 169.914062 C 55.664062 171.878906 54.621094 173.984375 54.109375 175.988281 L 52.734375 176.914062 C 51.277344 177.171875 49.953125 177.882812 49.09375 179.128906 C 48.765625 179.605469 48.546875 180.085938 48.398438 180.640625 C 48.117188 182.140625 48.222656 183.734375 48.214844 185.257812 L 48.195312 193.246094 C 48.191406 195.75 47.882812 198.601562 48.210938 201.054688 C 48.355469 202.121094 48.703125 203.300781 49.351562 204.167969 C 50.339844 205.484375 51.921875 206.53125 53.40625 207.199219 L 53.570312 207.273438 L 53.601562 221.871094 C 50.886719 222.3125 47.726562 222.566406 45.167969 223.601562 C 35.128906 225.820312 25.089844 232.742188 19.535156 241.382812 L 16.613281 247 L 15.480469 249.417969 L 33.894531 249.3125 C 29.429688 254.378906 26.1875 259.585938 24.777344 266.28125 C 24.511719 267.546875 24.15625 269.015625 24.207031 270.3125 C 23.234375 275.558594 24.667969 281.425781 26.195312 286.429688 C 29.886719 295.09375 35.988281 301.800781 44.671875 305.628906 C 47.125 306.636719 49.636719 307.558594 52.253906 308.03125 C 63.148438 309.996094 72.753906 307.070312 81.726562 300.882812 C 84.726562 298.203125 87.40625 295.609375 89.6875 292.253906 C 95.160156 284.191406 96.46875 274.511719 94.675781 265.054688 L 94.878906 265.128906 C 95.917969 265.640625 97.121094 267.253906 97.988281 268.085938 C 101.195312 271.175781 105.546875 273.242188 109.863281 274.207031 C 112.28125 274.75 114.6875 274.683594 117.144531 274.683594 L 125.359375 274.671875 L 152.285156 274.632812 L 258.359375 274.660156 L 259.976562 268.464844 C 260.210938 267.675781 260.433594 266.558594 260.839844 265.859375 L 269.8125 265.898438 C 269.585938 268.324219 269.15625 270.703125 269.121094 273.148438 C 269 281.667969 272.011719 289.960938 277.484375 296.488281 L 283.433594 302.3125 C 287.242188 304.914062 291.433594 307.195312 295.953125 308.261719 C 298.679688 308.90625 301.402344 309.089844 304.171875 309.398438 L 305.984375 309.386719 C 307.546875 309.042969 309.195312 309.015625 310.78125 308.730469 C 315.539062 307.875 319.757812 306.15625 323.953125 303.796875 C 328.289062 301.054688 331.980469 297.683594 334.871094 293.421875 C 340.328125 285.382812 342.292969 275.976562 340.46875 266.457031 L 340.609375 266.390625 L 352.898438 266.40625 C 352.976562 261 351.660156 255.082031 349.453125 250.152344 C 348.25 247.464844 346.710938 244.953125 345.199219 242.433594 L 346.988281 232.660156 C 347.824219 233.195312 348.898438 233.785156 349.886719 233.917969 C 351.78125 234.171875 356.863281 234.324219 358.261719 233.058594 C 359.457031 231.980469 359.492188 231.050781 359.570312 229.546875 Z M 127.859375 89.792969 L 150.347656 89.734375 L 150.28125 252.628906 L 129.765625 252.65625 L 127.90625 252.59375 L 127.921875 240.238281 L 127.972656 181.351562 C 129.535156 180.085938 130.832031 178.453125 132.152344 176.941406 C 134.625 174.101562 137.070312 171.128906 139.8125 168.550781 C 141.207031 169.449219 142.210938 169.996094 143.964844 169.871094 C 146.242188 169.710938 147.328125 168.679688 148.722656 167.03125 C 148.789062 165.261719 148.523438 163.476562 148.332031 161.722656 C 147.929688 158.402344 147.148438 147.300781 144.5 145.375 C 143.261719 144.476562 141.402344 144.230469 139.921875 144.503906 C 138.320312 144.796875 136.753906 145.921875 135.875 147.273438 C 135.335938 148.105469 134.9375 149.136719 134.894531 150.140625 C 134.824219 151.757812 135.410156 153.664062 135.726562 155.265625 L 137.023438 162.726562 L 138.089844 166.578125 L 127.6875 178.128906 L 127.578125 173.375 Z M 153.300781 89.722656 L 191.988281 89.757812 C 194.144531 90.824219 196.320312 91.851562 198.296875 93.230469 C 202.925781 96.464844 206.621094 101.550781 208.417969 106.886719 C 209.414062 109.855469 209.757812 112.902344 209.820312 116.019531 L 209.742188 195.675781 L 207.261719 195.710938 C 205.488281 195.550781 203.417969 195.496094 201.648438 195.714844 L 199.617188 195.699219 L 198.011719 195.675781 L 192.148438 195.695312 L 190.566406 195.695312 L 184.328125 195.683594 L 182.8125 195.644531 C 180.773438 195.863281 179.367188 196.570312 178.089844 198.230469 C 177.535156 198.949219 177.191406 199.789062 177.003906 200.675781 C 176.699219 202.128906 176.867188 203.804688 176.859375 205.292969 L 176.855469 214.570312 L 181.195312 214.640625 L 185.519531 252.597656 L 163.707031 252.605469 C 160.277344 252.605469 156.496094 252.253906 153.117188 252.683594 Z M 153.300781 89.722656 " fill-opacity="1" fill-rule="evenodd"/></g><path fill="#f5bd36" d="M 48.398438 180.640625 C 48.117188 182.140625 48.222656 183.734375 48.214844 185.257812 L 48.195312 193.246094 C 48.1875 195.75 47.878906 198.601562 48.210938 201.054688 C 48.355469 202.121094 48.703125 203.300781 49.351562 204.167969 C 50.339844 205.484375 51.921875 206.53125 53.40625 207.199219 L 53.40625 205.980469 L 53.996094 205.402344 C 53.714844 205.160156 53.457031 204.953125 53.132812 204.769531 C 52.515625 204.414062 51.917969 204.0625 51.394531 203.574219 C 50.75 202.972656 49.988281 201.941406 49.796875 201.082031 C 49.382812 199.230469 49.625 196.835938 49.617188 194.914062 L 49.613281 182.121094 L 49.390625 182.550781 L 48.527344 182.363281 Z M 48.398438 180.640625 " fill-opacity="1" fill-rule="nonzero"/><path fill="#74afa3" d="M 45.167969 223.601562 C 35.128906 225.820312 25.089844 232.742188 19.535156 241.382812 L 16.613281 247 C 22.457031 245.015625 27.511719 240.914062 31.359375 236.179688 C 33.339844 233.742188 35.28125 231.15625 37.734375 229.164062 L 43.769531 224.972656 C 44.445312 224.558594 44.753906 224.292969 45.167969 223.601562 Z M 45.167969 223.601562 " fill-opacity="1" fill-rule="nonzero"/><path fill="#f3cc6b" d="M 52.734375 176.914062 C 51.277344 177.171875 49.953125 177.882812 49.09375 179.128906 C 48.765625 179.605469 48.546875 180.085938 48.398438 180.640625 L 48.523438 182.363281 L 49.390625 182.550781 L 49.613281 182.121094 L 49.617188 194.914062 C 49.625 196.835938 49.378906 199.230469 49.796875 201.082031 C 49.988281 201.941406 50.75 202.972656 51.394531 203.574219 C 51.917969 204.0625 52.515625 204.414062 53.132812 204.769531 C 53.457031 204.953125 53.710938 205.160156 53.996094 205.402344 C 54.390625 205.199219 54.71875 204.929688 55.019531 204.601562 C 55.480469 204.109375 55.613281 203.554688 55.703125 202.898438 C 55.980469 200.851562 55.808594 198.566406 55.820312 196.484375 L 55.800781 183.410156 C 55.835938 182.441406 55.917969 181.40625 55.730469 180.453125 C 55.367188 178.59375 54.195312 177.878906 52.734375 176.914062 Z M 52.734375 176.914062 " fill-opacity="1" fill-rule="nonzero"/><path fill="#f5bd36" d="M 52.734375 176.914062 C 51.277344 177.171875 49.953125 177.882812 49.09375 179.128906 C 48.765625 179.605469 48.546875 180.085938 48.398438 180.640625 L 48.523438 182.363281 L 49.390625 182.550781 L 49.613281 182.121094 C 50.21875 181.324219 50.851562 180.839844 51.867188 180.679688 C 52.539062 180.574219 53.375 180.59375 53.933594 181.027344 C 54.539062 181.503906 54.953125 182.1875 55.347656 182.835938 C 55.476562 183.054688 55.621094 183.226562 55.800781 183.410156 C 55.835938 182.441406 55.917969 181.40625 55.730469 180.453125 C 55.367188 178.59375 54.195312 177.878906 52.734375 176.914062 Z M 52.734375 176.914062 " fill-opacity="1" fill-rule="nonzero"/><g clip-path="url(#e20af92245)"><path fill="#19242d" d="M 350.964844 211.234375 C 349.359375 211.417969 348.082031 211.820312 347.058594 213.15625 C 346.617188 213.726562 346.398438 214.277344 346.242188 214.972656 L 346.1875 215.207031 C 345.675781 217.613281 346.042969 220.917969 346.039062 223.429688 C 346.035156 225.59375 345.761719 228.226562 346.101562 230.335938 C 346.230469 231.152344 346.617188 231.929688 346.988281 232.660156 C 347.824219 233.195312 348.898438 233.785156 349.886719 233.917969 C 351.78125 234.171875 356.863281 234.324219 358.261719 233.058594 C 359.457031 231.980469 359.492188 231.050781 359.570312 229.546875 L 359.550781 215.59375 C 359.558594 214.164062 359.636719 213.167969 358.574219 212.066406 C 358.300781 211.78125 357.914062 211.402344 357.515625 211.304688 C 356.785156 211.125 355.8125 211.269531 355.0625 211.285156 Z M 350.964844 211.234375 " fill-opacity="1" fill-rule="nonzero"/></g><g clip-path="url(#77a6653fa6)"><path fill="#ae3723" d="M 359.550781 215.59375 L 353.671875 215.585938 C 352.65625 215.589844 351.398438 215.417969 350.492188 215.902344 C 349.851562 216.871094 350.148438 218.804688 350.148438 219.960938 L 350.191406 229.554688 L 359.570312 229.546875 Z M 359.550781 215.59375 " fill-opacity="1" fill-rule="nonzero"/></g><g clip-path="url(#276d23deb7)"><path fill="#258c6d" d="M 53.601562 221.875 C 50.886719 222.3125 47.726562 222.566406 45.167969 223.601562 C 44.753906 224.292969 44.445312 224.558594 43.765625 224.972656 L 37.734375 229.164062 C 35.277344 231.15625 33.335938 233.742188 31.355469 236.179688 C 27.507812 240.914062 22.453125 245.015625 16.609375 247 L 15.480469 249.417969 L 33.894531 249.3125 C 39.941406 243.152344 47.625 239.824219 56.039062 238.425781 L 56.199219 238.371094 C 57.632812 237.601562 59.238281 237.410156 60.832031 237.148438 L 68.070312 236.070312 L 69.414062 235.808594 C 70.015625 235.601562 70.234375 235.371094 70.496094 234.816406 C 70.308594 233.492188 69.691406 232.339844 68.832031 231.324219 L 68.652344 231.109375 C 65.742188 227.652344 61.457031 225.890625 57.484375 223.941406 C 56.28125 223.351562 55.015625 222.863281 53.96875 222.011719 L 53.800781 221.871094 L 53.601562 221.871094 Z M 53.601562 221.875 " fill-opacity="1" fill-rule="nonzero"/></g><g clip-path="url(#a8583d96c0)"><g clip-path="url(#7c913c41c2)"><path fill="url(#a2c14b1c69)" d="M 126.429688 254.578125 L 79.917969 340.605469 L -6.730469 293.816406 L 39.785156 207.792969 Z M 126.429688 254.578125 " fill-rule="nonzero"/></g></g><path fill="#4c4b54" d="M 61.183594 244.710938 C 53.375 244.164062 44.75 245.875 38.683594 251.117188 C 34.527344 254.714844 31.101562 259.375 29.429688 264.65625 C 28.894531 266.351562 28.640625 268.058594 28.324219 269.792969 C 27.957031 271.808594 27.894531 274.722656 28.21875 276.726562 C 28.4375 278.085938 28.542969 279.417969 28.824219 280.78125 C 29.042969 281.851562 29.503906 282.878906 29.753906 283.957031 L 29.578125 284.066406 C 29.074219 284.414062 28.683594 284.816406 28.152344 285.148438 C 27.609375 285.488281 27.21875 285.859375 26.601562 286.078125 C 26.34375 285.703125 26.394531 285.660156 26.289062 285.253906 C 26.207031 284.945312 26.101562 284.679688 26.035156 284.363281 C 25.976562 284.058594 25.863281 283.933594 25.667969 283.703125 L 25.769531 283.289062 L 25.5625 282.980469 C 25.5625 282.265625 25.179688 281.769531 25.050781 281.117188 C 25.015625 280.945312 25.183594 280.773438 25.152344 280.601562 C 25.109375 280.40625 24.875 280.28125 24.84375 280.085938 C 24.800781 279.84375 24.984375 279.601562 24.945312 279.363281 C 24.878906 278.984375 24.625 279.0625 24.664062 278.566406 C 24.707031 278.046875 24.722656 277.839844 24.429688 277.398438 C 24.480469 276.417969 24.671875 275.246094 24.425781 274.296875 C 24.265625 273.667969 24.386719 273.453125 24.53125 272.851562 C 24.691406 272.167969 24.398438 270.984375 24.207031 270.3125 C 23.234375 275.558594 24.667969 281.425781 26.195312 286.429688 L 26.417969 286.375 C 27.792969 286.007812 28.871094 284.984375 29.984375 284.132812 C 32.785156 289.945312 36.949219 294.601562 42.828125 297.359375 C 42.128906 295.613281 40.582031 294.167969 39.621094 292.519531 C 36.675781 287.46875 34.519531 281.609375 33.589844 275.839844 C 32.589844 269.617188 34.003906 263.910156 37.644531 258.792969 C 38.769531 257.214844 40.332031 255.5625 41.871094 254.367188 C 45.695312 251.398438 49.902344 248.894531 54.648438 247.6875 L 55.042969 247.585938 L 59.796875 246.71875 C 60.058594 246.671875 60.28125 246.597656 60.546875 246.578125 C 60.898438 246.550781 61.238281 246.546875 61.574219 246.433594 C 61.914062 246.316406 62.152344 246.199219 62.519531 246.179688 L 64.039062 246.085938 C 64.550781 245.742188 65.40625 245.851562 66.03125 245.835938 L 63.933594 245.460938 C 63.605469 245.394531 63.351562 245.285156 63.007812 245.28125 C 62.304688 245.273438 61.972656 245.1875 61.363281 244.820312 Z M 61.183594 244.710938 " fill-opacity="1" fill-rule="nonzero"/><path fill="#393e47" d="M 42.828125 297.359375 C 46.472656 299 50.292969 300.777344 54.273438 301.398438 C 57.214844 301.855469 60.164062 301.953125 63.105469 301.425781 C 70.457031 300.117188 76.898438 296.332031 81.210938 290.148438 C 82.683594 288.035156 83.980469 285.785156 84.878906 283.363281 C 87.535156 276.203125 88.265625 268.324219 84.996094 261.210938 C 82.570312 255.9375 78.617188 252.214844 73.65625 249.339844 C 72.394531 248.605469 70.886719 247.6875 69.507812 247.199219 L 67.246094 246.398438 L 67 245.980469 C 66.527344 245.289062 64.253906 245.054688 63.417969 244.890625 C 62.65625 244.738281 61.964844 244.714844 61.183594 244.710938 L 61.363281 244.824219 C 61.972656 245.1875 62.308594 245.273438 63.007812 245.28125 C 63.351562 245.285156 63.605469 245.394531 63.9375 245.460938 L 66.035156 245.835938 C 65.40625 245.851562 64.554688 245.742188 64.039062 246.085938 L 62.519531 246.183594 C 62.152344 246.199219 61.914062 246.316406 61.574219 246.433594 C 61.238281 246.546875 60.898438 246.550781 60.546875 246.578125 C 60.28125 246.597656 60.058594 246.671875 59.800781 246.71875 L 55.042969 247.589844 L 54.648438 247.6875 C 49.902344 248.894531 45.699219 251.398438 41.871094 254.367188 C 40.332031 255.5625 38.773438 257.214844 37.648438 258.796875 C 34.003906 263.910156 32.59375 269.617188 33.589844 275.839844 C 34.519531 281.609375 36.675781 287.46875 39.621094 292.519531 C 40.582031 294.167969 42.132812 295.613281 42.828125 297.359375 Z M 42.828125 297.359375 " fill-opacity="1" fill-rule="nonzero"/><path fill="#f5bd36" d="M 60.097656 253.09375 C 56.132812 252.726562 51.457031 253.988281 48.074219 256.078125 C 43.425781 258.953125 40.53125 263.707031 39.257812 268.921875 L 38.941406 270.472656 C 38.25 276.109375 39.527344 281.714844 43.128906 286.167969 C 46.703125 290.59375 51.714844 292.648438 57.265625 293.214844 L 57.339844 293.230469 C 62.210938 293.652344 67.441406 292.15625 71.273438 289.082031 C 75.148438 285.96875 78.148438 280.851562 78.613281 275.855469 C 79.121094 270.394531 77.808594 264.628906 74.21875 260.363281 C 70.464844 255.898438 65.878906 253.585938 60.097656 253.09375 Z M 60.097656 253.09375 " fill-opacity="1" fill-rule="nonzero"/><path fill="#e8a521" d="M 62.089844 259.65625 C 58.0625 259.054688 54.304688 259.421875 50.917969 261.890625 C 47.917969 264.078125 45.566406 267.460938 45.117188 271.195312 C 44.601562 275.527344 45.882812 279.203125 48.605469 282.554688 C 49.160156 283.238281 49.941406 284.121094 50.722656 284.523438 C 51.628906 284.089844 52.597656 283.914062 53.488281 283.386719 C 56.296875 281.738281 56.746094 278.421875 57.582031 275.542969 C 57.847656 275.550781 58.105469 275.542969 58.367188 275.5 C 59.1875 275.371094 59.863281 275.042969 60.347656 274.347656 L 60.484375 274.148438 C 61.136719 273.214844 61.078125 272.355469 61.089844 271.261719 C 61.90625 267.585938 61.722656 263.410156 62.089844 259.65625 Z M 62.089844 259.65625 " fill-opacity="1" fill-rule="nonzero"/><path fill="#f5bd36" d="M 61.085938 271.261719 C 60.289062 270.328125 59.488281 269.214844 58.164062 269.089844 C 57.375 269.015625 56.625 269.148438 56.023438 269.699219 C 55.179688 270.46875 54.976562 271.722656 55.039062 272.804688 C 55.078125 273.46875 55.40625 274.214844 55.929688 274.648438 C 56.394531 275.03125 57.015625 275.347656 57.582031 275.542969 C 57.847656 275.550781 58.101562 275.542969 58.363281 275.5 C 59.1875 275.371094 59.863281 275.039062 60.347656 274.347656 L 60.480469 274.148438 C 61.132812 273.214844 61.074219 272.355469 61.085938 271.261719 Z M 61.085938 271.261719 " fill-opacity="1" fill-rule="nonzero"/><path fill="#c68b23" d="M 50.722656 284.523438 C 51.734375 285.300781 52.933594 285.929688 54.125 286.386719 C 57.359375 287.636719 61.203125 287.671875 64.382812 286.21875 C 67.929688 284.601562 70.363281 281.730469 71.6875 278.097656 C 72.929688 274.683594 72.839844 270.765625 71.277344 267.460938 C 69.367188 263.433594 66.195312 261.167969 62.089844 259.652344 C 61.722656 263.410156 61.90625 267.585938 61.089844 271.261719 C 61.074219 272.355469 61.132812 273.214844 60.480469 274.148438 L 60.347656 274.347656 C 59.863281 275.039062 59.1875 275.371094 58.367188 275.5 C 58.101562 275.542969 57.847656 275.550781 57.582031 275.542969 C 56.746094 278.421875 56.296875 281.738281 53.488281 283.386719 C 52.597656 283.914062 51.625 284.089844 50.722656 284.523438 Z M 50.722656 284.523438 " fill-opacity="1" fill-rule="nonzero"/><path fill="#c68b23" d="M 350.894531 161.558594 L 350.902344 159.386719 C 350.925781 154.542969 351.175781 149.53125 350.765625 144.707031 C 349.109375 125.34375 340.71875 106.40625 326.953125 92.5625 C 321.339844 86.917969 315.082031 81.863281 308.175781 77.867188 C 292.554688 68.828125 274.320312 65.125 256.417969 65.078125 C 260.109375 67.984375 263.804688 70.542969 267.207031 73.847656 C 280.890625 87.144531 289.433594 105.878906 291.65625 124.746094 C 293.105469 137.058594 291.539062 149.378906 289.382812 161.507812 C 290.46875 161.824219 292.152344 161.621094 293.300781 161.621094 L 302.003906 161.632812 L 329.246094 161.597656 Z M 350.894531 161.558594 " fill-opacity="1" fill-rule="nonzero"/><g clip-path="url(#7af2975b74)"><path fill="#f5bd36" d="M 256.417969 65.078125 C 252.003906 64.746094 247.46875 64.949219 243.042969 64.949219 L 219.3125 64.949219 L 143.933594 64.953125 L 115.058594 65.027344 L 108.960938 65.082031 C 108.445312 65.089844 107.40625 64.976562 106.949219 65.121094 C 106.441406 65.28125 105.597656 65.984375 105.132812 66.292969 L 100.390625 69.464844 L 75.5625 86.386719 L 70.445312 89.933594 L 88.109375 89.917969 L 127.859375 89.792969 L 150.347656 89.734375 L 153.300781 89.722656 L 191.988281 89.757812 C 194.460938 89.460938 197.070312 89.640625 199.5625 89.65625 L 211.316406 89.6875 L 227.457031 89.710938 C 230.472656 89.71875 233.71875 89.476562 236.695312 89.945312 C 240.140625 90.488281 243.515625 91.640625 246.300781 93.800781 C 250.882812 97.363281 254.074219 101.980469 254.867188 107.796875 L 254.921875 108.160156 C 255.449219 112.082031 255.125 116.464844 255.121094 120.4375 L 255.1875 143.792969 L 255.078125 161.648438 L 289.335938 161.632812 L 289.382812 161.507812 C 291.539062 149.378906 293.105469 137.058594 291.65625 124.746094 C 289.433594 105.878906 280.890625 87.144531 267.207031 73.847656 C 263.804688 70.542969 260.109375 67.984375 256.417969 65.078125 Z M 256.417969 65.078125 " fill-opacity="1" fill-rule="nonzero"/></g><path fill="#137154" d="M 120.339844 169.757812 L 56.367188 169.914062 C 55.664062 171.878906 54.621094 173.984375 54.109375 175.988281 L 52.734375 176.914062 C 54.195312 177.878906 55.367188 178.59375 55.734375 180.453125 C 55.921875 181.40625 55.835938 182.441406 55.800781 183.410156 L 55.820312 196.484375 C 55.808594 198.566406 55.980469 200.851562 55.703125 202.898438 C 55.613281 203.554688 55.480469 204.109375 55.019531 204.601562 C 54.71875 204.929688 54.390625 205.199219 53.996094 205.402344 L 53.40625 205.980469 L 53.40625 207.199219 L 53.570312 207.273438 L 53.601562 221.871094 L 53.800781 221.871094 L 53.96875 222.011719 C 55.015625 222.863281 56.28125 223.351562 57.484375 223.941406 C 61.457031 225.890625 65.742188 227.652344 68.652344 231.109375 L 68.832031 231.320312 C 69.691406 232.339844 70.308594 233.492188 70.496094 234.816406 C 70.234375 235.371094 70.015625 235.601562 69.417969 235.808594 L 68.070312 236.070312 L 60.832031 237.148438 C 59.238281 237.410156 57.636719 237.601562 56.199219 238.371094 L 56.042969 238.425781 C 58.085938 238.457031 60.1875 238.398438 62.222656 238.605469 C 71.421875 239.535156 80.042969 243.316406 86.507812 249.992188 C 89.203125 252.769531 91.496094 256.296875 92.96875 259.875 C 93.664062 261.566406 94.113281 263.320312 94.675781 265.054688 L 94.878906 265.128906 C 95.917969 265.640625 97.125 267.253906 97.988281 268.085938 C 101.195312 271.175781 105.546875 273.242188 109.863281 274.207031 C 112.28125 274.75 114.6875 274.683594 117.144531 274.683594 L 125.359375 274.671875 L 152.285156 274.632812 L 258.359375 274.660156 L 259.976562 268.464844 C 260.210938 267.675781 260.433594 266.558594 260.839844 265.859375 L 264.195312 257.515625 C 259.949219 257.589844 256.105469 259.179688 251.882812 259.308594 L 251.539062 259.8125 L 233.96875 259.8125 L 186.195312 259.636719 L 185.675781 253.507812 L 185.519531 252.597656 L 163.707031 252.605469 C 160.277344 252.605469 156.496094 252.253906 153.117188 252.683594 C 152.1875 252.910156 151.335938 252.804688 150.394531 252.828125 L 145.117188 252.890625 L 130.019531 252.875 L 129.769531 252.65625 L 127.910156 252.59375 L 127.925781 240.238281 C 125.527344 240.167969 122.710938 240.003906 120.347656 240.417969 L 120.34375 235.019531 Z M 120.339844 169.757812 " fill-opacity="1" fill-rule="nonzero"/><path fill="#19242d" d="M 129.769531 252.65625 L 127.910156 252.59375 L 127.875 259.617188 L 186.195312 259.640625 L 185.675781 253.507812 L 185.519531 252.597656 L 163.707031 252.605469 C 160.28125 252.605469 156.496094 252.253906 153.117188 252.683594 C 152.1875 252.910156 151.335938 252.804688 150.394531 252.828125 L 145.117188 252.890625 L 130.023438 252.875 Z M 129.769531 252.65625 " fill-opacity="1" fill-rule="nonzero"/><path fill="#e8a521" d="M 60.117188 204.054688 C 59.363281 205.710938 58.441406 207.027344 56.636719 207.664062 C 55.457031 208.078125 54.664062 207.78125 53.570312 207.273438 L 53.605469 221.871094 L 53.800781 221.871094 C 65.230469 220.429688 77.875 223.453125 87.011719 230.585938 C 94.574219 236.488281 100.105469 245.003906 102.664062 254.234375 C 102.863281 254.964844 103.699219 259.398438 103.914062 259.652344 C 104.128906 259.910156 104.582031 259.652344 104.914062 259.652344 L 114.929688 259.632812 C 116.699219 259.628906 118.578125 259.753906 120.332031 259.582031 L 127.875 259.617188 L 127.910156 252.59375 L 127.925781 240.238281 C 125.527344 240.167969 122.710938 240.003906 120.347656 240.417969 L 120.34375 235.019531 L 119.988281 235.1875 C 116.101562 233.457031 112.300781 231.261719 108.542969 229.265625 L 94.746094 222.15625 L 73.171875 211.121094 C 68.855469 208.929688 64 206.917969 60.117188 204.054688 Z M 60.117188 204.054688 " fill-opacity="1" fill-rule="nonzero"/><path fill="#137154" d="M 127.921875 240.238281 C 125.527344 240.167969 122.707031 240.003906 120.347656 240.417969 L 120.332031 259.582031 L 127.875 259.617188 L 127.90625 252.59375 Z M 127.921875 240.238281 " fill-opacity="1" fill-rule="nonzero"/><path fill="#f5bd36" d="M 120.339844 169.757812 L 56.367188 169.914062 C 55.664062 171.878906 54.621094 173.984375 54.109375 175.988281 L 52.734375 176.914062 C 54.195312 177.878906 55.367188 178.59375 55.734375 180.453125 C 55.921875 181.40625 55.835938 182.441406 55.800781 183.410156 L 55.820312 196.484375 C 55.808594 198.566406 55.980469 200.851562 55.703125 202.898438 C 55.613281 203.554688 55.480469 204.109375 55.019531 204.601562 C 54.71875 204.929688 54.390625 205.199219 53.996094 205.402344 L 53.40625 205.980469 L 53.40625 207.199219 L 53.570312 207.273438 C 54.664062 207.78125 55.457031 208.078125 56.636719 207.664062 C 58.441406 207.027344 59.359375 205.710938 60.117188 204.054688 C 64 206.917969 68.855469 208.929688 73.171875 211.121094 L 94.746094 222.15625 L 108.542969 229.269531 C 112.300781 231.261719 116.101562 233.457031 119.988281 235.1875 L 120.34375 235.019531 Z M 120.339844 169.757812 " fill-opacity="1" fill-rule="nonzero"/><path fill="#084340" d="M 60.117188 204.054688 C 60.367188 202.308594 60.285156 200.46875 60.289062 198.707031 L 60.292969 190.472656 L 60.28125 183.863281 C 60.277344 182.605469 60.398438 181.082031 59.910156 179.898438 L 59.785156 179.625 C 59.605469 179.222656 59.421875 178.84375 59.148438 178.488281 C 57.765625 176.6875 56.253906 176.210938 54.109375 175.988281 L 52.734375 176.914062 C 54.195312 177.878906 55.367188 178.59375 55.734375 180.453125 C 55.921875 181.40625 55.835938 182.441406 55.800781 183.410156 L 55.820312 196.484375 C 55.808594 198.566406 55.980469 200.851562 55.703125 202.898438 C 55.613281 203.554688 55.480469 204.109375 55.023438 204.601562 C 54.71875 204.929688 54.390625 205.199219 53.996094 205.402344 L 53.40625 205.980469 L 53.40625 207.199219 L 53.570312 207.273438 C 54.664062 207.78125 55.457031 208.078125 56.636719 207.664062 C 58.441406 207.027344 59.363281 205.710938 60.117188 204.054688 Z M 60.117188 204.054688 " fill-opacity="1" fill-rule="nonzero"/><path fill="#ae3723" d="M 79.847656 187.722656 C 77.839844 186.230469 76.070312 185.390625 73.496094 185.792969 C 71.371094 186.125 69.472656 187.484375 68.261719 189.234375 C 67.148438 190.847656 66.589844 192.726562 66.972656 194.679688 C 67.355469 196.636719 68.851562 198.441406 70.507812 199.5 C 72.28125 200.632812 74.175781 201.042969 76.242188 200.59375 C 77.542969 200.3125 78.839844 199.585938 79.777344 198.644531 C 80.585938 197.636719 81.828125 196.257812 82.132812 194.972656 L 82.207031 194.613281 C 82.335938 194.105469 82.375 193.8125 82.324219 193.292969 L 82.304688 193.0625 C 82.109375 190.910156 81.050781 189.441406 79.847656 187.722656 Z M 79.847656 187.722656 " fill-opacity="1" fill-rule="nonzero"/><path fill="#b3d2c4" d="M 75.433594 187.742188 C 74.28125 187.722656 73.105469 187.800781 72.042969 188.28125 C 70.78125 188.847656 69.765625 190.109375 69.324219 191.402344 C 68.847656 192.792969 68.800781 194.472656 69.53125 195.792969 C 70.425781 197.410156 71.863281 198.171875 73.566406 198.664062 C 74.949219 198.6875 76.019531 198.691406 77.273438 198.007812 C 78.648438 197.253906 79.59375 195.980469 80.023438 194.484375 C 80.402344 193.160156 80.070312 191.59375 79.390625 190.417969 C 78.492188 188.863281 77.117188 188.152344 75.433594 187.742188 Z M 75.433594 187.742188 " fill-opacity="1" fill-rule="nonzero"/><path fill="#c3542e" d="M 79.777344 198.644531 C 82.25 199.003906 84.878906 198.847656 87.371094 198.851562 L 99.828125 198.863281 L 110.121094 198.863281 C 111.867188 198.867188 114.09375 199.128906 115.75 198.589844 C 116.21875 198.136719 116.457031 197.992188 116.511719 197.300781 C 116.65625 195.371094 116.566406 193.335938 116.566406 191.394531 C 116.566406 190.738281 116.65625 189.433594 116.425781 188.824219 C 116.375 188.6875 116.035156 188.371094 115.929688 188.265625 C 115.585938 187.90625 115.175781 187.78125 114.6875 187.726562 C 113.476562 187.585938 112.128906 187.695312 110.902344 187.691406 L 103.90625 187.683594 L 79.847656 187.722656 C 81.050781 189.441406 82.109375 190.910156 82.304688 193.0625 L 82.324219 193.292969 C 82.375 193.8125 82.335938 194.105469 82.207031 194.613281 L 82.132812 194.972656 C 81.828125 196.257812 80.585938 197.636719 79.777344 198.644531 Z M 79.777344 198.644531 " fill-opacity="1" fill-rule="nonzero"/><path fill="#19242d" d="M 139.8125 168.550781 C 139.199219 167.960938 138.683594 167.207031 138.089844 166.578125 L 127.6875 178.128906 C 127.753906 179.183594 127.742188 180.320312 127.972656 181.351562 C 129.53125 180.085938 130.832031 178.453125 132.148438 176.941406 C 134.625 174.101562 137.066406 171.128906 139.8125 168.550781 Z M 139.8125 168.550781 " fill-opacity="1" fill-rule="nonzero"/><path fill="#566046" d="M 148.332031 161.722656 C 145.96875 163.335938 143.5 164.457031 140.558594 163.9375 C 139.359375 163.726562 138.144531 163.191406 137.023438 162.726562 L 138.089844 166.578125 C 138.6875 167.207031 139.199219 167.960938 139.8125 168.550781 C 141.207031 169.449219 142.210938 169.996094 143.964844 169.871094 C 146.242188 169.710938 147.328125 168.679688 148.722656 167.03125 C 148.789062 165.261719 148.523438 163.476562 148.332031 161.722656 Z M 148.332031 161.722656 " fill-opacity="1" fill-rule="nonzero"/><path fill="#888b4f" d="M 148.332031 161.722656 C 147.929688 158.402344 147.148438 147.300781 144.5 145.375 C 143.261719 144.476562 141.402344 144.230469 139.921875 144.503906 C 138.316406 144.796875 136.753906 145.921875 135.875 147.273438 C 135.335938 148.105469 134.9375 149.136719 134.894531 150.140625 C 134.824219 151.757812 135.410156 153.664062 135.726562 155.265625 L 137.023438 162.726562 C 138.144531 163.191406 139.359375 163.726562 140.558594 163.9375 C 143.5 164.457031 145.96875 163.335938 148.332031 161.722656 Z M 148.332031 161.722656 " fill-opacity="1" fill-rule="nonzero"/><path fill="#393e47" d="M 153.300781 89.722656 L 150.347656 89.734375 L 150.28125 252.628906 L 129.769531 252.65625 L 130.019531 252.875 L 145.117188 252.890625 L 150.394531 252.828125 C 151.335938 252.804688 152.1875 252.910156 153.117188 252.683594 Z M 153.300781 89.722656 " fill-opacity="1" fill-rule="nonzero"/><path fill="#258c6d" d="M 127.578125 173.375 C 127.148438 172.804688 127.390625 169.875 127.386719 169.003906 L 120.339844 169.757812 L 120.34375 235.019531 L 120.347656 240.417969 C 122.707031 240.003906 125.527344 240.167969 127.921875 240.238281 L 127.972656 181.351562 C 127.742188 180.320312 127.753906 179.183594 127.6875 178.128906 Z M 127.578125 173.375 " fill-opacity="1" fill-rule="nonzero"/><path fill="#94d0da" d="M 127.855469 89.792969 L 88.109375 89.917969 L 85.066406 97.773438 L 60.035156 160.640625 L 56.363281 169.914062 L 120.339844 169.757812 L 127.386719 169.003906 C 127.390625 169.875 127.148438 172.804688 127.578125 173.375 Z M 127.855469 89.792969 " fill-opacity="1" fill-rule="nonzero"/><path fill="#c2e4ee" d="M 118.78125 114.207031 L 118.757812 113.945312 L 118.683594 105.273438 L 83.316406 160.371094 C 85.53125 160.371094 88.09375 160.136719 90.265625 160.4375 L 90.410156 160.441406 C 90.773438 159.378906 91.726562 158.214844 92.335938 157.246094 L 97.84375 148.722656 L 110.789062 128.644531 L 115.574219 121.347656 C 116.59375 119.785156 117.492188 118.128906 118.777344 116.765625 Z M 118.78125 114.207031 " fill-opacity="1" fill-rule="nonzero"/><path fill="#c2e4ee" d="M 118.886719 97.578125 L 116.582031 97.601562 L 116.382812 97.636719 C 115.136719 97.828125 107.308594 97.660156 107.070312 97.976562 L 66.894531 160.375 L 78.882812 160.367188 L 90.832031 141.800781 L 109.484375 113.375 L 115.140625 104.5 C 116.238281 102.726562 117.28125 100.558594 118.675781 99.003906 Z M 118.886719 97.578125 " fill-opacity="1" fill-rule="nonzero"/><path fill="#258c6d" d="M 127.855469 89.792969 L 88.109375 89.917969 L 85.066406 97.773438 L 116.582031 97.601562 L 118.882812 97.578125 L 118.867188 107.609375 C 118.855469 109.753906 119.03125 112.089844 118.78125 114.207031 L 118.773438 116.765625 C 117.492188 118.128906 116.59375 119.785156 115.574219 121.347656 L 110.785156 128.644531 L 97.84375 148.722656 L 92.335938 157.246094 C 91.726562 158.214844 90.773438 159.378906 90.40625 160.441406 L 90.265625 160.4375 C 87.847656 160.789062 85.195312 160.542969 82.75 160.542969 L 68.847656 160.554688 C 65.933594 160.542969 62.9375 160.402344 60.035156 160.640625 L 56.363281 169.914062 L 120.339844 169.757812 L 127.386719 169.003906 C 127.390625 169.875 127.148438 172.804688 127.578125 173.375 Z M 127.855469 89.792969 " fill-opacity="1" fill-rule="nonzero"/><path fill="#94d0da" d="M 118.777344 116.765625 C 117.492188 118.128906 116.59375 119.785156 115.574219 121.347656 L 110.789062 128.644531 L 97.84375 148.722656 L 92.335938 157.246094 C 91.726562 158.214844 90.773438 159.378906 90.410156 160.441406 L 118.742188 160.441406 Z M 118.777344 116.765625 " fill-opacity="1" fill-rule="nonzero"/><g clip-path="url(#2a21d7d527)"><path fill="#e8a521" d="M 350.894531 161.558594 L 329.246094 161.597656 L 302.003906 161.632812 L 293.300781 161.621094 C 292.152344 161.621094 290.46875 161.824219 289.382812 161.507812 L 289.335938 161.632812 L 255.078125 161.648438 L 253.136719 173.253906 L 251.449219 182.285156 C 251.289062 183.308594 251.1875 184.386719 250.925781 185.386719 L 249.753906 191.519531 L 249.558594 192.945312 L 248.933594 195.949219 L 248.335938 197.964844 L 247.664062 200.996094 L 246.769531 205.339844 L 245.925781 208.636719 L 245.003906 214.765625 L 239.527344 237.738281 L 235.769531 252.765625 L 233.96875 259.8125 L 251.539062 259.8125 L 251.882812 259.308594 C 256.105469 259.179688 259.949219 257.589844 264.195312 257.515625 L 260.839844 265.859375 L 269.8125 265.898438 C 269.585938 268.324219 269.15625 270.703125 269.121094 273.148438 C 269 281.667969 272.011719 289.960938 277.484375 296.488281 L 283.433594 302.3125 C 287.242188 304.914062 291.433594 307.195312 295.953125 308.261719 C 298.679688 308.90625 301.402344 309.089844 304.171875 309.398438 L 305.984375 309.386719 C 307.546875 309.042969 309.195312 309.015625 310.78125 308.730469 C 315.539062 307.875 319.757812 306.15625 323.953125 303.796875 C 328.289062 301.054688 331.980469 297.683594 334.871094 293.421875 C 340.328125 285.382812 342.292969 275.976562 340.46875 266.460938 L 340.609375 266.390625 L 352.898438 266.40625 C 352.976562 261 351.660156 255.082031 349.453125 250.152344 C 348.25 247.464844 346.710938 244.953125 345.199219 242.433594 L 346.988281 232.664062 C 346.617188 231.929688 346.230469 231.152344 346.101562 230.335938 C 345.761719 228.226562 346.035156 225.59375 346.039062 223.429688 C 346.042969 220.917969 345.675781 217.613281 346.1875 215.207031 L 346.242188 214.972656 C 346.398438 214.277344 346.617188 213.726562 347.054688 213.15625 C 348.082031 211.820312 349.359375 211.417969 350.964844 211.234375 L 350.769531 210.730469 L 350.800781 205.636719 L 350.835938 197.949219 L 350.839844 193.035156 L 350.847656 185.214844 Z M 350.894531 161.558594 " fill-opacity="1" fill-rule="nonzero"/></g><path fill="#f3cc6b" d="M 350.800781 205.636719 L 341.144531 205.613281 L 329.070312 205.632812 L 327.617188 208.957031 L 350.511719 208.820312 L 350.769531 210.730469 Z M 350.800781 205.636719 " fill-opacity="1" fill-rule="nonzero"/><path fill="#258c6d" d="M 291.09375 219.867188 C 277.09375 223.121094 265.5 233.289062 258.050781 245.253906 C 255.359375 249.574219 253.332031 254.441406 251.882812 259.308594 C 256.105469 259.179688 259.949219 257.589844 264.195312 257.515625 L 266.609375 253.316406 C 269.746094 248.226562 274.007812 243.210938 278.945312 239.789062 C 284.109375 236.214844 289.90625 234.085938 295.976562 232.640625 C 297.300781 231.574219 298.472656 230.417969 298.996094 228.746094 C 299.414062 227.414062 299.078125 225.589844 298.445312 224.378906 C 297.03125 221.675781 293.78125 220.710938 291.09375 219.867188 Z M 291.09375 219.867188 " fill-opacity="1" fill-rule="nonzero"/><path fill="#f5bd36" d="M 246.769531 205.339844 L 245.925781 208.636719 L 245.003906 214.765625 L 239.527344 237.738281 C 240.5625 237.714844 241.933594 237.085938 242.941406 236.761719 L 250.113281 234.515625 L 269.019531 229.300781 C 270.519531 226.746094 271.527344 223.574219 272.570312 220.792969 L 277.007812 209.140625 L 278.121094 205.46875 L 252.636719 205.453125 Z M 246.769531 205.339844 " fill-opacity="1" fill-rule="nonzero"/><path fill="#f3cc6b" d="M 278.121094 205.46875 L 252.636719 205.453125 L 252.707031 209.011719 L 268.734375 209.140625 C 271.351562 209.101562 274.457031 208.675781 277.007812 209.140625 Z M 278.121094 205.46875 " fill-opacity="1" fill-rule="nonzero"/><path fill="#137154" d="M 345.199219 242.433594 C 340.449219 235.226562 334.566406 229.136719 327.003906 224.839844 C 316.03125 218.609375 303.359375 216.519531 291.09375 219.867188 C 293.78125 220.710938 297.03125 221.675781 298.445312 224.378906 C 299.078125 225.589844 299.414062 227.417969 298.996094 228.75 C 298.472656 230.417969 297.300781 231.574219 295.976562 232.640625 C 299.070312 232.410156 302.191406 232.167969 305.292969 232.398438 C 314.960938 233.117188 324.554688 237.554688 331.832031 243.867188 C 338.199219 249.390625 344.339844 257.8125 346.121094 266.164062 C 344.703125 266.152344 341.816406 265.765625 340.609375 266.390625 L 352.898438 266.40625 C 352.976562 261 351.660156 255.082031 349.453125 250.152344 C 348.25 247.464844 346.710938 244.953125 345.199219 242.433594 Z M 345.199219 242.433594 " fill-opacity="1" fill-rule="nonzero"/><path fill="#c3542e" d="M 350.847656 185.214844 L 284.058594 185.226562 L 283.996094 185.347656 L 282.730469 190.628906 C 282.535156 191.324219 282.019531 192.285156 282.308594 192.9375 L 281.964844 192.949219 L 280.671875 197.863281 L 280.5625 197.949219 L 279.136719 202.464844 C 278.824219 203.402344 278.351562 204.449219 278.265625 205.4375 L 341.144531 205.613281 L 350.800781 205.636719 L 350.835938 197.949219 L 350.839844 193.035156 Z M 350.847656 185.214844 " fill-opacity="1" fill-rule="nonzero"/><path fill="#e8a521" d="M 350.839844 193.035156 L 282.308594 192.9375 L 281.964844 192.949219 L 280.671875 197.863281 L 350.835938 197.949219 Z M 350.839844 193.035156 " fill-opacity="1" fill-rule="nonzero"/><path fill="#c3542e" d="M 350.847656 185.214844 L 284.058594 185.226562 L 283.996094 185.347656 L 282.730469 190.628906 C 282.535156 191.324219 282.019531 192.285156 282.308594 192.9375 L 350.839844 193.035156 Z M 350.847656 185.214844 " fill-opacity="1" fill-rule="nonzero"/><path fill="#f3cc6b" d="M 255.078125 161.648438 L 253.136719 173.253906 L 251.449219 182.285156 C 251.289062 183.308594 251.1875 184.386719 250.925781 185.386719 L 249.753906 191.519531 L 249.558594 192.945312 L 248.933594 195.949219 L 248.335938 197.964844 L 247.664062 200.996094 L 246.769531 205.339844 L 252.636719 205.453125 L 278.121094 205.46875 L 278.265625 205.4375 C 278.351562 204.449219 278.824219 203.402344 279.136719 202.464844 L 280.5625 197.949219 L 280.671875 197.863281 L 281.964844 192.949219 L 282.308594 192.9375 C 282.019531 192.285156 282.535156 191.324219 282.730469 190.628906 L 283.996094 185.347656 L 284.058594 185.230469 L 289.335938 161.632812 Z M 255.078125 161.648438 " fill-opacity="1" fill-rule="nonzero"/><path fill="#e37d38" d="M 283.996094 185.347656 L 250.925781 185.386719 L 249.753906 191.519531 L 249.558594 192.945312 L 248.933594 195.949219 L 248.335938 197.964844 L 247.664062 200.996094 L 246.769531 205.339844 L 252.636719 205.453125 L 278.121094 205.46875 L 278.265625 205.4375 C 278.351562 204.449219 278.824219 203.402344 279.136719 202.464844 L 280.5625 197.949219 L 280.671875 197.863281 L 281.964844 192.949219 L 282.308594 192.9375 C 282.019531 192.285156 282.535156 191.324219 282.730469 190.628906 Z M 283.996094 185.347656 " fill-opacity="1" fill-rule="nonzero"/><path fill="#f3cc6b" d="M 249.558594 192.945312 L 248.933594 195.949219 L 248.335938 197.964844 L 280.5625 197.949219 L 280.671875 197.863281 L 281.964844 192.949219 Z M 249.558594 192.945312 " fill-opacity="1" fill-rule="nonzero"/><path fill="#e37d38" d="M 280.5625 197.949219 L 248.335938 197.964844 L 247.664062 200.996094 L 246.769531 205.339844 L 252.636719 205.453125 L 278.121094 205.46875 L 278.265625 205.4375 C 278.351562 204.449219 278.824219 203.402344 279.136719 202.464844 Z M 280.5625 197.949219 " fill-opacity="1" fill-rule="nonzero"/><path fill="#e8a521" d="M 350.894531 161.558594 L 329.246094 161.597656 L 302.003906 161.632812 L 293.300781 161.621094 C 292.152344 161.621094 290.46875 161.824219 289.382812 161.507812 L 289.335938 161.632812 L 284.058594 185.230469 L 350.847656 185.214844 Z M 350.894531 161.558594 " fill-opacity="1" fill-rule="nonzero"/><g clip-path="url(#7b0367e14f)"><g clip-path="url(#edf180ae60)"><path fill="url(#08264ac310)" d="M 377.132812 247.746094 L 328.917969 343.597656 L 229.828125 293.820312 L 278.042969 197.96875 Z M 377.132812 247.746094 " fill-rule="nonzero"/></g></g><path fill="#084340" d="M 340.609375 266.386719 C 341.816406 265.761719 344.703125 266.152344 346.121094 266.164062 C 344.339844 257.8125 338.199219 249.390625 331.832031 243.867188 C 324.554688 237.550781 314.960938 233.117188 305.292969 232.398438 C 302.191406 232.167969 299.070312 232.410156 295.976562 232.640625 C 289.90625 234.085938 284.109375 236.210938 278.945312 239.789062 C 274.007812 243.210938 269.746094 248.226562 266.613281 253.3125 L 264.195312 257.515625 L 260.839844 265.859375 L 269.8125 265.898438 L 269.949219 265.535156 C 270.652344 263.625 271 261.554688 271.710938 259.617188 C 273.726562 254.113281 277.734375 248.527344 282.480469 245.046875 C 290.121094 239.441406 299.46875 236.21875 308.992188 237.398438 L 309.765625 237.527344 C 319.117188 239.097656 328.023438 243.929688 333.640625 251.679688 C 335.34375 254.027344 336.871094 256.578125 337.992188 259.257812 C 338.976562 261.613281 339.621094 264.058594 340.46875 266.457031 Z M 340.609375 266.386719 " fill-opacity="1" fill-rule="nonzero"/><path fill="#4c4b54" d="M 306.570312 243.589844 C 305.035156 243.464844 302.917969 243.34375 301.414062 243.625 C 300.832031 243.730469 300.253906 243.71875 299.683594 243.855469 C 298.019531 244.253906 296.425781 244.507812 294.769531 245.007812 C 292.296875 245.761719 289.90625 246.921875 287.714844 248.28125 C 283.628906 250.820312 280.21875 255.121094 278.066406 259.382812 C 277.570312 260.367188 277.015625 261.324219 276.765625 262.414062 L 275.96875 265.03125 C 273.910156 273.289062 275.429688 281.71875 279.816406 288.945312 C 280.929688 290.777344 282.480469 292.347656 283.554688 294.152344 L 283.445312 294.398438 L 281.222656 295.792969 L 281.222656 295.992188 C 282.210938 295.488281 283.054688 294.90625 283.976562 294.300781 C 288.265625 297.921875 292.691406 300.152344 298.128906 301.519531 C 301.429688 302.152344 304.703125 302.277344 308.039062 301.863281 C 316.054688 300.871094 323.386719 296.214844 328.257812 289.890625 C 332.710938 284.105469 334.523438 276.347656 333.542969 269.140625 C 332.789062 263.585938 330.652344 258.320312 327.023438 254.003906 C 321.902344 247.90625 314.453125 244.3125 306.570312 243.589844 Z M 306.570312 243.589844 " fill-opacity="1" fill-rule="nonzero"/><path fill="#393e47" d="M 304.578125 248.136719 C 302.917969 247.890625 301.09375 248.21875 299.457031 248.492188 C 293.730469 249.449219 287.613281 253.117188 284.230469 257.859375 C 280.6875 262.824219 278.964844 269.308594 280.015625 275.363281 C 280.769531 279.703125 282.601562 283.878906 285.492188 287.234375 C 289.902344 292.351562 296.28125 295.390625 302.992188 295.925781 L 305.523438 295.898438 L 305.835938 295.695312 C 306.234375 295.699219 306.613281 295.707031 307.011719 295.652344 C 307.65625 295.566406 308.367188 295.523438 308.992188 295.355469 C 309.265625 295.28125 309.519531 295.21875 309.796875 295.175781 C 310.113281 295.121094 310.382812 295.078125 310.6875 294.976562 L 314.421875 293.550781 C 315.527344 293.109375 316.875 292.503906 317.761719 291.679688 C 317.992188 291.464844 318.265625 291.179688 318.558594 291.042969 C 319.09375 290.785156 318.664062 291.148438 319.132812 290.671875 C 319.59375 290.207031 320.179688 289.746094 320.6875 289.328125 C 321.347656 288.777344 321.890625 288.40625 322.441406 287.722656 L 323.210938 286.804688 L 324.546875 285.261719 C 328.042969 280.769531 329.347656 274.359375 328.507812 268.765625 L 328.449219 268.40625 C 327.765625 263.902344 325.617188 259.835938 322.585938 256.476562 C 317.910156 251.304688 311.488281 248.503906 304.578125 248.136719 Z M 304.578125 248.136719 " fill-opacity="1" fill-rule="nonzero"/><path fill="#f5bd36" d="M 304.589844 253.503906 C 303.25 253.558594 301.925781 253.585938 300.621094 253.921875 C 297.203125 254.804688 293.964844 256.253906 291.320312 258.644531 C 287.390625 262.195312 284.683594 266.9375 284.414062 272.300781 C 284.144531 277.695312 285.738281 282.996094 289.414062 287.019531 C 293.445312 291.429688 298.3125 293.550781 304.246094 293.816406 C 309.257812 293.679688 313.5625 292.136719 317.417969 288.882812 C 321.425781 285.503906 324.113281 280.585938 324.496094 275.328125 C 324.890625 269.898438 323.363281 264.65625 319.71875 260.550781 C 315.695312 256.011719 310.5625 253.878906 304.589844 253.503906 Z M 304.589844 253.503906 " fill-opacity="1" fill-rule="nonzero"/><path fill="#c68b23" d="M 304.785156 260.949219 C 303.414062 260.847656 301.632812 260.996094 300.324219 261.40625 C 297.042969 262.433594 294.097656 264.859375 292.570312 267.949219 L 292.429688 268.246094 C 291.167969 270.820312 290.949219 274.394531 291.761719 277.148438 L 291.871094 277.5 C 292.304688 278.921875 292.871094 280.160156 293.738281 281.367188 C 296.128906 284.6875 299.582031 286.296875 303.535156 286.945312 C 304.929688 286.980469 306.433594 286.988281 307.785156 286.609375 L 308.109375 286.511719 C 309.757812 286.039062 311.085938 285.390625 312.457031 284.355469 C 315.324219 282.195312 317.238281 278.867188 317.644531 275.304688 C 318.023438 272.015625 316.828125 268.210938 314.71875 265.660156 C 312.234375 262.652344 308.550781 261.285156 304.785156 260.949219 Z M 304.785156 260.949219 " fill-opacity="1" fill-rule="nonzero"/><path fill="#f5bd36" d="M 308.03125 264.839844 C 306.261719 263.40625 304.269531 263.164062 302.0625 263.339844 L 301.285156 263.46875 L 300.992188 263.523438 C 298.726562 263.976562 296.652344 265.785156 295.398438 267.679688 C 294.828125 268.539062 294.457031 269.496094 294.136719 270.472656 L 294.035156 270.777344 C 293.464844 272.546875 293.589844 274.433594 294.0625 276.210938 C 294.847656 276.761719 295.445312 277.175781 296.410156 277.332031 C 296.765625 276.765625 296.496094 275.808594 296.460938 275.125 C 296.328125 272.78125 296.433594 270.683594 297.949219 268.746094 C 300.628906 265.320312 304.089844 265.222656 308.03125 264.839844 Z M 308.03125 264.839844 " fill-opacity="1" fill-rule="nonzero"/><path fill="#e8a521" d="M 294.0625 276.210938 C 294.28125 278.023438 295.222656 279.746094 296.710938 280.832031 C 298.808594 282.359375 301.5625 282.84375 304.101562 282.46875 C 306.738281 282.078125 309.476562 280.722656 311.023438 278.492188 C 312.546875 276.292969 313.210938 273.820312 312.707031 271.175781 C 312.144531 268.207031 310.457031 266.464844 308.03125 264.84375 C 304.089844 265.222656 300.628906 265.324219 297.949219 268.75 C 296.433594 270.683594 296.328125 272.78125 296.457031 275.125 C 296.496094 275.808594 296.765625 276.765625 296.410156 277.332031 C 295.445312 277.175781 294.847656 276.761719 294.0625 276.210938 Z M 294.0625 276.210938 " fill-opacity="1" fill-rule="nonzero"/><path fill="#137154" d="M 184.328125 195.683594 L 182.8125 195.644531 C 180.773438 195.863281 179.367188 196.570312 178.089844 198.230469 C 177.535156 198.949219 177.191406 199.789062 177.003906 200.675781 C 176.699219 202.128906 176.867188 203.804688 176.859375 205.292969 L 176.855469 214.570312 L 181.195312 214.640625 L 182.855469 214.636719 L 184.484375 214.640625 L 184.4375 196.984375 Z M 184.328125 195.683594 " fill-opacity="1" fill-rule="nonzero"/><path fill="#74afa3" d="M 184.328125 195.683594 L 182.8125 195.644531 L 182.855469 214.636719 L 184.484375 214.640625 L 184.4375 196.984375 Z M 184.328125 195.683594 " fill-opacity="1" fill-rule="nonzero"/><path fill="#137154" d="M 192.148438 195.699219 L 190.566406 195.699219 L 184.328125 195.683594 L 184.4375 196.984375 L 184.484375 214.640625 C 186.425781 214.875 188.542969 214.714844 190.503906 214.683594 L 192.070312 214.695312 L 192.140625 201.199219 L 192.136719 197.65625 Z M 192.148438 195.699219 " fill-opacity="1" fill-rule="nonzero"/><path fill="#74afa3" d="M 192.136719 197.65625 L 192.0625 197.828125 C 191.765625 198.761719 192.351562 200.464844 191.660156 201.085938 L 190.539062 200.800781 L 190.503906 214.683594 L 192.070312 214.695312 L 192.140625 201.199219 Z M 192.136719 197.65625 " fill-opacity="1" fill-rule="nonzero"/><path fill="#258c6d" d="M 192.148438 195.699219 L 190.566406 195.699219 L 184.328125 195.683594 L 184.4375 196.984375 L 190.5 200.496094 L 190.539062 200.800781 L 191.660156 201.085938 C 192.351562 200.464844 191.765625 198.761719 192.0625 197.828125 L 192.136719 197.65625 Z M 192.148438 195.699219 " fill-opacity="1" fill-rule="nonzero"/><path fill="#b3d2c4" d="M 192.148438 195.699219 L 190.566406 195.699219 L 190.5 200.496094 L 190.539062 200.800781 L 191.660156 201.085938 C 192.351562 200.464844 191.765625 198.761719 192.0625 197.828125 L 192.136719 197.65625 Z M 192.148438 195.699219 " fill-opacity="1" fill-rule="nonzero"/><path fill="#258c6d" d="M 209.742188 195.675781 L 207.261719 195.710938 C 205.488281 195.550781 203.417969 195.496094 201.648438 195.714844 L 199.617188 195.699219 L 198.011719 195.675781 L 192.148438 195.699219 L 192.136719 197.65625 L 192.140625 201.199219 L 192.070312 214.695312 L 198.113281 214.722656 L 199.617188 214.71875 L 205.601562 214.722656 L 207.203125 214.710938 L 213.316406 214.714844 L 213.320312 208.050781 C 213.445312 207.230469 213.402344 206.359375 213.414062 205.53125 L 213.421875 195.574219 Z M 209.742188 195.675781 " fill-opacity="1" fill-rule="nonzero"/><path fill="#b3d2c4" d="M 199.617188 195.699219 L 198.011719 195.675781 L 197.984375 203.085938 L 198.105469 203.128906 L 199.628906 203.445312 Z M 199.617188 195.699219 " fill-opacity="1" fill-rule="nonzero"/><path fill="#b3d2c4" d="M 207.261719 195.710938 C 205.488281 195.550781 203.417969 195.496094 201.648438 195.714844 L 205.730469 195.757812 L 205.644531 204.683594 L 206.863281 204.808594 C 207.355469 204.328125 207.191406 201.363281 207.242188 200.457031 Z M 207.261719 195.710938 " fill-opacity="1" fill-rule="nonzero"/><path fill="#74afa3" d="M 199.628906 203.445312 L 198.105469 203.128906 L 198.113281 214.722656 L 199.617188 214.71875 L 199.671875 214.554688 Z M 199.628906 203.445312 " fill-opacity="1" fill-rule="nonzero"/><path fill="#258c6d" d="M 198.011719 195.675781 L 192.148438 195.695312 L 192.136719 197.65625 L 192.140625 201.199219 L 197.984375 203.085938 Z M 198.011719 195.675781 " fill-opacity="1" fill-rule="nonzero"/><path fill="#137154" d="M 197.984375 203.085938 L 192.140625 201.199219 L 192.070312 214.695312 L 198.113281 214.722656 L 198.105469 203.128906 Z M 197.984375 203.085938 " fill-opacity="1" fill-rule="nonzero"/><path fill="#137154" d="M 209.742188 195.675781 L 207.261719 195.710938 L 207.242188 200.457031 C 207.191406 201.363281 207.355469 204.328125 206.863281 204.808594 L 205.644531 204.683594 L 205.597656 204.789062 L 199.785156 203.617188 L 199.847656 211.347656 C 199.847656 212.285156 200.03125 213.6875 199.667969 214.554688 L 199.617188 214.71875 L 205.601562 214.722656 L 207.203125 214.710938 L 213.316406 214.714844 L 213.320312 208.050781 C 213.445312 207.230469 213.402344 206.359375 213.414062 205.53125 L 213.421875 195.574219 Z M 209.742188 195.675781 " fill-opacity="1" fill-rule="nonzero"/><path fill="#74afa3" d="M 207.242188 200.457031 C 207.191406 201.363281 207.355469 204.328125 206.863281 204.808594 L 205.644531 204.683594 L 205.597656 204.789062 L 205.601562 214.722656 L 207.203125 214.710938 L 207.261719 205.003906 Z M 207.242188 200.457031 " fill-opacity="1" fill-rule="nonzero"/><path fill="#137154" d="M 213.320312 208.050781 C 213.257812 207.261719 213.433594 206.234375 213.066406 205.519531 L 207.261719 205.003906 L 207.203125 214.710938 L 213.316406 214.714844 Z M 213.320312 208.050781 " fill-opacity="1" fill-rule="nonzero"/><path fill="#258c6d" d="M 209.742188 195.675781 L 207.261719 195.710938 L 207.242188 200.457031 L 207.261719 205.003906 L 213.066406 205.519531 C 213.433594 206.234375 213.257812 207.261719 213.320312 208.050781 C 213.445312 207.230469 213.402344 206.359375 213.414062 205.53125 L 213.421875 195.574219 Z M 209.742188 195.675781 " fill-opacity="1" fill-rule="nonzero"/><path fill="#ae3723" d="M 184.484375 214.640625 L 182.855469 214.636719 L 181.195312 214.640625 L 185.519531 252.597656 L 185.675781 253.507812 L 186.195312 259.636719 L 233.96875 259.8125 L 235.769531 252.765625 L 239.527344 237.738281 L 245.003906 214.765625 L 239.175781 214.683594 L 237.484375 214.667969 L 231.050781 214.75 L 229.417969 214.742188 L 222.875 214.699219 L 221.304688 214.695312 L 214.929688 214.722656 L 213.316406 214.714844 L 207.203125 214.710938 L 205.601562 214.722656 L 199.617188 214.71875 L 198.113281 214.722656 L 192.070312 214.695312 L 190.503906 214.683594 C 188.542969 214.714844 186.425781 214.875 184.484375 214.640625 Z M 184.484375 214.640625 " fill-opacity="1" fill-rule="nonzero"/><path fill="#19242d" d="M 255.121094 120.4375 C 255.125 116.464844 255.449219 112.082031 254.921875 108.160156 L 254.867188 107.796875 C 254.074219 101.980469 250.882812 97.363281 246.300781 93.800781 C 243.519531 91.640625 240.140625 90.488281 236.699219 89.945312 C 233.71875 89.476562 230.472656 89.71875 227.457031 89.710938 L 211.316406 89.6875 L 199.5625 89.65625 C 197.070312 89.640625 194.460938 89.460938 191.988281 89.757812 C 194.144531 90.824219 196.320312 91.851562 198.296875 93.230469 C 202.925781 96.464844 206.621094 101.550781 208.417969 106.886719 C 209.414062 109.855469 209.757812 112.902344 209.820312 116.019531 L 209.742188 195.675781 L 213.421875 195.574219 L 213.414062 205.53125 C 213.402344 206.359375 213.445312 207.230469 213.320312 208.050781 L 213.316406 214.714844 L 214.929688 214.722656 L 221.304688 214.695312 L 222.878906 214.699219 L 229.417969 214.742188 L 231.050781 214.75 L 237.484375 214.667969 L 239.175781 214.683594 L 245.003906 214.765625 L 245.925781 208.640625 L 246.769531 205.339844 L 247.664062 200.996094 L 248.335938 197.964844 L 248.933594 195.949219 L 249.558594 192.945312 L 249.753906 191.519531 L 250.925781 185.386719 C 251.1875 184.386719 251.289062 183.308594 251.449219 182.285156 L 253.136719 173.253906 L 255.078125 161.648438 L 255.1875 143.792969 Z M 255.121094 120.4375 " fill-opacity="1" fill-rule="nonzero"/><path fill="#258c6d" d="M 229.679688 146.554688 C 229.300781 147.128906 228.964844 147.660156 228.824219 148.339844 C 228.382812 150.460938 228.609375 152.890625 228.621094 155.054688 L 228.71875 166.246094 L 229.625 166.480469 L 229.792969 164.910156 L 229.796875 153.316406 C 229.796875 151.082031 229.910156 148.777344 229.679688 146.554688 Z M 229.679688 146.554688 " fill-opacity="1" fill-rule="nonzero"/><path fill="#137154" d="M 228.71875 166.246094 L 228.855469 195.40625 L 229.410156 195.535156 L 229.625 166.480469 Z M 228.71875 166.246094 " fill-opacity="1" fill-rule="nonzero"/><path fill="#258c6d" d="M 236.195312 143.835938 C 234.523438 143.867188 232.378906 143.785156 231.019531 144.929688 C 230.46875 145.453125 230.042969 145.882812 229.679688 146.554688 C 229.910156 148.777344 229.796875 151.082031 229.796875 153.316406 L 229.792969 164.910156 L 229.875 166.605469 C 230.277344 166.964844 230.738281 167.074219 231.242188 167.257812 L 231.269531 167.40625 L 236.007812 169.359375 C 235.988281 168.722656 235.84375 168.035156 236.175781 167.488281 Z M 236.195312 143.835938 " fill-opacity="1" fill-rule="nonzero"/><path fill="#b3d2c4" d="M 231.242188 167.257812 L 231.289062 152.449219 L 231.285156 147.605469 C 231.285156 146.71875 231.425781 145.738281 231.019531 144.929688 C 230.46875 145.453125 230.042969 145.882812 229.679688 146.554688 C 229.914062 148.777344 229.796875 151.082031 229.796875 153.316406 L 229.792969 164.910156 L 229.875 166.605469 C 230.277344 166.964844 230.738281 167.074219 231.242188 167.257812 Z M 231.242188 167.257812 " fill-opacity="1" fill-rule="nonzero"/><path fill="#258c6d" d="M 242.855469 143.824219 L 237.832031 143.820312 L 236.195312 143.835938 L 236.175781 167.484375 L 236.214844 169.464844 L 237.6875 169.867188 L 237.714844 170.042969 C 239.339844 170.085938 241.242188 170.890625 242.835938 171.296875 L 242.878906 171.203125 Z M 242.855469 143.824219 " fill-opacity="1" fill-rule="nonzero"/><path fill="#b3d2c4" d="M 237.832031 143.820312 L 236.195312 143.835938 L 236.175781 167.484375 L 236.214844 169.464844 L 237.6875 169.867188 Z M 237.832031 143.820312 " fill-opacity="1" fill-rule="nonzero"/><path fill="#258c6d" d="M 255.1875 143.792969 L 251.332031 143.84375 L 251.140625 143.847656 L 249.648438 143.820312 L 244.5625 143.785156 L 242.855469 143.824219 L 242.878906 171.203125 C 243.414062 171.347656 243.949219 171.515625 244.5 171.601562 L 244.535156 171.75 C 246.175781 171.96875 248.132812 172.226562 249.699219 172.742188 L 249.753906 191.519531 L 250.925781 185.386719 C 251.1875 184.386719 251.289062 183.304688 251.449219 182.285156 L 253.136719 173.253906 L 255.078125 161.648438 Z M 255.1875 143.792969 " fill-opacity="1" fill-rule="nonzero"/><path fill="#b3d2c4" d="M 244.5625 143.785156 L 242.855469 143.824219 L 242.878906 171.203125 C 243.414062 171.347656 243.949219 171.515625 244.5 171.601562 Z M 244.5625 143.785156 " fill-opacity="1" fill-rule="nonzero"/><path fill="#258c6d" d="M 255.1875 143.792969 L 251.332031 143.84375 L 251.140625 143.847656 L 249.648438 143.820312 L 249.699219 172.742188 L 249.753906 191.519531 L 250.925781 185.386719 C 251.1875 184.386719 251.289062 183.308594 251.449219 182.285156 L 253.136719 173.253906 L 255.078125 161.648438 Z M 255.1875 143.792969 " fill-opacity="1" fill-rule="nonzero"/><path fill="#74afa3" d="M 251.332031 143.84375 L 251.140625 143.847656 L 251.097656 166.113281 L 251.09375 171.050781 C 251.09375 171.597656 251.234375 172.394531 250.917969 172.84375 L 249.699219 172.742188 L 249.753906 191.519531 L 250.925781 185.386719 C 251.1875 184.386719 251.289062 183.304688 251.449219 182.285156 L 253.136719 173.253906 C 252.542969 173.101562 251.945312 173.039062 251.339844 172.953125 Z M 251.332031 143.84375 " fill-opacity="1" fill-rule="nonzero"/><path fill="#137154" d="M 253.136719 173.253906 C 252.542969 173.101562 251.945312 173.039062 251.339844 172.953125 C 251.339844 175.914062 251.566406 179.078125 251.261719 182.011719 L 251.449219 182.285156 Z M 253.136719 173.253906 " fill-opacity="1" fill-rule="nonzero"/><path fill="#b3d2c4" d="M 251.140625 143.847656 L 249.648438 143.820312 L 249.699219 172.742188 L 250.917969 172.847656 C 251.234375 172.394531 251.09375 171.597656 251.09375 171.050781 L 251.097656 166.113281 Z M 251.140625 143.847656 " fill-opacity="1" fill-rule="nonzero"/><path fill="#74afa3" d="M 229.792969 164.910156 L 229.625 166.480469 L 229.410156 195.535156 L 228.859375 195.40625 C 226.910156 195.738281 224.765625 195.546875 222.789062 195.53125 L 221.339844 195.542969 L 214.917969 195.539062 L 213.421875 195.574219 L 213.414062 205.53125 C 213.402344 206.359375 213.445312 207.230469 213.320312 208.050781 L 213.316406 214.714844 L 214.929688 214.722656 L 221.304688 214.695312 L 222.875 214.699219 L 229.417969 214.742188 L 231.050781 214.75 L 231.058594 205.488281 L 231.058594 195.554688 L 231.269531 167.40625 L 231.242188 167.257812 C 230.738281 167.074219 230.277344 166.964844 229.875 166.605469 Z M 229.792969 164.910156 " fill-opacity="1" fill-rule="nonzero"/><path fill="#b3d2c4" d="M 229.441406 205.503906 L 229.71875 205.59375 C 230.183594 205.691406 230.488281 205.671875 230.851562 205.359375 L 230.875 198.875 C 230.886719 197.863281 231.042969 196.628906 230.808594 195.644531 C 230.285156 195.554688 229.957031 195.613281 229.449219 195.722656 Z M 229.441406 205.503906 " fill-opacity="1" fill-rule="nonzero"/><path fill="#137154" d="M 229.414062 205.65625 L 222.933594 205.871094 L 222.878906 214.699219 L 229.417969 214.742188 Z M 229.414062 205.65625 " fill-opacity="1" fill-rule="nonzero"/><path fill="#258c6d" d="M 229.410156 195.535156 L 228.859375 195.40625 C 226.910156 195.738281 224.765625 195.546875 222.789062 195.53125 L 222.832031 195.777344 C 223.128906 196.949219 222.984375 198.332031 222.980469 199.539062 L 222.933594 205.871094 L 229.414062 205.65625 L 229.441406 205.503906 L 229.449219 195.71875 Z M 229.410156 195.535156 " fill-opacity="1" fill-rule="nonzero"/><path fill="#258c6d" d="M 221.339844 195.542969 L 214.917969 195.539062 L 213.421875 195.574219 L 213.414062 205.527344 C 213.402344 206.359375 213.445312 207.230469 213.320312 208.050781 L 213.316406 214.714844 L 214.929688 214.722656 L 221.304688 214.695312 L 222.875 214.699219 L 222.933594 205.871094 L 222.980469 199.539062 C 222.984375 198.332031 223.128906 196.949219 222.832031 195.777344 L 222.789062 195.53125 Z M 221.339844 195.542969 " fill-opacity="1" fill-rule="nonzero"/><path fill="#b3d2c4" d="M 214.917969 195.539062 L 213.421875 195.574219 L 213.414062 205.527344 L 214.914062 205.519531 Z M 214.917969 195.539062 " fill-opacity="1" fill-rule="nonzero"/><path fill="#74afa3" d="M 222.789062 195.53125 L 221.339844 195.542969 L 221.359375 205.84375 L 221.3125 206.011719 L 221.304688 214.695312 L 222.875 214.699219 L 222.933594 205.871094 L 222.980469 199.539062 C 222.984375 198.332031 223.128906 196.949219 222.832031 195.777344 Z M 222.789062 195.53125 " fill-opacity="1" fill-rule="nonzero"/><path fill="#b3d2c4" d="M 222.789062 195.53125 L 221.339844 195.542969 L 221.359375 205.84375 L 222.476562 205.859375 C 222.945312 205.34375 222.746094 203.75 222.746094 203 L 222.832031 195.777344 Z M 222.789062 195.53125 " fill-opacity="1" fill-rule="nonzero"/><path fill="#137154" d="M 214.914062 205.519531 L 213.414062 205.53125 C 213.402344 206.359375 213.445312 207.230469 213.320312 208.050781 L 213.316406 214.714844 L 214.929688 214.722656 L 221.304688 214.695312 L 221.3125 206.011719 C 219.636719 205.390625 216.773438 205.691406 214.949219 205.660156 Z M 214.914062 205.519531 " fill-opacity="1" fill-rule="nonzero"/><path fill="#74afa3" d="M 214.914062 205.519531 L 213.414062 205.53125 C 213.402344 206.359375 213.445312 207.230469 213.320312 208.050781 L 213.316406 214.714844 L 214.929688 214.722656 L 214.949219 205.660156 Z M 214.914062 205.519531 " fill-opacity="1" fill-rule="nonzero"/><path fill="#74afa3" d="M 236.175781 167.488281 C 235.84375 168.035156 235.988281 168.722656 236.007812 169.359375 L 231.269531 167.40625 L 231.058594 195.554688 L 231.058594 205.488281 L 231.050781 214.75 L 237.484375 214.667969 L 239.175781 214.683594 L 245.003906 214.765625 L 245.925781 208.640625 L 246.769531 205.339844 L 247.664062 200.996094 L 248.335938 197.964844 L 248.933594 195.949219 L 249.558594 192.945312 L 249.753906 191.519531 L 249.699219 172.742188 C 248.132812 172.226562 246.175781 171.972656 244.535156 171.75 L 244.5 171.601562 C 243.949219 171.515625 243.414062 171.347656 242.878906 171.203125 L 242.835938 171.296875 C 241.242188 170.890625 239.339844 170.085938 237.714844 170.046875 L 237.6875 169.867188 L 236.214844 169.464844 Z M 236.175781 167.488281 " fill-opacity="1" fill-rule="nonzero"/><path fill="#b3d2c4" d="M 237.859375 195.550781 C 237.332031 198.363281 237.867188 201.464844 237.605469 204.328125 C 238.179688 204.492188 238.578125 204.355469 239.148438 204.242188 L 239.199219 195.558594 Z M 237.859375 195.550781 " fill-opacity="1" fill-rule="nonzero"/><path fill="#137154" d="M 237.480469 204.644531 C 235.429688 205.097656 233.164062 205.453125 231.058594 205.488281 L 231.050781 214.75 L 237.484375 214.667969 Z M 237.480469 204.644531 " fill-opacity="1" fill-rule="nonzero"/><path fill="#258c6d" d="M 236.175781 167.488281 C 235.84375 168.035156 235.988281 168.722656 236.007812 169.359375 L 235.996094 195.566406 L 231.058594 195.554688 L 231.058594 205.488281 C 233.164062 205.453125 235.429688 205.097656 237.480469 204.644531 L 237.5625 195.554688 C 237.027344 195.554688 236.695312 195.609375 236.210938 195.335938 L 236.214844 169.464844 L 236.175781 167.484375 Z M 236.175781 167.488281 " fill-opacity="1" fill-rule="nonzero"/><path fill="#137154" d="M 242.835938 171.296875 C 241.242188 170.890625 239.339844 170.085938 237.714844 170.046875 L 237.699219 195.4375 L 237.859375 195.550781 L 239.199219 195.558594 L 242.832031 195.542969 L 242.886719 187.832031 Z M 242.835938 171.296875 " fill-opacity="1" fill-rule="nonzero"/><path fill="#137154" d="M 231.269531 167.40625 L 231.058594 195.554688 L 235.996094 195.566406 L 236.007812 169.359375 Z M 231.269531 167.40625 " fill-opacity="1" fill-rule="nonzero"/><path fill="#137154" d="M 244.511719 195.542969 L 243.164062 195.496094 C 242.871094 194.742188 243 193.773438 242.996094 192.964844 L 242.886719 187.832031 L 242.832031 195.542969 L 239.199219 195.558594 L 239.148438 204.242188 L 239.175781 214.683594 L 245.003906 214.765625 L 245.925781 208.636719 L 246.769531 205.339844 L 247.664062 200.996094 L 248.332031 197.964844 L 248.933594 195.949219 C 248.21875 196.03125 248.054688 196.109375 247.402344 195.765625 C 246.699219 195.28125 245.347656 195.515625 244.511719 195.542969 Z M 244.511719 195.542969 " fill-opacity="1" fill-rule="nonzero"/><path fill="#258c6d" d="M 244.511719 195.542969 L 243.164062 195.496094 C 242.871094 194.742188 243 193.773438 242.996094 192.964844 L 242.886719 187.832031 L 242.832031 195.542969 L 239.199219 195.558594 L 239.148438 204.242188 L 242.644531 203.019531 C 243.695312 202.644531 244.597656 202.132812 245.558594 201.578125 C 245.570312 203.777344 245.320312 206.53125 245.925781 208.636719 L 246.769531 205.339844 L 247.664062 200.996094 L 248.332031 197.964844 L 248.933594 195.949219 C 248.21875 196.03125 248.054688 196.109375 247.402344 195.765625 C 246.699219 195.28125 245.347656 195.515625 244.511719 195.542969 Z M 244.511719 195.542969 " fill-opacity="1" fill-rule="nonzero"/><path fill="#b3d2c4" d="M 247.402344 195.765625 L 245.617188 195.710938 L 245.558594 201.578125 C 245.570312 203.777344 245.320312 206.53125 245.925781 208.636719 L 246.769531 205.339844 L 247.664062 200.996094 L 248.335938 197.964844 L 248.933594 195.949219 C 248.21875 196.03125 248.054688 196.109375 247.402344 195.765625 Z M 247.402344 195.765625 " fill-opacity="1" fill-rule="nonzero"/><path fill="#258c6d" d="M 247.402344 195.765625 L 247.085938 200.144531 L 247.664062 200.996094 L 248.335938 197.964844 L 248.933594 195.949219 C 248.21875 196.03125 248.054688 196.109375 247.402344 195.765625 Z M 247.402344 195.765625 " fill-opacity="1" fill-rule="nonzero"/><path fill="#74afa3" d="M 245.617188 195.710938 L 245.558594 201.578125 C 245.570312 203.777344 245.320312 206.53125 245.925781 208.640625 L 246.769531 205.339844 L 247.664062 200.996094 L 247.085938 200.144531 L 246.957031 200.503906 C 246.734375 200.960938 246.402344 201.121094 245.953125 201.296875 C 245.40625 200.550781 245.792969 197.089844 245.648438 195.917969 Z M 245.617188 195.710938 " fill-opacity="1" fill-rule="nonzero"/><path fill="#137154" d="M 244.5 171.601562 C 243.949219 171.515625 243.414062 171.347656 242.878906 171.203125 L 242.835938 171.296875 L 242.886719 187.832031 L 242.996094 192.964844 C 243 193.773438 242.871094 194.742188 243.164062 195.5 L 244.511719 195.542969 C 245.347656 195.515625 246.699219 195.28125 247.402344 195.765625 C 248.054688 196.109375 248.21875 196.03125 248.933594 195.949219 L 249.558594 192.945312 L 249.753906 191.519531 L 249.699219 172.742188 C 248.132812 172.226562 246.175781 171.96875 244.535156 171.75 Z M 244.5 171.601562 " fill-opacity="1" fill-rule="nonzero"/><path fill="#74afa3" d="M 244.5 171.601562 C 243.949219 171.515625 243.414062 171.347656 242.878906 171.203125 L 242.835938 171.296875 L 242.886719 187.832031 L 242.996094 192.964844 C 243 193.773438 242.871094 194.742188 243.164062 195.5 L 244.511719 195.542969 L 244.535156 171.75 Z M 244.5 171.601562 " fill-opacity="1" fill-rule="nonzero"/></svg>