<svg xmlns="http://www.w3.org/2000/svg" xmlns:xlink="http://www.w3.org/1999/xlink" width="500" zoomAndPan="magnify" viewBox="0 0 375 374.999991" height="500" preserveAspectRatio="xMidYMid meet" version="1.0"><defs><clipPath id="1e7263c4ef"><path d="M 150 221 L 206 221 L 206 283.367188 L 150 283.367188 Z M 150 221 " clip-rule="nonzero"/></clipPath><clipPath id="138fcc6113"><path d="M 18 91.367188 L 351 91.367188 L 351 250 L 18 250 Z M 18 91.367188 " clip-rule="nonzero"/></clipPath></defs><path fill="#020202" d="M 235.957031 246.492188 C 235.734375 247.753906 235.511719 249.03125 235.292969 250.296875 C 233.753906 259.230469 225.996094 265.757812 216.921875 265.757812 L 201.300781 265.757812 L 171.65625 235.964844 C 172.96875 232.484375 174.152344 229.179688 175.296875 226.679688 C 178.546875 219.628906 194.804688 220.050781 202.570312 222.878906 C 212.570312 226.515625 204.15625 242.753906 212.160156 245.839844 C 217.800781 248.015625 228.65625 246.683594 234.699219 246.527344 C 235.121094 246.515625 235.539062 246.507812 235.945312 246.492188 Z M 235.957031 246.492188 " fill-opacity="1" fill-rule="nonzero"/><g clip-path="url(#1e7263c4ef)"><path fill="#020202" d="M 205.546875 252.449219 C 205.546875 269.507812 193.273438 283.332031 178.140625 283.332031 C 163.980469 283.332031 152.328125 271.238281 150.882812 255.714844 C 154.507812 256.332031 157.960938 256.246094 161.375 253.824219 C 165.875 250.636719 169.035156 242.949219 171.664062 235.964844 C 172.976562 232.484375 174.160156 229.179688 175.304688 226.679688 C 176.398438 224.308594 178.964844 222.78125 182.1875 221.910156 C 195.40625 224.113281 205.554688 236.949219 205.554688 252.453125 Z M 205.546875 252.449219 " fill-opacity="1" fill-rule="nonzero"/></g><path fill="#a2d4d3" d="M 196.507812 252.296875 C 196.507812 252.925781 196.476562 253.542969 196.417969 254.144531 C 195.746094 261.082031 191.289062 266.4375 185.90625 266.4375 C 180.050781 266.4375 175.300781 260.105469 175.300781 252.296875 C 175.300781 244.488281 180.050781 238.15625 185.90625 238.15625 C 186.367188 238.15625 186.824219 238.199219 187.269531 238.277344 C 192.484375 239.167969 196.511719 245.105469 196.511719 252.296875 Z M 196.507812 252.296875 " fill-opacity="1" fill-rule="nonzero"/><path fill="#a2d4d3" d="M 185.90625 273.242188 C 181.535156 273.242188 177.339844 270.792969 174.382812 266.53125 C 174.300781 266.410156 174.332031 266.25 174.445312 266.167969 C 174.566406 266.085938 174.726562 266.117188 174.808594 266.230469 C 177.664062 270.355469 181.710938 272.722656 185.90625 272.722656 C 193.484375 272.722656 199.933594 265.152344 200.910156 255.109375 C 200.996094 254.242188 201.042969 253.347656 201.042969 252.449219 C 201.042969 245.210938 198.128906 238.472656 193.429688 234.859375 C 193.3125 234.773438 193.292969 234.609375 193.382812 234.496094 C 193.46875 234.382812 193.632812 234.363281 193.742188 234.449219 C 198.566406 238.15625 201.5625 245.054688 201.5625 252.449219 C 201.5625 253.367188 201.515625 254.277344 201.425781 255.160156 C 200.425781 265.464844 193.75 273.238281 185.90625 273.238281 Z M 185.90625 273.242188 " fill-opacity="1" fill-rule="nonzero"/><path fill="#a2d4d3" d="M 186.652344 270.199219 C 183.117188 270.199219 179.71875 268.132812 177.328125 264.53125 C 177.246094 264.410156 177.28125 264.253906 177.398438 264.171875 C 177.519531 264.09375 177.675781 264.125 177.757812 264.246094 C 180.046875 267.699219 183.292969 269.679688 186.648438 269.679688 C 192.726562 269.679688 197.898438 263.328125 198.679688 254.902344 C 198.753906 254.175781 198.789062 253.417969 198.789062 252.667969 C 198.789062 246.585938 196.445312 240.933594 192.671875 237.898438 C 192.5625 237.808594 192.542969 237.644531 192.632812 237.535156 C 192.726562 237.421875 192.886719 237.402344 193 237.496094 C 196.890625 240.621094 199.308594 246.433594 199.308594 252.664062 C 199.308594 253.433594 199.273438 254.203125 199.199219 254.949219 C 198.390625 263.640625 192.996094 270.199219 186.648438 270.199219 Z M 186.652344 270.199219 " fill-opacity="1" fill-rule="nonzero"/><path fill="#a2d4d3" d="M 170.519531 251.917969 C 170.519531 251.917969 170.515625 251.917969 170.511719 251.917969 C 170.367188 251.914062 170.257812 251.792969 170.261719 251.648438 C 170.453125 244.914062 173.113281 238.695312 177.375 235.011719 C 177.480469 234.914062 177.644531 234.925781 177.742188 235.039062 C 177.835938 235.144531 177.824219 235.308594 177.714844 235.402344 C 173.558594 238.992188 170.964844 245.074219 170.777344 251.667969 C 170.777344 251.804688 170.660156 251.917969 170.519531 251.917969 Z M 170.519531 251.917969 " fill-opacity="1" fill-rule="nonzero"/><path fill="#fffcfc" d="M 196.507812 252.296875 C 196.507812 252.925781 196.476562 253.542969 196.417969 254.144531 C 195.355469 254.898438 194.136719 255.328125 192.84375 255.328125 C 188.644531 255.328125 185.238281 250.785156 185.238281 245.179688 C 185.238281 242.515625 186.003906 240.089844 187.269531 238.277344 C 192.484375 239.167969 196.511719 245.105469 196.511719 252.296875 Z M 196.507812 252.296875 " fill-opacity="1" fill-rule="nonzero"/><path fill="#020202" d="M 92.5 251.261719 L 92.5 254.914062 C 92.5 267.390625 82.363281 277.515625 69.871094 277.515625 L 64.941406 277.515625 C 52.449219 277.515625 42.3125 267.390625 42.3125 254.914062 L 42.3125 248.992188 C 43.277344 249.054688 44.242188 249.097656 45.191406 249.144531 C 60.960938 249.847656 76.726562 250.554688 92.496094 251.261719 Z M 92.5 251.261719 " fill-opacity="1" fill-rule="nonzero"/><path fill="#020202" d="M 330.761719 245.296875 C 330.761719 258.597656 320.964844 269.375 308.878906 269.375 C 296.792969 269.375 287 258.597656 287 245.296875 C 287 244.421875 287.039062 243.554688 287.128906 242.703125 C 287.972656 242.433594 288.828125 242.136719 289.695312 241.796875 C 297.199219 238.867188 299.289062 231.355469 305.09375 222.320312 C 308.105469 222.203125 311.453125 222.152344 314.910156 222.132812 C 324.0625 225.019531 330.761719 234.296875 330.761719 245.292969 Z M 330.761719 245.296875 " fill-opacity="1" fill-rule="nonzero"/><path fill="#020202" d="M 272.8125 244.097656 L 275.824219 246.699219 C 277.605469 248.238281 279.90625 249.039062 282.257812 248.949219 L 290.882812 248.613281 L 291.675781 241.882812 L 271.9375 241.882812 L 272.808594 244.097656 Z M 272.8125 244.097656 " fill-opacity="1" fill-rule="nonzero"/><path fill="#020202" d="M 309.949219 221.453125 L 332.992188 220.828125 C 335.703125 220.75 337.941406 222.929688 337.941406 225.640625 L 337.941406 236.585938 L 347.386719 236.585938 L 347.386719 239.980469 L 341.695312 239.980469 C 338.816406 239.980469 335.949219 239.507812 333.222656 238.585938 C 331.703125 238.070312 330.277344 237.304688 329.011719 236.316406 L 309.945312 221.453125 Z M 309.949219 221.453125 " fill-opacity="1" fill-rule="nonzero"/><path fill="#a2d4d3" d="M 314.652344 254.242188 C 309.828125 254.242188 305.90625 249.039062 305.90625 242.648438 C 305.90625 236.257812 309.828125 231.054688 314.652344 231.054688 C 315.027344 231.054688 315.410156 231.089844 315.785156 231.15625 C 320.128906 231.898438 323.398438 236.839844 323.398438 242.648438 C 323.398438 243.15625 323.375 243.667969 323.320312 244.160156 C 322.765625 249.90625 319.035156 254.242188 314.652344 254.242188 Z M 314.652344 231.46875 C 310.0625 231.46875 306.320312 236.484375 306.320312 242.644531 C 306.320312 248.804688 310.058594 253.820312 314.652344 253.820312 C 318.820312 253.820312 322.371094 249.648438 322.910156 244.109375 C 322.957031 243.632812 322.984375 243.136719 322.984375 242.640625 C 322.984375 237.03125 319.859375 232.265625 315.71875 231.558594 C 315.363281 231.492188 315.007812 231.464844 314.65625 231.464844 Z M 314.652344 231.46875 " fill-opacity="1" fill-rule="nonzero"/><path fill="#a2d4d3" d="M 314.652344 259.507812 C 311.136719 259.507812 307.753906 257.535156 305.375 254.101562 C 305.304688 254.007812 305.328125 253.875 305.425781 253.8125 C 305.519531 253.746094 305.652344 253.769531 305.714844 253.863281 C 308.015625 257.183594 311.273438 259.089844 314.652344 259.089844 C 320.75 259.089844 325.949219 252.992188 326.730469 244.910156 C 326.804688 244.210938 326.839844 243.492188 326.839844 242.769531 C 326.839844 236.941406 324.492188 231.511719 320.707031 228.609375 C 320.617188 228.535156 320.601562 228.40625 320.667969 228.3125 C 320.738281 228.222656 320.871094 228.207031 320.960938 228.273438 C 324.847656 231.257812 327.257812 236.8125 327.257812 242.769531 C 327.257812 243.503906 327.222656 244.238281 327.144531 244.949219 C 326.339844 253.246094 320.964844 259.507812 314.648438 259.507812 Z M 314.652344 259.507812 " fill-opacity="1" fill-rule="nonzero"/><path fill="#a2d4d3" d="M 315.253906 257.058594 C 312.40625 257.058594 309.671875 255.394531 307.746094 252.496094 C 307.679688 252.402344 307.710938 252.269531 307.804688 252.207031 C 307.898438 252.144531 308.03125 252.171875 308.09375 252.265625 C 309.941406 255.046875 312.550781 256.640625 315.253906 256.640625 C 320.144531 256.640625 324.308594 251.527344 324.941406 244.742188 C 325 244.15625 325.027344 243.550781 325.027344 242.941406 C 325.027344 238.046875 323.144531 233.492188 320.101562 231.050781 C 320.011719 230.980469 320 230.847656 320.070312 230.757812 C 320.144531 230.667969 320.273438 230.65625 320.367188 230.726562 C 323.5 233.242188 325.445312 237.921875 325.445312 242.9375 C 325.445312 243.558594 325.414062 244.179688 325.359375 244.777344 C 324.707031 251.777344 320.367188 257.054688 315.257812 257.054688 Z M 315.253906 257.058594 " fill-opacity="1" fill-rule="nonzero"/><path fill="#a2d4d3" d="M 302.261719 242.339844 C 302.261719 242.339844 302.257812 242.339844 302.253906 242.339844 C 302.140625 242.339844 302.046875 242.238281 302.050781 242.125 C 302.207031 236.699219 304.347656 231.691406 307.78125 228.726562 C 307.867188 228.652344 308 228.660156 308.074219 228.746094 C 308.152344 228.835938 308.144531 228.964844 308.054688 229.042969 C 304.710938 231.929688 302.621094 236.828125 302.472656 242.136719 C 302.472656 242.246094 302.378906 242.339844 302.265625 242.339844 Z M 302.261719 242.339844 " fill-opacity="1" fill-rule="nonzero"/><path fill="#fffcfc" d="M 323.191406 242.644531 C 323.191406 243.148438 323.167969 243.644531 323.113281 244.136719 C 322.257812 244.738281 321.277344 245.085938 320.238281 245.085938 C 316.855469 245.085938 314.113281 241.429688 314.113281 236.914062 C 314.113281 234.769531 314.730469 232.8125 315.75 231.355469 C 319.949219 232.074219 323.191406 236.851562 323.191406 242.644531 Z M 323.191406 242.644531 " fill-opacity="1" fill-rule="nonzero"/><g clip-path="url(#138fcc6113)"><path fill="#e9ffff" d="M 350.652344 165.351562 L 157.464844 164.992188 C 131.382812 165.390625 109.191406 173.894531 93.175781 189.226562 C 87.570312 194.59375 82.386719 200.542969 77.972656 206.953125 C 70.726562 217.46875 65.53125 229.234375 63.886719 241.71875 C 63.660156 243.429688 63.503906 245.152344 63.414062 246.890625 L 63.195312 249.949219 C 62.257812 249.902344 61.320312 249.863281 60.390625 249.824219 C 57.589844 249.695312 54.785156 249.570312 51.980469 249.449219 C 49.714844 249.34375 47.453125 249.246094 45.191406 249.144531 C 44.238281 249.101562 43.277344 249.054688 42.3125 248.992188 C 35.988281 248.59375 29.492188 247.605469 24.90625 243.390625 C 18.578125 237.589844 18.183594 227.917969 18.417969 219.34375 C 18.898438 202.273438 20.140625 185.226562 22.128906 168.269531 C 22.167969 167.898438 22.214844 167.539062 22.261719 167.171875 C 24.410156 149.210938 32.597656 123.515625 44.503906 109.886719 C 53.285156 99.832031 61.152344 100.535156 74.125 97.324219 C 74.125 97.324219 87.625 95.160156 108.710938 93.261719 C 129.796875 91.355469 158.179688 91.988281 158.179688 91.988281 C 209.390625 93.019531 251.5625 97.378906 298.648438 103.15625 C 306.386719 104.105469 319.457031 106.746094 326.3125 110.441406 C 334.074219 114.613281 338.402344 119.628906 341.386719 126.355469 C 341.695312 127.050781 341.992188 127.769531 342.273438 128.496094 C 342.394531 128.804688 342.511719 129.125 342.628906 129.441406 C 342.882812 130.136719 343.125 130.851562 343.359375 131.578125 C 343.464844 131.894531 343.5625 132.210938 343.660156 132.53125 C 343.871094 133.226562 344.082031 133.9375 344.28125 134.667969 C 344.371094 134.976562 344.457031 135.300781 344.546875 135.621094 C 344.664062 136.066406 344.78125 136.515625 344.898438 136.972656 C 344.96875 137.230469 345.035156 137.496094 345.097656 137.753906 C 345.183594 138.070312 345.265625 138.390625 345.339844 138.707031 C 345.515625 139.421875 345.695312 140.132812 345.867188 140.84375 C 345.945312 141.164062 346.019531 141.480469 346.09375 141.796875 C 346.265625 142.507812 346.429688 143.214844 346.589844 143.929688 C 346.667969 144.25 346.734375 144.5625 346.808594 144.882812 C 346.96875 145.597656 347.132812 146.308594 347.285156 147.023438 C 347.355469 147.339844 347.421875 147.65625 347.492188 147.972656 C 347.644531 148.683594 347.796875 149.394531 347.9375 150.109375 C 348.007812 150.425781 348.074219 150.746094 348.136719 151.0625 C 348.277344 151.777344 348.425781 152.480469 348.558594 153.1875 C 348.628906 153.527344 348.695312 153.867188 348.757812 154.207031 C 348.878906 154.8125 348.992188 155.421875 349.101562 156.023438 C 349.679688 159.128906 350.195312 162.234375 350.660156 165.347656 Z M 350.652344 165.351562 " fill-opacity="1" fill-rule="nonzero"/></g><path fill="#e5f4f4" d="M 128.75 183.753906 C 128.75 184.230469 128.703125 184.703125 128.609375 185.167969 C 128.515625 185.636719 128.378906 186.089844 128.199219 186.527344 C 128.015625 186.96875 127.792969 187.386719 127.527344 187.78125 C 127.261719 188.175781 126.960938 188.542969 126.625 188.878906 C 126.289062 189.214844 125.921875 189.515625 125.527344 189.78125 C 125.128906 190.042969 124.710938 190.265625 124.273438 190.449219 C 123.832031 190.632812 123.378906 190.769531 122.910156 190.863281 C 122.445312 190.953125 121.972656 191 121.496094 191 C 121.019531 191 120.546875 190.953125 120.082031 190.863281 C 119.613281 190.769531 119.160156 190.632812 118.71875 190.449219 C 118.28125 190.265625 117.863281 190.042969 117.464844 189.78125 C 117.070312 189.515625 116.703125 189.214844 116.367188 188.878906 C 116.03125 188.542969 115.730469 188.175781 115.464844 187.78125 C 115.199219 187.386719 114.976562 186.96875 114.796875 186.527344 C 114.613281 186.089844 114.476562 185.636719 114.382812 185.167969 C 114.289062 184.703125 114.242188 184.230469 114.242188 183.753906 C 114.242188 183.28125 114.289062 182.808594 114.382812 182.34375 C 114.476562 181.875 114.613281 181.421875 114.796875 180.984375 C 114.976562 180.542969 115.199219 180.125 115.464844 179.730469 C 115.730469 179.335938 116.03125 178.96875 116.367188 178.632812 C 116.703125 178.296875 117.070312 177.996094 117.464844 177.730469 C 117.863281 177.46875 118.28125 177.246094 118.71875 177.0625 C 119.160156 176.878906 119.613281 176.742188 120.082031 176.648438 C 120.546875 176.558594 121.019531 176.511719 121.496094 176.511719 C 121.972656 176.511719 122.445312 176.558594 122.910156 176.648438 C 123.378906 176.742188 123.832031 176.878906 124.273438 177.0625 C 124.710938 177.246094 125.128906 177.46875 125.527344 177.730469 C 125.921875 177.996094 126.289062 178.296875 126.625 178.632812 C 126.960938 178.96875 127.261719 179.335938 127.527344 179.730469 C 127.792969 180.125 128.015625 180.542969 128.199219 180.984375 C 128.378906 181.421875 128.515625 181.875 128.609375 182.34375 C 128.703125 182.808594 128.75 183.28125 128.75 183.753906 Z M 128.75 183.753906 " fill-opacity="1" fill-rule="nonzero"/><path fill="#000000" d="M 121.496094 191.257812 C 117.355469 191.257812 113.984375 187.894531 113.984375 183.753906 C 113.984375 179.617188 117.355469 176.253906 121.496094 176.253906 C 125.636719 176.253906 129.007812 179.617188 129.007812 183.753906 C 129.007812 187.894531 125.636719 191.257812 121.496094 191.257812 Z M 121.496094 176.769531 C 117.640625 176.769531 114.5 179.90625 114.5 183.753906 C 114.5 187.605469 117.640625 190.742188 121.496094 190.742188 C 125.351562 190.742188 128.492188 187.605469 128.492188 183.753906 C 128.492188 179.90625 125.351562 176.769531 121.496094 176.769531 Z M 121.496094 176.769531 " fill-opacity="1" fill-rule="nonzero"/><path fill="#92c3c5" d="M 126.976562 183.753906 C 126.976562 184.113281 126.941406 184.472656 126.871094 184.824219 C 126.800781 185.175781 126.695312 185.519531 126.558594 185.851562 C 126.421875 186.183594 126.25 186.496094 126.050781 186.796875 C 125.851562 187.09375 125.625 187.371094 125.371094 187.625 C 125.117188 187.878906 124.839844 188.105469 124.539062 188.304688 C 124.242188 188.503906 123.925781 188.675781 123.59375 188.8125 C 123.261719 188.949219 122.917969 189.054688 122.566406 189.125 C 122.210938 189.191406 121.855469 189.226562 121.496094 189.226562 C 121.136719 189.226562 120.78125 189.191406 120.425781 189.125 C 120.074219 189.054688 119.730469 188.949219 119.398438 188.8125 C 119.066406 188.675781 118.75 188.503906 118.453125 188.304688 C 118.152344 188.105469 117.875 187.878906 117.621094 187.625 C 117.367188 187.371094 117.140625 187.09375 116.941406 186.796875 C 116.742188 186.496094 116.570312 186.183594 116.433594 185.851562 C 116.296875 185.519531 116.191406 185.175781 116.121094 184.824219 C 116.050781 184.472656 116.015625 184.113281 116.015625 183.753906 C 116.015625 183.394531 116.050781 183.039062 116.121094 182.6875 C 116.191406 182.335938 116.296875 181.992188 116.433594 181.660156 C 116.570312 181.328125 116.742188 181.015625 116.941406 180.714844 C 117.140625 180.417969 117.367188 180.140625 117.621094 179.886719 C 117.875 179.632812 118.152344 179.40625 118.453125 179.207031 C 118.75 179.007812 119.066406 178.835938 119.398438 178.699219 C 119.730469 178.5625 120.074219 178.457031 120.425781 178.386719 C 120.78125 178.320312 121.136719 178.285156 121.496094 178.285156 C 121.855469 178.285156 122.210938 178.320312 122.566406 178.386719 C 122.917969 178.457031 123.261719 178.5625 123.59375 178.699219 C 123.925781 178.835938 124.242188 179.007812 124.539062 179.207031 C 124.839844 179.40625 125.117188 179.632812 125.371094 179.886719 C 125.625 180.140625 125.851562 180.417969 126.050781 180.714844 C 126.25 181.015625 126.421875 181.328125 126.558594 181.660156 C 126.695312 181.992188 126.800781 182.335938 126.871094 182.6875 C 126.941406 183.039062 126.976562 183.394531 126.976562 183.753906 Z M 126.976562 183.753906 " fill-opacity="1" fill-rule="nonzero"/><path fill="#000000" d="M 121.496094 189.480469 C 118.335938 189.480469 115.765625 186.910156 115.765625 183.753906 C 115.765625 180.601562 118.335938 178.03125 121.496094 178.03125 C 124.65625 178.03125 127.226562 180.601562 127.226562 183.753906 C 127.226562 186.910156 124.65625 189.480469 121.496094 189.480469 Z M 121.496094 178.53125 C 118.613281 178.53125 116.265625 180.875 116.265625 183.753906 C 116.265625 186.636719 118.613281 188.980469 121.496094 188.980469 C 124.382812 188.980469 126.726562 186.636719 126.726562 183.753906 C 126.726562 180.875 124.382812 178.53125 121.496094 178.53125 Z M 121.496094 178.53125 " fill-opacity="1" fill-rule="nonzero"/><path fill="#fc8321" d="M 60.015625 248.996094 C 54.949219 248.769531 49.890625 248.546875 44.820312 248.316406 C 43.871094 248.277344 42.90625 248.230469 41.945312 248.164062 C 35.617188 247.765625 29.125 246.777344 24.535156 242.566406 C 18.210938 236.761719 17.8125 227.089844 18.046875 218.519531 C 18.527344 201.449219 19.769531 184.402344 21.757812 167.445312 C 32.960938 179.457031 41.113281 194.0625 47.289062 209.28125 C 52.515625 222.175781 56.382812 235.558594 60.011719 248.996094 Z M 60.015625 248.996094 " fill-opacity="1" fill-rule="nonzero"/><path fill="#e5f4f4" d="M 29.972656 184.421875 C 29.972656 184.84375 29.941406 185.257812 29.886719 185.667969 C 29.828125 186.078125 29.746094 186.480469 29.632812 186.867188 C 29.523438 187.253906 29.386719 187.621094 29.226562 187.96875 C 29.0625 188.316406 28.878906 188.640625 28.675781 188.9375 C 28.46875 189.234375 28.246094 189.496094 28.003906 189.730469 C 27.761719 189.964844 27.507812 190.160156 27.238281 190.320312 C 26.96875 190.480469 26.691406 190.601562 26.40625 190.683594 C 26.121094 190.765625 25.832031 190.804688 25.542969 190.804688 C 25.253906 190.804688 24.964844 190.765625 24.679688 190.683594 C 24.394531 190.601562 24.117188 190.480469 23.847656 190.320312 C 23.578125 190.160156 23.324219 189.964844 23.082031 189.730469 C 22.839844 189.496094 22.617188 189.234375 22.410156 188.9375 C 22.207031 188.640625 22.023438 188.316406 21.859375 187.96875 C 21.699219 187.621094 21.5625 187.253906 21.453125 186.867188 C 21.339844 186.480469 21.257812 186.078125 21.199219 185.667969 C 21.144531 185.257812 21.113281 184.84375 21.113281 184.421875 C 21.113281 184.003906 21.144531 183.589844 21.199219 183.179688 C 21.257812 182.765625 21.339844 182.367188 21.453125 181.980469 C 21.5625 181.59375 21.699219 181.226562 21.859375 180.878906 C 22.023438 180.527344 22.207031 180.207031 22.410156 179.910156 C 22.617188 179.613281 22.839844 179.347656 23.082031 179.117188 C 23.324219 178.882812 23.578125 178.6875 23.847656 178.527344 C 24.117188 178.367188 24.394531 178.246094 24.679688 178.164062 C 24.964844 178.082031 25.253906 178.039062 25.542969 178.039062 C 25.832031 178.039062 26.121094 178.082031 26.40625 178.164062 C 26.691406 178.246094 26.96875 178.367188 27.238281 178.527344 C 27.507812 178.6875 27.761719 178.882812 28.003906 179.117188 C 28.246094 179.347656 28.46875 179.613281 28.675781 179.910156 C 28.878906 180.207031 29.0625 180.527344 29.226562 180.878906 C 29.386719 181.226562 29.523438 181.59375 29.632812 181.980469 C 29.746094 182.367188 29.828125 182.765625 29.886719 183.179688 C 29.941406 183.589844 29.972656 184.003906 29.972656 184.421875 Z M 29.972656 184.421875 " fill-opacity="1" fill-rule="nonzero"/><path fill="#000000" d="M 25.542969 191.066406 C 22.957031 191.066406 20.855469 188.085938 20.855469 184.421875 C 20.855469 180.757812 22.960938 177.777344 25.542969 177.777344 C 28.125 177.777344 30.230469 180.757812 30.230469 184.421875 C 30.230469 188.085938 28.125 191.066406 25.542969 191.066406 Z M 25.542969 178.300781 C 23.242188 178.300781 21.375 181.046875 21.375 184.421875 C 21.375 187.800781 23.242188 190.546875 25.542969 190.546875 C 27.84375 190.546875 29.710938 187.800781 29.710938 184.421875 C 29.710938 181.046875 27.84375 178.300781 25.542969 178.300781 Z M 25.542969 178.300781 " fill-opacity="1" fill-rule="nonzero"/><path fill="#92c3c5" d="M 28.558594 184.421875 C 28.558594 185 28.480469 185.554688 28.328125 186.085938 C 28.175781 186.621094 27.957031 187.089844 27.675781 187.496094 C 27.394531 187.90625 27.066406 188.21875 26.695312 188.441406 C 26.328125 188.660156 25.941406 188.769531 25.542969 188.769531 C 25.144531 188.769531 24.757812 188.660156 24.390625 188.441406 C 24.019531 188.21875 23.691406 187.90625 23.410156 187.496094 C 23.128906 187.089844 22.910156 186.621094 22.757812 186.085938 C 22.601562 185.554688 22.527344 185 22.527344 184.421875 C 22.527344 183.847656 22.601562 183.292969 22.757812 182.757812 C 22.910156 182.226562 23.128906 181.757812 23.410156 181.347656 C 23.691406 180.941406 24.019531 180.628906 24.390625 180.40625 C 24.757812 180.1875 25.144531 180.074219 25.542969 180.074219 C 25.941406 180.074219 26.328125 180.1875 26.695312 180.40625 C 27.066406 180.628906 27.394531 180.941406 27.675781 181.347656 C 27.957031 181.757812 28.175781 182.226562 28.328125 182.757812 C 28.480469 183.292969 28.558594 183.847656 28.558594 184.421875 Z M 28.558594 184.421875 " fill-opacity="1" fill-rule="nonzero"/><path fill="#000000" d="M 25.542969 189.007812 C 23.75 189.007812 22.292969 186.953125 22.292969 184.425781 C 22.292969 181.898438 23.753906 179.84375 25.542969 179.84375 C 27.332031 179.84375 28.792969 181.898438 28.792969 184.425781 C 28.792969 186.953125 27.332031 189.007812 25.542969 189.007812 Z M 25.542969 180.3125 C 24.011719 180.3125 22.761719 182.15625 22.761719 184.425781 C 22.761719 186.695312 24.007812 188.539062 25.542969 188.539062 C 27.078125 188.539062 28.324219 186.695312 28.324219 184.425781 C 28.324219 182.15625 27.078125 180.3125 25.542969 180.3125 Z M 25.542969 180.3125 " fill-opacity="1" fill-rule="nonzero"/><path fill="#e5f4f4" d="M 36.492188 210.871094 C 36.492188 211.789062 36.433594 212.699219 36.316406 213.601562 C 36.195312 214.5 36.019531 215.375 35.789062 216.222656 C 35.554688 217.070312 35.273438 217.878906 34.933594 218.640625 C 34.597656 219.40625 34.214844 220.109375 33.785156 220.761719 C 33.355469 221.410156 32.886719 221.988281 32.382812 222.5 C 31.878906 223.011719 31.34375 223.441406 30.785156 223.792969 C 30.222656 224.144531 29.644531 224.410156 29.050781 224.585938 C 28.453125 224.765625 27.851562 224.855469 27.246094 224.855469 C 26.636719 224.855469 26.039062 224.765625 25.441406 224.585938 C 24.847656 224.410156 24.269531 224.144531 23.707031 223.792969 C 23.144531 223.441406 22.613281 223.007812 22.109375 222.5 C 21.605469 221.988281 21.136719 221.410156 20.707031 220.761719 C 20.277344 220.109375 19.894531 219.40625 19.558594 218.640625 C 19.21875 217.878906 18.933594 217.070312 18.703125 216.222656 C 18.46875 215.375 18.296875 214.5 18.175781 213.601562 C 18.058594 212.699219 18 211.789062 18 210.871094 C 18 209.953125 18.058594 209.042969 18.175781 208.144531 C 18.296875 207.242188 18.46875 206.367188 18.703125 205.519531 C 18.933594 204.671875 19.21875 203.867188 19.558594 203.101562 C 19.894531 202.339844 20.277344 201.632812 20.707031 200.984375 C 21.136719 200.332031 21.605469 199.753906 22.109375 199.242188 C 22.613281 198.734375 23.144531 198.300781 23.707031 197.949219 C 24.269531 197.597656 24.847656 197.335938 25.441406 197.15625 C 26.039062 196.976562 26.636719 196.886719 27.246094 196.886719 C 27.851562 196.886719 28.453125 196.976562 29.050781 197.15625 C 29.644531 197.335938 30.222656 197.597656 30.785156 197.949219 C 31.34375 198.300781 31.878906 198.734375 32.382812 199.242188 C 32.886719 199.753906 33.355469 200.332031 33.785156 200.984375 C 34.214844 201.632812 34.597656 202.339844 34.933594 203.101562 C 35.273438 203.867188 35.554688 204.671875 35.789062 205.519531 C 36.019531 206.367188 36.195312 207.242188 36.316406 208.144531 C 36.433594 209.042969 36.492188 209.953125 36.492188 210.871094 Z M 36.492188 210.871094 " fill-opacity="1" fill-rule="nonzero"/><path fill="#000000" d="M 27.246094 225.121094 C 22 225.121094 17.734375 218.726562 17.734375 210.871094 C 17.734375 203.015625 22 196.621094 27.246094 196.621094 C 32.488281 196.621094 36.757812 203.015625 36.757812 210.871094 C 36.757812 218.726562 32.488281 225.121094 27.246094 225.121094 Z M 27.246094 197.152344 C 22.292969 197.152344 18.265625 203.308594 18.265625 210.871094 C 18.265625 218.433594 22.296875 224.589844 27.246094 224.589844 C 32.195312 224.589844 36.226562 218.433594 36.226562 210.871094 C 36.226562 203.308594 32.195312 197.152344 27.246094 197.152344 Z M 27.246094 197.152344 " fill-opacity="1" fill-rule="nonzero"/><path fill="#92c3c5" d="M 34.261719 211.03125 C 34.261719 211.726562 34.214844 212.417969 34.125 213.101562 C 34.035156 213.785156 33.902344 214.449219 33.726562 215.089844 C 33.550781 215.734375 33.335938 216.347656 33.078125 216.925781 C 32.824219 217.503906 32.53125 218.039062 32.207031 218.535156 C 31.878906 219.027344 31.527344 219.464844 31.144531 219.851562 C 30.761719 220.238281 30.355469 220.566406 29.929688 220.832031 C 29.503906 221.101562 29.066406 221.300781 28.613281 221.4375 C 28.164062 221.574219 27.707031 221.640625 27.246094 221.640625 C 26.785156 221.640625 26.328125 221.574219 25.878906 221.4375 C 25.425781 221.300781 24.988281 221.101562 24.5625 220.832031 C 24.136719 220.566406 23.730469 220.238281 23.347656 219.851562 C 22.964844 219.464844 22.613281 219.027344 22.285156 218.535156 C 21.960938 218.039062 21.667969 217.503906 21.414062 216.925781 C 21.15625 216.347656 20.941406 215.734375 20.765625 215.089844 C 20.589844 214.449219 20.457031 213.785156 20.367188 213.101562 C 20.277344 212.417969 20.230469 211.726562 20.230469 211.03125 C 20.230469 210.332031 20.277344 209.644531 20.367188 208.960938 C 20.457031 208.277344 20.589844 207.613281 20.765625 206.96875 C 20.941406 206.324219 21.15625 205.714844 21.414062 205.136719 C 21.667969 204.554688 21.960938 204.019531 22.285156 203.527344 C 22.613281 203.035156 22.964844 202.59375 23.347656 202.207031 C 23.730469 201.820312 24.136719 201.492188 24.5625 201.226562 C 24.988281 200.960938 25.425781 200.757812 25.878906 200.625 C 26.328125 200.488281 26.785156 200.417969 27.246094 200.417969 C 27.707031 200.417969 28.164062 200.488281 28.613281 200.625 C 29.066406 200.757812 29.503906 200.960938 29.929688 201.226562 C 30.355469 201.492188 30.761719 201.820312 31.144531 202.207031 C 31.527344 202.59375 31.878906 203.035156 32.207031 203.527344 C 32.53125 204.019531 32.824219 204.554688 33.078125 205.136719 C 33.335938 205.714844 33.550781 206.324219 33.726562 206.96875 C 33.902344 207.613281 34.035156 208.277344 34.125 208.960938 C 34.214844 209.644531 34.261719 210.332031 34.261719 211.03125 Z M 34.261719 211.03125 " fill-opacity="1" fill-rule="nonzero"/><path fill="#000000" d="M 27.246094 221.886719 C 23.238281 221.886719 19.980469 217.015625 19.980469 211.03125 C 19.980469 205.046875 23.238281 200.171875 27.246094 200.171875 C 31.253906 200.171875 34.511719 205.046875 34.511719 211.03125 C 34.511719 217.015625 31.253906 221.886719 27.246094 221.886719 Z M 27.246094 200.664062 C 23.515625 200.664062 20.476562 205.316406 20.476562 211.027344 C 20.476562 216.738281 23.515625 221.386719 27.246094 221.386719 C 30.976562 221.386719 34.015625 216.738281 34.015625 211.027344 C 34.015625 205.316406 30.976562 200.664062 27.246094 200.664062 Z M 27.246094 200.664062 " fill-opacity="1" fill-rule="nonzero"/><path fill="#fca935" d="M 353.652344 217.757812 C 353.535156 221.160156 353.1875 225.140625 352.101562 228.570312 C 350.902344 232.375 348.804688 235.503906 345.140625 236.417969 C 341.691406 237.277344 333.945312 237.257812 335.6875 234.160156 C 336.402344 232.898438 336.796875 231.457031 336.972656 230 C 337.382812 226.589844 336.566406 223.136719 335.703125 221.921875 C 329.535156 222.175781 321.980469 222.097656 314.902344 222.132812 C 311.445312 222.152344 308.097656 222.203125 305.085938 222.320312 C 302.765625 225.929688 301.039062 229.300781 299.328125 232.226562 C 296.746094 236.625 294.195312 240.035156 289.6875 241.796875 C 288.820312 242.136719 287.964844 242.433594 287.121094 242.703125 C 279.75 245.039062 273.109375 244.828125 267.496094 245.089844 C 255.601562 245.632812 247.582031 246.179688 235.949219 246.492188 C 235.542969 246.507812 235.121094 246.519531 234.703125 246.527344 C 228.660156 246.683594 217.800781 248.015625 212.164062 245.839844 C 206.839844 243.785156 208.785156 235.90625 207.734375 229.792969 C 207.203125 226.71875 205.917969 224.09375 202.574219 222.878906 C 197.425781 221 188.53125 220.183594 182.179688 221.90625 C 179.140625 222.730469 176.683594 224.132812 175.5 226.285156 C 175.429688 226.414062 175.363281 226.542969 175.296875 226.675781 C 174.152344 229.171875 172.96875 232.480469 171.65625 235.960938 C 169.027344 242.945312 165.867188 250.632812 161.367188 253.820312 C 157.953125 256.242188 154.5 256.328125 150.875 255.710938 C 146.878906 255.039062 142.667969 253.511719 138.058594 253.304688 C 122.867188 252.625 107.683594 251.941406 92.492188 251.261719 C 82.726562 250.820312 72.953125 250.386719 63.191406 249.949219 L 63.410156 246.890625 C 63.496094 245.152344 63.652344 243.429688 63.882812 241.71875 C 65.527344 229.234375 70.722656 217.46875 77.96875 206.953125 C 82.382812 200.539062 87.570312 194.59375 93.171875 189.226562 C 109.1875 173.894531 131.378906 165.390625 157.460938 164.992188 L 350.648438 165.351562 C 353.257812 182.679688 354.269531 200.25 353.652344 217.757812 Z M 353.652344 217.757812 " fill-opacity="1" fill-rule="nonzero"/><path fill="#020202" d="M 61.898438 249.953125 C 61.722656 252.691406 61.515625 255.429688 61.316406 258.167969 L 63.863281 257.820312 C 63.421875 256.164062 62.984375 254.507812 62.539062 252.851562 C 62.316406 252.023438 62.097656 251.195312 61.875 250.371094 C 61.820312 250.175781 61.800781 249.914062 61.707031 249.734375 C 61.609375 249.554688 61.667969 249.769531 61.683594 249.816406 C 61.636719 249.6875 61.644531 249.515625 61.609375 249.382812 C 61.511719 248.9375 61.371094 248.5 61.253906 248.058594 C 60.351562 244.734375 59.433594 241.417969 58.480469 238.109375 C 56.585938 231.53125 54.550781 224.996094 52.253906 218.550781 C 49.972656 212.167969 47.429688 205.871094 44.519531 199.75 C 41.84375 194.132812 38.855469 188.660156 35.476562 183.425781 C 32.101562 178.191406 28.339844 173.191406 24.164062 168.566406 C 23.65625 168.007812 23.148438 167.457031 22.632812 166.90625 C 22.15625 166.394531 21.28125 166.425781 20.800781 166.90625 C 20.285156 167.417969 20.324219 168.226562 20.800781 168.738281 C 24.941406 173.1875 28.710938 177.933594 32.09375 182.984375 C 35.472656 188.035156 38.59375 193.535156 41.328125 199.09375 C 44.21875 204.96875 46.746094 211.015625 49.003906 217.164062 C 51.335938 223.523438 53.398438 229.988281 55.308594 236.492188 C 56.261719 239.746094 57.183594 243.019531 58.082031 246.289062 C 58.316406 247.140625 58.546875 247.988281 58.777344 248.839844 C 58.828125 249.03125 58.882812 249.21875 58.933594 249.410156 C 58.957031 249.503906 58.984375 249.601562 59.007812 249.691406 C 59.023438 249.746094 59.167969 250.113281 59.089844 249.898438 C 59.003906 249.667969 59.136719 250.164062 59.136719 250.167969 C 59.152344 250.25 59.183594 250.339844 59.203125 250.421875 C 59.257812 250.632812 59.316406 250.847656 59.371094 251.058594 C 59.832031 252.773438 60.289062 254.488281 60.742188 256.203125 C 60.945312 256.972656 61.152344 257.738281 61.355469 258.503906 C 61.519531 259.121094 62.15625 259.527344 62.78125 259.433594 C 63.445312 259.332031 63.855469 258.820312 63.90625 258.160156 C 64.105469 255.421875 64.3125 252.683594 64.488281 249.945312 C 64.53125 249.246094 63.859375 248.648438 63.191406 248.648438 C 62.449219 248.648438 61.9375 249.246094 61.894531 249.945312 Z M 61.898438 249.953125 " fill-opacity="1" fill-rule="nonzero"/><path fill="#92c3c5" d="M 144.226562 160.722656 C 131.703125 162.859375 120.769531 164.871094 109.097656 170.980469 C 97.429688 177.085938 86.507812 185.011719 78.453125 195.433594 C 70.15625 206.171875 65.242188 219.0625 60.445312 231.75 C 56.230469 209.726562 46.132812 188.855469 31.472656 171.878906 C 31.472656 171.878906 54.171875 170.222656 54.011719 169.59375 C 53.851562 168.960938 38.316406 167.476562 38.316406 167.476562 L 144.222656 160.722656 Z M 144.226562 160.722656 " fill-opacity="1" fill-rule="nonzero"/><path fill="#2c1b48" d="M 75.546875 188.582031 C 75.546875 196.515625 69.699219 202.976562 62.515625 202.976562 C 55.328125 202.976562 49.484375 196.515625 49.484375 188.582031 C 49.484375 180.644531 55.328125 174.191406 62.515625 174.191406 C 69.699219 174.191406 75.546875 180.644531 75.546875 188.582031 Z M 75.546875 188.582031 " fill-opacity="1" fill-rule="nonzero"/><path fill="#e9ffff" d="M 62.515625 199.945312 C 56.839844 199.945312 52.226562 194.847656 52.226562 188.585938 C 52.226562 182.320312 56.839844 177.222656 62.515625 177.222656 C 68.1875 177.222656 72.804688 182.320312 72.804688 188.585938 C 72.804688 194.847656 68.1875 199.945312 62.515625 199.945312 Z M 62.515625 178.425781 C 57.503906 178.425781 53.429688 182.984375 53.429688 188.585938 C 53.429688 194.183594 57.503906 198.742188 62.515625 198.742188 C 67.523438 198.742188 71.597656 194.183594 71.597656 188.585938 C 71.597656 182.984375 67.523438 178.425781 62.515625 178.425781 Z M 62.515625 178.425781 " fill-opacity="1" fill-rule="nonzero"/><path fill="#020202" d="M 42.753906 113.703125 C 60.503906 108.78125 78.816406 106.335938 97.1875 105.40625 C 115.746094 104.46875 134.347656 105.015625 152.898438 105.96875 C 171.972656 106.953125 191.035156 108.207031 210.101562 109.359375 C 229.542969 110.535156 248.980469 111.710938 268.421875 112.886719 C 287.957031 114.070312 307.5 115.253906 327.035156 116.433594 C 329.246094 116.570312 331.5 116.839844 333.714844 116.839844 C 335.382812 116.839844 335.386719 114.246094 333.714844 114.246094 C 328.996094 114.246094 324.203125 113.671875 319.492188 113.390625 C 314.78125 113.105469 309.816406 112.804688 304.984375 112.511719 C 295.214844 111.917969 285.449219 111.332031 275.675781 110.738281 C 256.140625 109.558594 236.601562 108.375 217.0625 107.195312 C 197.789062 106.027344 178.515625 104.796875 159.238281 103.722656 C 140.59375 102.683594 121.902344 101.9375 103.230469 102.566406 C 84.894531 103.183594 66.535156 105.148438 48.6875 109.484375 C 46.472656 110.023438 44.261719 110.597656 42.066406 111.207031 C 40.460938 111.652344 41.144531 114.152344 42.753906 113.703125 Z M 42.753906 113.703125 " fill-opacity="1" fill-rule="nonzero"/><path fill="#92c3c5" d="M 247.867188 156.761719 L 228.441406 156.761719 C 226.613281 156.761719 225.046875 155.460938 224.71875 153.65625 L 218.886719 121.664062 C 218.589844 120.027344 219.382812 118.488281 220.695312 117.726562 C 221.300781 117.355469 222.023438 117.164062 222.796875 117.199219 L 224.578125 117.289062 L 230.820312 117.589844 L 237.679688 117.921875 L 240.851562 118.074219 C 242.546875 118.160156 243.980469 119.355469 244.359375 121 L 247.226562 133.382812 L 251.5625 152.117188 C 252.113281 154.488281 250.3125 156.75 247.871094 156.75 Z M 247.867188 156.761719 " fill-opacity="1" fill-rule="nonzero"/><path fill="#020202" d="M 222.609375 117.199219 C 222.667969 117.199219 222.734375 117.199219 222.792969 117.203125 L 224.574219 117.292969 L 230.8125 117.59375 L 237.675781 117.925781 L 240.847656 118.078125 C 242.542969 118.164062 243.976562 119.359375 244.355469 121.003906 L 247.222656 133.386719 L 251.558594 152.121094 C 252.109375 154.492188 250.308594 156.757812 247.867188 156.757812 L 228.441406 156.757812 C 226.613281 156.757812 225.046875 155.457031 224.71875 153.652344 L 218.886719 121.660156 C 218.589844 120.023438 219.382812 118.484375 220.695312 117.722656 C 221.253906 117.382812 221.910156 117.191406 222.609375 117.191406 Z M 222.609375 116.164062 C 221.734375 116.164062 220.886719 116.398438 220.15625 116.84375 C 218.433594 117.84375 217.5 119.859375 217.863281 121.851562 L 223.695312 153.84375 C 224.109375 156.136719 226.109375 157.800781 228.4375 157.800781 L 247.863281 157.800781 C 249.34375 157.800781 250.71875 157.136719 251.644531 155.980469 C 252.5625 154.824219 252.902344 153.332031 252.566406 151.894531 L 248.230469 133.160156 L 245.359375 120.777344 C 244.878906 118.6875 243.046875 117.152344 240.898438 117.050781 L 237.722656 116.894531 L 230.859375 116.566406 L 224.621094 116.261719 L 222.835938 116.175781 C 222.757812 116.175781 222.679688 116.171875 222.601562 116.171875 Z M 222.609375 116.164062 " fill-opacity="1" fill-rule="nonzero"/><path fill="#92c3c5" d="M 287 156.734375 C 286.832031 156.75 286.660156 156.761719 286.484375 156.761719 L 264.484375 156.761719 C 262.410156 156.761719 260.632812 155.488281 260.257812 153.726562 L 253.652344 122.480469 C 253.160156 120.140625 255.324219 118.011719 258.082031 118.125 L 262.691406 118.316406 L 266.820312 118.488281 L 271.914062 118.707031 L 278.535156 118.980469 C 279.355469 119.015625 280.125 119.25 280.765625 119.628906 C 281.4375 120.035156 281.972656 120.589844 282.292969 121.261719 L 282.292969 121.273438 C 282.382812 121.457031 282.460938 121.648438 282.511719 121.84375 L 290.667969 152.238281 C 291.246094 154.40625 289.496094 156.484375 286.996094 156.738281 Z M 287 156.734375 " fill-opacity="1" fill-rule="nonzero"/><path fill="#020202" d="M 257.867188 118.121094 C 257.9375 118.121094 258.003906 118.121094 258.078125 118.125 L 262.6875 118.316406 L 266.816406 118.488281 L 271.910156 118.707031 L 278.53125 118.980469 C 279.351562 119.015625 280.121094 119.25 280.761719 119.628906 C 281.433594 120.035156 281.96875 120.589844 282.289062 121.261719 L 282.289062 121.273438 C 282.378906 121.457031 282.457031 121.648438 282.507812 121.84375 L 290.664062 152.238281 C 291.242188 154.40625 289.488281 156.484375 286.992188 156.738281 C 286.824219 156.753906 286.652344 156.765625 286.476562 156.765625 L 264.476562 156.765625 C 262.402344 156.765625 260.625 155.492188 260.25 153.730469 L 253.644531 122.484375 C 253.164062 120.207031 255.203125 118.125 257.863281 118.125 Z M 257.867188 117.085938 C 256.164062 117.085938 254.546875 117.820312 253.550781 119.046875 C 252.6875 120.109375 252.363281 121.40625 252.632812 122.691406 L 259.242188 153.9375 C 259.714844 156.171875 261.921875 157.796875 264.484375 157.796875 L 286.484375 157.796875 C 286.675781 157.796875 286.875 157.789062 287.09375 157.765625 C 288.734375 157.597656 290.164062 156.789062 291.027344 155.542969 C 291.769531 154.46875 291.996094 153.199219 291.671875 151.964844 L 283.515625 121.566406 C 283.445312 121.316406 283.351562 121.058594 283.230469 120.8125 C 283.230469 120.8125 283.222656 120.792969 283.222656 120.792969 C 282.824219 119.964844 282.15625 119.25 281.296875 118.738281 C 280.484375 118.261719 279.546875 117.988281 278.582031 117.945312 L 271.957031 117.667969 L 266.859375 117.449219 L 262.730469 117.28125 L 258.117188 117.089844 C 258.035156 117.089844 257.945312 117.085938 257.863281 117.085938 Z M 257.867188 117.085938 " fill-opacity="1" fill-rule="nonzero"/><path fill="#92c3c5" d="M 326.367188 156.761719 L 303.855469 156.761719 C 301.734375 156.761719 299.910156 155.519531 299.53125 153.816406 L 295.414062 135.304688 L 294.222656 129.9375 L 292.773438 123.429688 C 292.648438 122.867188 292.683594 122.324219 292.859375 121.824219 C 293.386719 120.269531 295.167969 119.109375 297.300781 119.195312 L 318.230469 120.027344 C 320.195312 120.105469 321.855469 121.238281 322.296875 122.808594 L 330.585938 152.171875 L 330.640625 152.363281 C 331.277344 154.617188 329.1875 156.765625 326.363281 156.765625 Z M 326.367188 156.761719 " fill-opacity="1" fill-rule="nonzero"/><path fill="#020202" d="M 297.078125 119.1875 C 297.152344 119.1875 297.230469 119.1875 297.304688 119.191406 L 318.234375 120.023438 C 320.199219 120.101562 321.859375 121.234375 322.300781 122.804688 L 330.589844 152.167969 L 330.644531 152.359375 C 331.28125 154.613281 329.191406 156.761719 326.367188 156.761719 L 303.855469 156.761719 C 301.734375 156.761719 299.910156 155.519531 299.53125 153.816406 L 295.414062 135.304688 L 294.222656 129.9375 L 292.773438 123.429688 C 292.648438 122.867188 292.683594 122.324219 292.859375 121.824219 C 293.367188 120.324219 295.039062 119.191406 297.074219 119.191406 Z M 297.078125 118.152344 C 294.683594 118.152344 292.546875 119.523438 291.882812 121.484375 C 291.640625 122.171875 291.597656 122.902344 291.761719 123.648438 L 293.210938 130.15625 L 294.402344 135.523438 L 298.523438 154.03125 C 299.007812 156.210938 301.246094 157.792969 303.855469 157.792969 L 326.367188 157.792969 C 328.21875 157.792969 329.925781 157 330.929688 155.679688 C 331.746094 154.605469 331.996094 153.320312 331.640625 152.074219 L 331.59375 151.894531 L 323.296875 122.523438 C 322.734375 120.503906 320.710938 119.085938 318.277344 118.984375 L 297.347656 118.15625 C 297.261719 118.15625 297.167969 118.152344 297.082031 118.152344 Z M 297.078125 118.152344 " fill-opacity="1" fill-rule="nonzero"/><path fill="#2c1b48" d="M 81.136719 115.476562 L 65.234375 152.527344 C 64.847656 153.429688 63.972656 154.023438 62.992188 154.0625 L 32.355469 155.105469 C 30.546875 155.167969 29.257812 153.382812 29.890625 151.691406 L 30.558594 149.902344 L 35.351562 137.066406 C 35.351562 137.066406 38.609375 128.34375 38.609375 128.34375 L 40.375 123.617188 L 42.273438 118.53125 C 42.597656 117.664062 43.367188 117.046875 44.289062 116.910156 L 48.472656 116.300781 L 52.613281 115.703125 L 65.429688 113.847656 L 78.445312 111.960938 C 78.605469 111.941406 78.761719 111.929688 78.910156 111.941406 C 80.632812 112 81.855469 113.796875 81.136719 115.472656 Z M 81.136719 115.476562 " fill-opacity="1" fill-rule="nonzero"/><path fill="#2c1b48" d="M 147.964844 120.347656 L 146.597656 125.679688 L 140.398438 149.964844 C 139.621094 153.015625 136.859375 155.136719 133.710938 155.105469 L 92.34375 154.675781 L 83.078125 154.578125 C 79.804688 154.542969 77.242188 152.277344 76.515625 149.417969 C 76.1875 148.136719 76.230469 146.734375 76.75 145.355469 L 80.78125 134.652344 L 84.066406 125.921875 L 87.703125 116.257812 C 88.707031 113.601562 91.257812 111.835938 94.097656 111.835938 L 141.34375 111.835938 C 141.855469 111.835938 142.351562 111.890625 142.832031 112.003906 C 146.496094 112.804688 148.9375 116.527344 147.964844 120.347656 Z M 147.964844 120.347656 " fill-opacity="1" fill-rule="nonzero"/><path fill="#92c3c5" d="M 199.621094 155.632812 L 160.742188 155.632812 C 157.476562 155.632812 154.917969 152.597656 155.226562 149.089844 L 157.390625 124.414062 C 157.660156 121.339844 160.050781 118.996094 162.90625 118.996094 L 196.738281 118.996094 C 199.527344 118.996094 201.886719 121.238281 202.238281 124.234375 L 205.125 148.90625 C 205.535156 152.480469 202.960938 155.636719 199.625 155.636719 Z M 199.621094 155.632812 " fill-opacity="1" fill-rule="nonzero"/><path fill="#020202" d="M 196.734375 118.992188 C 199.523438 118.992188 201.882812 121.234375 202.234375 124.230469 L 205.121094 148.902344 C 205.53125 152.476562 202.953125 155.632812 199.621094 155.632812 L 160.742188 155.632812 C 157.476562 155.632812 154.917969 152.597656 155.226562 149.089844 L 157.390625 124.414062 C 157.660156 121.339844 160.050781 118.996094 162.90625 118.996094 L 196.738281 118.996094 Z M 196.734375 117.957031 L 162.902344 117.957031 C 159.484375 117.957031 156.671875 120.691406 156.355469 124.316406 L 154.191406 148.992188 C 154.011719 151.054688 154.6875 153.082031 156.039062 154.5625 C 157.285156 155.921875 158.957031 156.667969 160.738281 156.667969 L 199.617188 156.667969 C 201.433594 156.667969 203.125 155.894531 204.378906 154.488281 C 205.742188 152.960938 206.386719 150.878906 206.144531 148.777344 L 203.261719 124.109375 C 202.855469 120.601562 200.046875 117.957031 196.734375 117.957031 Z M 196.734375 117.957031 " fill-opacity="1" fill-rule="nonzero"/><path fill="#2e1a46" d="M 333.277344 168.800781 L 344.46875 168.800781 C 344.613281 168.800781 344.746094 168.828125 344.878906 168.882812 C 345.011719 168.9375 345.125 169.011719 345.226562 169.113281 C 345.328125 169.214844 345.402344 169.328125 345.457031 169.460938 C 345.511719 169.589844 345.539062 169.726562 345.539062 169.867188 C 345.539062 170.007812 345.511719 170.144531 345.457031 170.277344 C 345.402344 170.40625 345.328125 170.523438 345.226562 170.621094 C 345.125 170.722656 345.011719 170.800781 344.878906 170.855469 C 344.746094 170.90625 344.613281 170.933594 344.46875 170.933594 L 333.277344 170.933594 C 333.136719 170.933594 333 170.90625 332.867188 170.855469 C 332.738281 170.800781 332.621094 170.722656 332.519531 170.621094 C 332.417969 170.523438 332.34375 170.40625 332.289062 170.277344 C 332.234375 170.144531 332.207031 170.007812 332.207031 169.867188 C 332.207031 169.726562 332.234375 169.589844 332.289062 169.460938 C 332.34375 169.328125 332.417969 169.214844 332.519531 169.113281 C 332.621094 169.011719 332.738281 168.9375 332.867188 168.882812 C 333 168.828125 333.136719 168.800781 333.277344 168.800781 Z M 333.277344 168.800781 " fill-opacity="1" fill-rule="nonzero"/><path fill="#2e1a46" d="M 333.277344 171.890625 L 344.46875 171.890625 C 344.613281 171.890625 344.746094 171.917969 344.878906 171.96875 C 345.011719 172.023438 345.125 172.101562 345.226562 172.203125 C 345.328125 172.300781 345.402344 172.417969 345.457031 172.546875 C 345.511719 172.679688 345.539062 172.816406 345.539062 172.957031 C 345.539062 173.097656 345.511719 173.234375 345.457031 173.363281 C 345.402344 173.496094 345.328125 173.609375 345.226562 173.710938 C 345.125 173.8125 345.011719 173.886719 344.878906 173.941406 C 344.746094 173.996094 344.613281 174.023438 344.46875 174.023438 L 333.277344 174.023438 C 333.136719 174.023438 333 173.996094 332.867188 173.941406 C 332.738281 173.886719 332.621094 173.8125 332.519531 173.710938 C 332.417969 173.609375 332.34375 173.496094 332.289062 173.363281 C 332.234375 173.234375 332.207031 173.097656 332.207031 172.957031 C 332.207031 172.816406 332.234375 172.679688 332.289062 172.546875 C 332.34375 172.417969 332.417969 172.300781 332.519531 172.203125 C 332.621094 172.101562 332.738281 172.023438 332.867188 171.96875 C 333 171.917969 333.136719 171.890625 333.277344 171.890625 Z M 333.277344 171.890625 " fill-opacity="1" fill-rule="nonzero"/><path fill="#2e1a46" d="M 333.277344 174.976562 L 344.46875 174.976562 C 344.613281 174.976562 344.746094 175.003906 344.878906 175.058594 C 345.011719 175.113281 345.125 175.1875 345.226562 175.289062 C 345.328125 175.390625 345.402344 175.503906 345.457031 175.636719 C 345.511719 175.765625 345.539062 175.902344 345.539062 176.042969 C 345.539062 176.183594 345.511719 176.320312 345.457031 176.453125 C 345.402344 176.582031 345.328125 176.699219 345.226562 176.796875 C 345.125 176.898438 345.011719 176.976562 344.878906 177.03125 C 344.746094 177.082031 344.613281 177.109375 344.46875 177.109375 L 333.277344 177.109375 C 333.136719 177.109375 333 177.082031 332.867188 177.03125 C 332.738281 176.976562 332.621094 176.898438 332.519531 176.796875 C 332.417969 176.699219 332.34375 176.582031 332.289062 176.453125 C 332.234375 176.320312 332.207031 176.183594 332.207031 176.042969 C 332.207031 175.902344 332.234375 175.765625 332.289062 175.636719 C 332.34375 175.503906 332.417969 175.390625 332.519531 175.289062 C 332.621094 175.1875 332.738281 175.113281 332.867188 175.058594 C 333 175.003906 333.136719 174.976562 333.277344 174.976562 Z M 333.277344 174.976562 " fill-opacity="1" fill-rule="nonzero"/><path fill="#2e1a46" d="M 333.277344 178.066406 L 344.46875 178.066406 C 344.613281 178.066406 344.746094 178.09375 344.878906 178.144531 C 345.011719 178.199219 345.125 178.277344 345.226562 178.378906 C 345.328125 178.476562 345.402344 178.59375 345.457031 178.722656 C 345.511719 178.855469 345.539062 178.992188 345.539062 179.132812 C 345.539062 179.273438 345.511719 179.410156 345.457031 179.539062 C 345.402344 179.671875 345.328125 179.785156 345.226562 179.886719 C 345.125 179.988281 345.011719 180.0625 344.878906 180.117188 C 344.746094 180.171875 344.613281 180.199219 344.46875 180.199219 L 333.277344 180.199219 C 333.136719 180.199219 333 180.171875 332.867188 180.117188 C 332.738281 180.0625 332.621094 179.988281 332.519531 179.886719 C 332.417969 179.785156 332.34375 179.671875 332.289062 179.539062 C 332.234375 179.410156 332.207031 179.273438 332.207031 179.132812 C 332.207031 178.992188 332.234375 178.855469 332.289062 178.722656 C 332.34375 178.59375 332.417969 178.476562 332.519531 178.378906 C 332.621094 178.277344 332.738281 178.199219 332.867188 178.144531 C 333 178.09375 333.136719 178.066406 333.277344 178.066406 Z M 333.277344 178.066406 " fill-opacity="1" fill-rule="nonzero"/><path fill="#2e1a46" d="M 333.277344 181.152344 L 344.46875 181.152344 C 344.613281 181.152344 344.746094 181.179688 344.878906 181.234375 C 345.011719 181.289062 345.125 181.363281 345.226562 181.464844 C 345.328125 181.566406 345.402344 181.679688 345.457031 181.8125 C 345.511719 181.941406 345.539062 182.078125 345.539062 182.21875 C 345.539062 182.359375 345.511719 182.496094 345.457031 182.628906 C 345.402344 182.757812 345.328125 182.875 345.226562 182.972656 C 345.125 183.074219 345.011719 183.152344 344.878906 183.207031 C 344.746094 183.261719 344.613281 183.285156 344.46875 183.285156 L 333.277344 183.285156 C 333.136719 183.285156 333 183.261719 332.867188 183.207031 C 332.738281 183.152344 332.621094 183.074219 332.519531 182.972656 C 332.417969 182.875 332.34375 182.757812 332.289062 182.628906 C 332.234375 182.496094 332.207031 182.359375 332.207031 182.21875 C 332.207031 182.078125 332.234375 181.941406 332.289062 181.8125 C 332.34375 181.679688 332.417969 181.566406 332.519531 181.464844 C 332.621094 181.363281 332.738281 181.289062 332.867188 181.234375 C 333 181.179688 333.136719 181.152344 333.277344 181.152344 Z M 333.277344 181.152344 " fill-opacity="1" fill-rule="nonzero"/><path fill="#2e1a46" d="M 333.277344 184.242188 L 344.46875 184.242188 C 344.613281 184.242188 344.746094 184.269531 344.878906 184.320312 C 345.011719 184.375 345.125 184.453125 345.226562 184.554688 C 345.328125 184.652344 345.402344 184.769531 345.457031 184.898438 C 345.511719 185.03125 345.539062 185.167969 345.539062 185.308594 C 345.539062 185.449219 345.511719 185.585938 345.457031 185.714844 C 345.402344 185.847656 345.328125 185.960938 345.226562 186.0625 C 345.125 186.164062 345.011719 186.238281 344.878906 186.292969 C 344.746094 186.347656 344.613281 186.375 344.46875 186.375 L 333.277344 186.375 C 333.136719 186.375 333 186.347656 332.867188 186.292969 C 332.738281 186.238281 332.621094 186.164062 332.519531 186.0625 C 332.417969 185.960938 332.34375 185.847656 332.289062 185.714844 C 332.234375 185.585938 332.207031 185.449219 332.207031 185.308594 C 332.207031 185.167969 332.234375 185.03125 332.289062 184.898438 C 332.34375 184.769531 332.417969 184.652344 332.519531 184.554688 C 332.621094 184.453125 332.738281 184.375 332.867188 184.320312 C 333 184.269531 333.136719 184.242188 333.277344 184.242188 Z M 333.277344 184.242188 " fill-opacity="1" fill-rule="nonzero"/><path fill="#2e1a46" d="M 333.277344 187.328125 L 344.46875 187.328125 C 344.613281 187.328125 344.746094 187.355469 344.878906 187.410156 C 345.011719 187.464844 345.125 187.542969 345.226562 187.640625 C 345.328125 187.742188 345.402344 187.855469 345.457031 187.988281 C 345.511719 188.117188 345.539062 188.253906 345.539062 188.394531 C 345.539062 188.539062 345.511719 188.671875 345.457031 188.804688 C 345.402344 188.933594 345.328125 189.050781 345.226562 189.148438 C 345.125 189.25 345.011719 189.328125 344.878906 189.382812 C 344.746094 189.4375 344.613281 189.460938 344.46875 189.460938 L 333.277344 189.460938 C 333.136719 189.460938 333 189.4375 332.867188 189.382812 C 332.738281 189.328125 332.621094 189.25 332.519531 189.148438 C 332.417969 189.050781 332.34375 188.933594 332.289062 188.804688 C 332.234375 188.671875 332.207031 188.539062 332.207031 188.394531 C 332.207031 188.253906 332.234375 188.117188 332.289062 187.988281 C 332.34375 187.855469 332.417969 187.742188 332.519531 187.640625 C 332.621094 187.542969 332.738281 187.464844 332.867188 187.410156 C 333 187.355469 333.136719 187.328125 333.277344 187.328125 Z M 333.277344 187.328125 " fill-opacity="1" fill-rule="nonzero"/><path fill="#2e1a46" d="M 333.277344 190.417969 L 344.46875 190.417969 C 344.613281 190.417969 344.746094 190.445312 344.878906 190.496094 C 345.011719 190.550781 345.125 190.628906 345.226562 190.730469 C 345.328125 190.828125 345.402344 190.945312 345.457031 191.074219 C 345.511719 191.207031 345.539062 191.34375 345.539062 191.484375 C 345.539062 191.625 345.511719 191.761719 345.457031 191.890625 C 345.402344 192.023438 345.328125 192.136719 345.226562 192.238281 C 345.125 192.339844 345.011719 192.414062 344.878906 192.46875 C 344.746094 192.523438 344.613281 192.550781 344.46875 192.550781 L 333.277344 192.550781 C 333.136719 192.550781 333 192.523438 332.867188 192.46875 C 332.738281 192.414062 332.621094 192.339844 332.519531 192.238281 C 332.417969 192.136719 332.34375 192.023438 332.289062 191.890625 C 332.234375 191.761719 332.207031 191.625 332.207031 191.484375 C 332.207031 191.34375 332.234375 191.207031 332.289062 191.074219 C 332.34375 190.945312 332.417969 190.828125 332.519531 190.730469 C 332.621094 190.628906 332.738281 190.550781 332.867188 190.496094 C 333 190.445312 333.136719 190.417969 333.277344 190.417969 Z M 333.277344 190.417969 " fill-opacity="1" fill-rule="nonzero"/><path fill="#2e1a46" d="M 333.277344 193.503906 L 344.46875 193.503906 C 344.613281 193.503906 344.746094 193.53125 344.878906 193.585938 C 345.011719 193.640625 345.125 193.71875 345.226562 193.816406 C 345.328125 193.917969 345.402344 194.03125 345.457031 194.164062 C 345.511719 194.292969 345.539062 194.429688 345.539062 194.570312 C 345.539062 194.714844 345.511719 194.847656 345.457031 194.980469 C 345.402344 195.109375 345.328125 195.226562 345.226562 195.324219 C 345.125 195.425781 345.011719 195.503906 344.878906 195.558594 C 344.746094 195.613281 344.613281 195.636719 344.46875 195.636719 L 333.277344 195.636719 C 333.136719 195.636719 333 195.613281 332.867188 195.558594 C 332.738281 195.503906 332.621094 195.425781 332.519531 195.324219 C 332.417969 195.226562 332.34375 195.109375 332.289062 194.980469 C 332.234375 194.847656 332.207031 194.714844 332.207031 194.570312 C 332.207031 194.429688 332.234375 194.292969 332.289062 194.164062 C 332.34375 194.03125 332.417969 193.917969 332.519531 193.816406 C 332.621094 193.71875 332.738281 193.640625 332.867188 193.585938 C 333 193.53125 333.136719 193.503906 333.277344 193.503906 Z M 333.277344 193.503906 " fill-opacity="1" fill-rule="nonzero"/><path fill="#2e1a46" d="M 333.277344 196.59375 L 344.46875 196.59375 C 344.613281 196.59375 344.746094 196.621094 344.878906 196.671875 C 345.011719 196.726562 345.125 196.804688 345.226562 196.90625 C 345.328125 197.003906 345.402344 197.121094 345.457031 197.25 C 345.511719 197.382812 345.539062 197.519531 345.539062 197.660156 C 345.539062 197.800781 345.511719 197.9375 345.457031 198.066406 C 345.402344 198.199219 345.328125 198.3125 345.226562 198.414062 C 345.125 198.515625 345.011719 198.589844 344.878906 198.644531 C 344.746094 198.699219 344.613281 198.726562 344.46875 198.726562 L 333.277344 198.726562 C 333.136719 198.726562 333 198.699219 332.867188 198.644531 C 332.738281 198.589844 332.621094 198.515625 332.519531 198.414062 C 332.417969 198.3125 332.34375 198.199219 332.289062 198.066406 C 332.234375 197.9375 332.207031 197.800781 332.207031 197.660156 C 332.207031 197.519531 332.234375 197.382812 332.289062 197.25 C 332.34375 197.121094 332.417969 197.003906 332.519531 196.90625 C 332.621094 196.804688 332.738281 196.726562 332.867188 196.671875 C 333 196.621094 333.136719 196.59375 333.277344 196.59375 Z M 333.277344 196.59375 " fill-opacity="1" fill-rule="nonzero"/><path fill="#2e1a46" d="M 342.269531 128.496094 L 337.195312 128.496094 C 336.613281 128.496094 336.128906 128.015625 336.128906 127.421875 C 336.128906 127.128906 336.25 126.863281 336.449219 126.671875 C 336.640625 126.472656 336.910156 126.351562 337.199219 126.351562 L 341.386719 126.351562 C 341.695312 127.046875 341.992188 127.765625 342.273438 128.492188 Z M 342.269531 128.496094 " fill-opacity="1" fill-rule="nonzero"/><path fill="#2e1a46" d="M 343.355469 131.582031 L 337.199219 131.582031 C 336.617188 131.582031 336.132812 131.101562 336.132812 130.519531 C 336.132812 130.222656 336.253906 129.953125 336.453125 129.761719 C 336.644531 129.5625 336.914062 129.445312 337.203125 129.445312 L 342.628906 129.445312 C 342.882812 130.140625 343.125 130.855469 343.359375 131.582031 Z M 343.355469 131.582031 " fill-opacity="1" fill-rule="nonzero"/><path fill="#2e1a46" d="M 344.277344 134.671875 L 337.199219 134.671875 C 336.617188 134.671875 336.132812 134.195312 336.132812 133.605469 C 336.132812 133.3125 336.253906 133.046875 336.453125 132.851562 C 336.644531 132.660156 336.914062 132.539062 337.203125 132.539062 L 343.660156 132.539062 C 343.871094 133.238281 344.082031 133.945312 344.28125 134.675781 Z M 344.277344 134.671875 " fill-opacity="1" fill-rule="nonzero"/><path fill="#2e1a46" d="M 345.09375 137.757812 L 337.199219 137.757812 C 336.617188 137.757812 336.132812 137.28125 336.132812 136.695312 C 336.132812 136.398438 336.253906 136.132812 336.453125 135.9375 C 336.644531 135.746094 336.914062 135.628906 337.203125 135.628906 L 344.550781 135.628906 C 344.667969 136.074219 344.785156 136.523438 344.902344 136.980469 C 344.972656 137.238281 345.039062 137.503906 345.101562 137.761719 Z M 345.09375 137.757812 " fill-opacity="1" fill-rule="nonzero"/><path fill="#2e1a46" d="M 345.859375 140.847656 L 337.195312 140.847656 C 336.613281 140.847656 336.128906 140.371094 336.128906 139.78125 C 336.128906 139.488281 336.25 139.222656 336.449219 139.027344 C 336.640625 138.835938 336.910156 138.714844 337.199219 138.714844 L 345.335938 138.714844 C 345.511719 139.429688 345.691406 140.140625 345.863281 140.851562 Z M 345.859375 140.847656 " fill-opacity="1" fill-rule="nonzero"/><path fill="#2e1a46" d="M 346.585938 143.929688 L 337.199219 143.929688 C 336.617188 143.929688 336.132812 143.453125 336.132812 142.867188 C 336.132812 142.570312 336.253906 142.304688 336.453125 142.109375 C 336.644531 141.917969 336.914062 141.800781 337.203125 141.800781 L 346.09375 141.800781 C 346.265625 142.511719 346.429688 143.21875 346.589844 143.933594 Z M 346.585938 143.929688 " fill-opacity="1" fill-rule="nonzero"/><path fill="#2e1a46" d="M 347.28125 147.027344 L 337.199219 147.027344 C 336.617188 147.027344 336.132812 146.546875 336.132812 145.953125 C 336.132812 145.664062 336.253906 145.394531 336.453125 145.203125 C 336.644531 145.003906 336.914062 144.882812 337.203125 144.882812 L 346.808594 144.882812 C 346.96875 145.597656 347.132812 146.308594 347.285156 147.023438 Z M 347.28125 147.027344 " fill-opacity="1" fill-rule="nonzero"/><path fill="#2e1a46" d="M 347.933594 150.109375 L 337.199219 150.109375 C 336.617188 150.109375 336.132812 149.628906 336.132812 149.046875 C 336.132812 148.75 336.253906 148.480469 336.453125 148.289062 C 336.644531 148.089844 336.914062 147.972656 337.203125 147.972656 L 347.492188 147.972656 C 347.644531 148.683594 347.796875 149.394531 347.9375 150.109375 Z M 347.933594 150.109375 " fill-opacity="1" fill-rule="nonzero"/><path fill="#2e1a46" d="M 348.550781 153.191406 C 348.5 153.195312 348.449219 153.203125 348.398438 153.203125 L 337.199219 153.203125 C 336.617188 153.203125 336.132812 152.726562 336.132812 152.136719 C 336.132812 151.84375 336.253906 151.574219 336.453125 151.382812 C 336.644531 151.191406 336.914062 151.074219 337.203125 151.074219 L 348.132812 151.074219 C 348.273438 151.785156 348.421875 152.488281 348.554688 153.195312 Z M 348.550781 153.191406 " fill-opacity="1" fill-rule="nonzero"/><path fill="#2e1a46" d="M 349.089844 156.027344 C 348.90625 156.1875 348.660156 156.285156 348.394531 156.285156 L 337.195312 156.285156 C 336.613281 156.285156 336.128906 155.808594 336.128906 155.222656 C 336.128906 154.925781 336.25 154.65625 336.449219 154.464844 C 336.640625 154.277344 336.910156 154.15625 337.199219 154.15625 L 348.398438 154.15625 C 348.519531 154.15625 348.640625 154.175781 348.75 154.210938 C 348.871094 154.816406 348.984375 155.425781 349.09375 156.027344 Z M 349.089844 156.027344 " fill-opacity="1" fill-rule="nonzero"/><path fill="#fc8321" d="M 175.5 226.289062 C 175.429688 226.417969 175.363281 226.546875 175.296875 226.679688 C 174.152344 229.175781 172.96875 232.484375 171.65625 235.964844 C 169.027344 242.949219 165.867188 250.636719 161.367188 253.824219 C 159.847656 254.902344 158.324219 255.511719 156.78125 255.808594 C 154.851562 256.179688 152.890625 256.058594 150.878906 255.714844 C 146.882812 255.042969 142.671875 253.515625 138.0625 253.308594 C 122.871094 252.628906 107.6875 251.945312 92.496094 251.265625 C 78.992188 250.660156 65.484375 250.050781 51.980469 249.453125 L 56.121094 241.445312 C 58.707031 241.546875 61.296875 241.644531 63.882812 241.722656 C 65.527344 229.238281 70.722656 217.472656 77.96875 206.957031 C 110 215.546875 142.609375 222 175.496094 226.289062 Z M 175.5 226.289062 " fill-opacity="1" fill-rule="nonzero"/><path fill="#e5f4f4" d="M 120.234375 211.03125 C 120.234375 212 120.15625 212.957031 119.992188 213.90625 C 119.832031 214.855469 119.59375 215.78125 119.277344 216.675781 C 118.960938 217.570312 118.574219 218.417969 118.117188 219.222656 C 117.660156 220.027344 117.136719 220.773438 116.554688 221.457031 C 115.972656 222.144531 115.335938 222.753906 114.652344 223.292969 C 113.964844 223.832031 113.242188 224.285156 112.476562 224.65625 C 111.714844 225.027344 110.929688 225.304688 110.121094 225.496094 C 109.3125 225.683594 108.496094 225.777344 107.667969 225.777344 C 106.84375 225.777344 106.027344 225.683594 105.21875 225.496094 C 104.410156 225.304688 103.625 225.027344 102.859375 224.65625 C 102.097656 224.285156 101.375 223.832031 100.6875 223.292969 C 100.003906 222.753906 99.367188 222.144531 98.785156 221.457031 C 98.203125 220.773438 97.679688 220.027344 97.222656 219.222656 C 96.765625 218.417969 96.375 217.570312 96.0625 216.675781 C 95.746094 215.78125 95.507812 214.855469 95.347656 213.90625 C 95.183594 212.957031 95.105469 212 95.105469 211.03125 C 95.105469 210.0625 95.183594 209.101562 95.347656 208.152344 C 95.507812 207.203125 95.746094 206.28125 96.0625 205.386719 C 96.375 204.492188 96.765625 203.640625 97.222656 202.835938 C 97.679688 202.03125 98.203125 201.285156 98.785156 200.601562 C 99.367188 199.917969 100.003906 199.304688 100.6875 198.769531 C 101.375 198.230469 102.097656 197.777344 102.859375 197.40625 C 103.625 197.035156 104.410156 196.753906 105.21875 196.566406 C 106.027344 196.375 106.84375 196.28125 107.667969 196.28125 C 108.496094 196.28125 109.3125 196.375 110.121094 196.566406 C 110.929688 196.753906 111.714844 197.035156 112.476562 197.40625 C 113.242188 197.777344 113.964844 198.230469 114.652344 198.769531 C 115.335938 199.304688 115.972656 199.917969 116.554688 200.601562 C 117.136719 201.285156 117.660156 202.03125 118.117188 202.835938 C 118.574219 203.640625 118.960938 204.492188 119.277344 205.386719 C 119.59375 206.28125 119.832031 207.203125 119.992188 208.152344 C 120.15625 209.101562 120.234375 210.0625 120.234375 211.03125 Z M 120.234375 211.03125 " fill-opacity="1" fill-rule="nonzero"/><path fill="#000000" d="M 107.667969 226.042969 C 100.59375 226.042969 94.839844 219.308594 94.839844 211.03125 C 94.839844 202.753906 100.59375 196.015625 107.667969 196.015625 C 114.746094 196.015625 120.5 202.753906 120.5 211.03125 C 120.5 219.308594 114.746094 226.042969 107.667969 226.042969 Z M 107.667969 196.546875 C 100.890625 196.546875 95.371094 203.046875 95.371094 211.03125 C 95.371094 219.015625 100.890625 225.511719 107.667969 225.511719 C 114.449219 225.511719 119.96875 219.015625 119.96875 211.03125 C 119.96875 203.046875 114.449219 196.546875 107.667969 196.546875 Z M 107.667969 196.546875 " fill-opacity="1" fill-rule="nonzero"/><path fill="#92c3c5" d="M 116.726562 211.03125 C 116.726562 211.726562 116.667969 212.417969 116.550781 213.105469 C 116.4375 213.789062 116.265625 214.453125 116.035156 215.097656 C 115.808594 215.742188 115.53125 216.355469 115.199219 216.9375 C 114.867188 217.515625 114.492188 218.054688 114.074219 218.546875 C 113.652344 219.042969 113.195312 219.480469 112.699219 219.871094 C 112.207031 220.257812 111.683594 220.585938 111.136719 220.851562 C 110.585938 221.121094 110.019531 221.320312 109.4375 221.457031 C 108.851562 221.59375 108.265625 221.660156 107.667969 221.660156 C 107.074219 221.660156 106.484375 221.59375 105.902344 221.457031 C 105.320312 221.320312 104.753906 221.121094 104.203125 220.851562 C 103.65625 220.585938 103.132812 220.257812 102.636719 219.871094 C 102.144531 219.480469 101.6875 219.042969 101.265625 218.546875 C 100.847656 218.054688 100.46875 217.515625 100.140625 216.9375 C 99.808594 216.355469 99.53125 215.742188 99.304688 215.097656 C 99.074219 214.453125 98.902344 213.789062 98.789062 213.105469 C 98.671875 212.417969 98.613281 211.726562 98.613281 211.03125 C 98.613281 210.332031 98.671875 209.640625 98.789062 208.957031 C 98.902344 208.273438 99.074219 207.605469 99.304688 206.960938 C 99.53125 206.316406 99.808594 205.703125 100.140625 205.125 C 100.46875 204.542969 100.847656 204.007812 101.265625 203.511719 C 101.6875 203.019531 102.144531 202.578125 102.636719 202.191406 C 103.132812 201.804688 103.65625 201.476562 104.203125 201.207031 C 104.753906 200.941406 105.320312 200.738281 105.902344 200.605469 C 106.484375 200.46875 107.074219 200.398438 107.667969 200.398438 C 108.265625 200.398438 108.851562 200.46875 109.4375 200.605469 C 110.019531 200.738281 110.585938 200.941406 111.136719 201.207031 C 111.683594 201.476562 112.207031 201.804688 112.699219 202.191406 C 113.195312 202.578125 113.652344 203.019531 114.074219 203.511719 C 114.492188 204.007812 114.867188 204.542969 115.199219 205.125 C 115.53125 205.703125 115.808594 206.316406 116.035156 206.960938 C 116.265625 207.605469 116.4375 208.273438 116.550781 208.957031 C 116.667969 209.640625 116.726562 210.332031 116.726562 211.03125 Z M 116.726562 211.03125 " fill-opacity="1" fill-rule="nonzero"/><path fill="#000000" d="M 107.667969 221.90625 C 102.539062 221.90625 98.363281 217.027344 98.363281 211.03125 C 98.363281 205.035156 102.539062 200.152344 107.667969 200.152344 C 112.800781 200.152344 116.976562 205.035156 116.976562 211.03125 C 116.976562 217.027344 112.800781 221.90625 107.667969 221.90625 Z M 107.667969 200.644531 C 102.8125 200.644531 98.859375 205.304688 98.859375 211.027344 C 98.859375 216.75 102.8125 221.40625 107.667969 221.40625 C 112.527344 221.40625 116.480469 216.75 116.480469 211.027344 C 116.480469 205.304688 112.527344 200.644531 107.667969 200.644531 Z M 107.667969 200.644531 " fill-opacity="1" fill-rule="nonzero"/><path fill="#fc8321" d="M 299.332031 232.230469 C 296.75 236.628906 294.199219 240.039062 289.691406 241.800781 C 288.824219 242.140625 287.96875 242.4375 287.125 242.707031 C 279.753906 245.042969 273.113281 244.832031 267.5 245.09375 C 255.605469 245.636719 247.585938 246.183594 235.953125 246.496094 C 235.546875 246.511719 235.125 246.523438 234.707031 246.53125 C 228.664062 246.6875 217.804688 248.019531 212.167969 245.84375 C 206.84375 243.789062 208.789062 235.910156 207.738281 229.796875 C 238.1875 232.460938 268.796875 233.277344 299.339844 232.234375 Z M 299.332031 232.230469 " fill-opacity="1" fill-rule="nonzero"/><path fill="#fc8321" d="M 352.105469 228.570312 C 350.90625 232.375 348.808594 235.503906 345.144531 236.417969 C 341.695312 237.277344 333.949219 237.257812 335.691406 234.160156 C 336.40625 232.898438 336.800781 231.457031 336.976562 230 C 342.023438 229.578125 347.0625 229.105469 352.105469 228.570312 Z M 352.105469 228.570312 " fill-opacity="1" fill-rule="nonzero"/><path fill="#020202" d="M 64.710938 246.136719 C 65.933594 224.5 77.976562 205.132812 93.164062 190.292969 C 106.976562 176.796875 125.082031 168.96875 144.136719 166.484375 C 153.53125 165.261719 162.980469 165.546875 172.425781 165.566406 C 183.640625 165.585938 194.859375 165.609375 206.074219 165.628906 C 209.699219 165.636719 213.320312 165.640625 216.945312 165.648438 C 223.285156 165.660156 229.628906 165.671875 235.972656 165.683594 C 246.535156 165.707031 257.101562 165.726562 267.667969 165.746094 C 279.542969 165.765625 291.417969 165.789062 303.296875 165.808594 C 313.429688 165.828125 323.5625 165.84375 333.695312 165.863281 C 339.0625 165.871094 344.433594 165.882812 349.800781 165.890625 C 350.042969 165.890625 350.289062 165.890625 350.535156 165.890625 C 352.199219 165.890625 352.203125 163.304688 350.535156 163.300781 C 346.695312 163.292969 342.855469 163.285156 339.015625 163.28125 C 329.628906 163.265625 320.238281 163.246094 310.851562 163.230469 C 299.007812 163.210938 287.164062 163.1875 275.320312 163.164062 C 264.113281 163.144531 252.90625 163.125 241.695312 163.101562 C 234.214844 163.089844 226.734375 163.074219 219.253906 163.0625 C 216.320312 163.058594 213.386719 163.050781 210.449219 163.046875 C 199.730469 163.027344 189.011719 163.007812 178.296875 162.988281 C 170.632812 162.972656 162.941406 162.75 155.277344 163.003906 C 135.613281 163.65625 115.875 169.160156 99.988281 181.035156 C 91.796875 187.152344 84.6875 194.792969 78.652344 203.011719 C 72.433594 211.476562 67.429688 220.953125 64.589844 231.097656 C 63.21875 236.007812 62.398438 241.050781 62.113281 246.140625 C 62.015625 247.808594 64.609375 247.804688 64.707031 246.140625 Z M 64.710938 246.136719 " fill-opacity="1" fill-rule="nonzero"/><path fill="#fcfcfc" d="M 347.699219 227.148438 C 345.96875 230.429688 344.242188 233.707031 342.511719 236.984375 C 342.160156 237.652344 341.800781 238.414062 342.035156 239.128906 C 342.296875 239.925781 343.191406 240.316406 344.003906 240.539062 C 348.011719 241.644531 352.472656 240.980469 355.984375 238.757812 C 357.375 237.875 358.648438 236.726562 359.382812 235.25 C 360.175781 233.652344 360.261719 231.722656 359.621094 230.0625 C 358.980469 228.402344 357.625 227.027344 355.964844 226.371094 C 353.511719 225.402344 350.753906 225.996094 348.1875 226.605469 L 347.703125 227.140625 Z M 347.699219 227.148438 " fill-opacity="1" fill-rule="nonzero"/><path fill="#020202" d="M 346.578125 226.492188 C 345.542969 228.457031 344.507812 230.417969 343.476562 232.378906 C 342.964844 233.34375 342.457031 234.3125 341.945312 235.277344 C 341.421875 236.273438 340.753906 237.304688 340.667969 238.457031 C 340.515625 240.65625 342.652344 241.59375 344.453125 241.980469 C 346.34375 242.386719 348.273438 242.449219 350.1875 242.191406 C 353.863281 241.691406 357.722656 239.941406 359.925781 236.859375 C 362.230469 233.632812 361.613281 228.933594 358.539062 226.429688 C 356.792969 225.007812 354.613281 224.457031 352.378906 224.585938 C 351.199219 224.652344 350.027344 224.867188 348.875 225.121094 C 348.328125 225.242188 347.667969 225.300781 347.253906 225.707031 C 347.085938 225.871094 346.941406 226.058594 346.785156 226.230469 C 346.320312 226.753906 346.273438 227.550781 346.785156 228.0625 C 347.257812 228.535156 348.148438 228.589844 348.621094 228.0625 L 349.101562 227.527344 L 348.527344 227.859375 C 350.078125 227.496094 351.648438 227.128906 353.25 227.160156 C 354.015625 227.175781 354.726562 227.304688 355.449219 227.5625 C 355.898438 227.722656 356.558594 228.128906 356.925781 228.453125 C 357.898438 229.3125 358.546875 230.417969 358.707031 231.683594 C 358.886719 233.109375 358.488281 234.53125 357.589844 235.679688 C 355.875 237.871094 352.894531 239.132812 350.15625 239.597656 C 348.855469 239.820312 347.246094 239.835938 345.945312 239.636719 C 345.238281 239.523438 344.496094 239.390625 343.824219 239.128906 C 343.96875 239.183594 343.679688 239.054688 343.632812 239.035156 C 343.558594 238.996094 343.476562 238.949219 343.402344 238.898438 C 343.425781 238.914062 343.523438 238.988281 343.402344 238.898438 C 343.355469 238.863281 343.304688 238.808594 343.265625 238.761719 C 343.382812 238.90625 343.253906 238.75 343.242188 238.714844 C 343.292969 238.914062 343.226562 238.566406 343.226562 238.636719 C 343.226562 238.273438 343.5 237.859375 343.660156 237.550781 C 343.910156 237.082031 344.15625 236.613281 344.402344 236.144531 C 344.878906 235.238281 345.359375 234.328125 345.839844 233.421875 C 346.824219 231.550781 347.816406 229.671875 348.800781 227.800781 C 349.128906 227.179688 348.960938 226.394531 348.335938 226.027344 C 347.753906 225.6875 346.894531 225.875 346.5625 226.492188 Z M 346.578125 226.492188 " fill-opacity="1" fill-rule="nonzero"/><path fill="#020202" d="M 136.5 244.664062 C 136.335938 245.011719 136.175781 245.359375 136.011719 245.707031 C 136.816406 245.925781 137.621094 246.144531 138.425781 246.359375 C 136.824219 232.230469 136.691406 217.941406 138.027344 203.785156 C 138.691406 196.757812 139.722656 189.769531 141.117188 182.851562 C 141.816406 179.351562 142.613281 175.878906 143.496094 172.421875 C 143.9375 170.691406 144.402344 168.972656 144.886719 167.257812 C 145.117188 166.445312 145.355469 165.625 145.601562 164.816406 C 145.730469 164.378906 145.792969 164.054688 145.734375 163.589844 C 145.6875 163.199219 145.664062 162.804688 145.660156 162.410156 C 145.648438 159.8125 146.710938 157.246094 148.550781 155.40625 C 148.808594 155.152344 149.074219 154.90625 149.359375 154.679688 C 149.644531 154.453125 150 154.28125 150.195312 153.945312 C 150.324219 153.730469 150.347656 153.492188 150.378906 153.25 C 150.398438 153.109375 150.414062 152.972656 150.433594 152.832031 C 150.683594 150.953125 150.9375 149.070312 151.1875 147.191406 C 152.105469 140.273438 153.027344 133.359375 153.949219 126.445312 C 154.371094 123.28125 154.792969 120.117188 155.210938 116.949219 C 155.4375 115.28125 155.722656 113.609375 155.882812 111.933594 C 155.890625 111.855469 155.902344 111.78125 155.914062 111.699219 L 154.617188 112.996094 C 157.703125 113.042969 160.792969 113.089844 163.878906 113.144531 C 170.113281 113.242188 176.347656 113.335938 182.582031 113.4375 C 187.414062 113.511719 192.246094 113.589844 197.078125 113.664062 C 198.585938 113.6875 199.984375 113.707031 201.425781 114.300781 C 203.308594 115.070312 204.824219 116.566406 205.707031 118.386719 C 206.230469 119.453125 206.398438 120.621094 206.585938 121.78125 C 206.84375 123.367188 207.097656 124.949219 207.355469 126.535156 C 208.390625 132.953125 209.421875 139.371094 210.457031 145.785156 C 210.929688 148.699219 211.460938 151.589844 212.671875 154.304688 C 213.648438 156.503906 215.515625 158.75 215.234375 161.296875 C 215.136719 162.160156 214.78125 163 214.023438 163.464844 C 213.480469 163.796875 213.347656 164.339844 213.425781 164.925781 C 214.878906 175.273438 215.675781 185.71875 215.84375 196.167969 C 216.007812 206.613281 215.539062 217.046875 214.433594 227.425781 C 213.8125 233.257812 212.980469 239.066406 211.953125 244.84375 C 211.832031 245.53125 212.140625 246.238281 212.863281 246.4375 C 213.488281 246.605469 214.335938 246.226562 214.457031 245.53125 C 216.320312 235.054688 217.546875 224.46875 218.105469 213.84375 C 218.664062 203.292969 218.570312 192.707031 217.828125 182.167969 C 217.40625 176.167969 216.761719 170.191406 215.925781 164.238281 L 215.328125 165.703125 C 217.59375 164.320312 218.207031 161.484375 217.640625 159.03125 C 216.996094 156.230469 215.085938 153.898438 214.238281 151.15625 C 213.316406 148.175781 212.945312 145.03125 212.453125 141.960938 C 211.925781 138.703125 211.402344 135.445312 210.875 132.191406 C 210.351562 128.9375 209.824219 125.675781 209.300781 122.421875 C 209.074219 121.023438 208.9375 119.578125 208.441406 118.238281 C 208.019531 117.105469 207.441406 116.078125 206.691406 115.132812 C 204.675781 112.589844 201.550781 111.152344 198.328125 111.101562 C 194.179688 111.035156 190.035156 110.96875 185.894531 110.90625 C 179.410156 110.800781 172.929688 110.703125 166.453125 110.597656 C 162.574219 110.539062 158.679688 110.371094 154.800781 110.417969 C 154.738281 110.417969 154.683594 110.417969 154.625 110.417969 C 153.855469 110.40625 153.417969 111.023438 153.328125 111.710938 C 152.703125 116.414062 152.074219 121.113281 151.449219 125.816406 C 150.457031 133.261719 149.46875 140.703125 148.476562 148.144531 C 148.25 149.863281 148.019531 151.582031 147.792969 153.300781 C 148.007812 152.929688 148.222656 152.554688 148.433594 152.183594 C 144.523438 154.917969 142.539062 159.632812 143.257812 164.339844 L 143.257812 163.652344 C 140.125 174.09375 137.839844 184.773438 136.390625 195.574219 C 134.945312 206.34375 134.332031 217.222656 134.589844 228.085938 C 134.734375 234.199219 135.15625 240.300781 135.847656 246.371094 C 135.910156 246.949219 136.207031 247.457031 136.796875 247.621094 C 137.316406 247.761719 138.023438 247.535156 138.261719 247.023438 C 138.425781 246.675781 138.589844 246.328125 138.753906 245.980469 C 139.046875 245.347656 138.929688 244.585938 138.285156 244.207031 C 137.726562 243.875 136.8125 244.035156 136.511719 244.671875 Z M 136.5 244.664062 " fill-opacity="1" fill-rule="nonzero"/><path fill="#020202" d="M 207.3125 165.085938 C 208.886719 177.257812 209.242188 189.585938 208.351562 201.832031 C 208.097656 205.265625 207.753906 208.691406 207.3125 212.101562 C 207.628906 211.6875 207.945312 211.273438 208.261719 210.855469 C 202.867188 212.066406 197.296875 211.503906 191.816406 211.488281 C 186.882812 211.476562 181.804688 211.9375 177.3125 214.117188 C 173.292969 216.074219 170.292969 219.480469 168.089844 223.292969 C 165.917969 227.042969 164.40625 231.144531 162.710938 235.003906 C 161.742188 237.214844 160.746094 239.660156 159.207031 241.515625 C 158.449219 242.429688 157.496094 243.265625 156.4375 243.664062 C 155.863281 243.875 155.355469 243.988281 154.820312 244 C 154.273438 244.011719 153.738281 243.929688 153.261719 243.703125 C 152.628906 243.398438 151.863281 243.527344 151.488281 244.167969 C 151.160156 244.730469 151.320312 245.632812 151.953125 245.9375 C 154.320312 247.074219 157.132812 246.609375 159.214844 245.066406 C 161.238281 243.5625 162.535156 241.402344 163.628906 239.175781 C 165.601562 235.164062 167.003906 231.148438 168.96875 227.164062 C 170.800781 223.445312 173.074219 219.910156 176.429688 217.628906 C 180.449219 214.890625 185.382812 214.207031 190.144531 214.097656 C 196.425781 213.957031 202.75 214.75 208.949219 213.359375 C 209.558594 213.222656 209.832031 212.664062 209.902344 212.113281 C 211.476562 199.9375 211.832031 187.609375 210.941406 175.367188 C 210.691406 171.933594 210.34375 168.507812 209.902344 165.09375 C 209.808594 164.402344 209.367188 163.796875 208.605469 163.796875 C 207.972656 163.796875 207.214844 164.394531 207.308594 165.09375 Z M 207.3125 165.085938 " fill-opacity="1" fill-rule="nonzero"/><path fill="#ffffff" d="M 157.496094 254.8125 C 157.375 255.011719 157.226562 255.203125 157.074219 255.382812 C 156.691406 255.847656 156.265625 256.253906 155.804688 256.605469 C 152.75 258.964844 148.210938 259.054688 144.195312 258.925781 C 136.085938 258.664062 127.972656 258.394531 119.863281 258.128906 C 100.441406 257.496094 80.921875 256.238281 61.488281 256.238281 C 51.621094 255.925781 41.757812 255.609375 31.894531 255.296875 C 26.230469 255.117188 17.828125 254.261719 16.011719 247.871094 C 15.910156 247.511719 15.828125 247.140625 15.769531 246.75 C 15.019531 241.75 20.527344 239.21875 24.675781 239.046875 C 28.886719 238.878906 33.261719 239.421875 37.480469 239.613281 C 41.800781 239.8125 46.117188 240.003906 50.4375 240.1875 C 52.574219 240.28125 54.707031 240.363281 56.84375 240.445312 C 59.429688 240.550781 62.019531 240.644531 64.605469 240.726562 C 68.542969 240.855469 72.472656 240.964844 76.40625 241.039062 C 80.523438 241.117188 84.632812 241.164062 88.734375 241.164062 C 108.300781 241.730469 127.894531 242.03125 147.46875 242.480469 C 150.117188 242.546875 152.902344 242.640625 155.164062 244.007812 C 158.691406 246.140625 159.75 251.398438 157.5 254.800781 Z M 157.496094 254.8125 " fill-opacity="1" fill-rule="nonzero"/><path fill="#92c3c5" d="M 155.804688 256.605469 C 152.75 258.964844 148.210938 259.054688 144.195312 258.925781 C 136.085938 258.664062 127.972656 258.394531 119.863281 258.128906 C 100.441406 257.496094 80.921875 256.238281 61.488281 256.238281 C 51.621094 255.925781 41.757812 255.609375 31.894531 255.296875 C 26.230469 255.117188 17.828125 254.261719 16.011719 247.871094 C 28.832031 251.808594 42.667969 250.898438 56.132812 250.453125 C 89.449219 249.347656 122.871094 251.414062 155.808594 256.601562 Z M 155.804688 256.605469 " fill-opacity="1" fill-rule="nonzero"/><path fill="#020202" d="M 155.664062 255.152344 C 153.480469 258.398438 148.871094 258.671875 145.339844 258.660156 C 140.101562 258.640625 134.851562 258.34375 129.617188 258.167969 C 118.734375 257.808594 107.859375 257.40625 96.984375 256.9375 C 86.132812 256.472656 75.277344 256.03125 64.414062 255.945312 C 53.523438 255.863281 42.628906 255.355469 31.738281 255.011719 C 28.5625 254.914062 25.4375 254.726562 22.402344 253.746094 C 19.644531 252.851562 17.203125 251.171875 16.472656 248.265625 C 16.109375 246.824219 16.273438 245.40625 17.183594 244.269531 C 18.136719 243.082031 19.574219 242.332031 21.007812 241.878906 C 22.863281 241.289062 24.699219 241.277344 26.65625 241.316406 C 29.308594 241.371094 31.945312 241.609375 34.585938 241.78125 C 39.988281 242.136719 45.414062 242.300781 50.824219 242.53125 C 56.203125 242.757812 61.585938 242.953125 66.96875 243.117188 C 72.398438 243.28125 77.820312 243.394531 83.246094 243.441406 C 88.695312 243.484375 94.132812 243.632812 99.582031 243.769531 C 110.5 244.035156 121.421875 244.246094 132.339844 244.472656 C 137.660156 244.585938 142.996094 244.585938 148.3125 244.835938 C 150.363281 244.929688 152.667969 245.175781 154.324219 246.507812 C 155.601562 247.53125 156.382812 249.117188 156.601562 250.722656 C 156.8125 252.273438 156.496094 253.835938 155.652344 255.15625 C 154.746094 256.5625 156.992188 257.863281 157.890625 256.464844 C 160.03125 253.128906 159.550781 248.558594 157.042969 245.5625 C 153.796875 241.679688 147.894531 242.214844 143.351562 242.117188 C 132.007812 241.867188 120.664062 241.65625 109.320312 241.40625 C 103.628906 241.28125 97.933594 241.148438 92.238281 240.992188 C 86.625 240.839844 81.011719 240.851562 75.398438 240.742188 C 64.152344 240.519531 52.914062 240.042969 41.675781 239.542969 C 38.855469 239.414062 36.035156 239.300781 33.21875 239.101562 C 30.488281 238.90625 27.757812 238.6875 25.023438 238.722656 C 21.34375 238.773438 17.292969 239.804688 14.988281 242.894531 C 12.734375 245.910156 13.652344 250.144531 16.007812 252.820312 C 18.238281 255.347656 21.710938 256.476562 24.9375 257.019531 C 29.03125 257.710938 33.222656 257.65625 37.359375 257.785156 C 43.046875 257.964844 48.726562 258.148438 54.414062 258.328125 C 60.078125 258.503906 65.746094 258.527344 71.414062 258.640625 C 77.03125 258.757812 82.648438 258.945312 88.261719 259.164062 C 99.589844 259.609375 110.914062 260.148438 122.246094 260.515625 C 127.902344 260.703125 133.558594 260.890625 139.222656 261.074219 C 143.691406 261.21875 148.625 261.804688 152.914062 260.210938 C 154.921875 259.464844 156.683594 258.25 157.886719 256.453125 C 158.816406 255.066406 156.574219 253.769531 155.644531 255.148438 Z M 155.664062 255.152344 " fill-opacity="1" fill-rule="nonzero"/><path fill="#ffffff" d="M 202.390625 179.503906 C 202.390625 179.699219 202.3125 179.894531 202.15625 180.085938 C 202.003906 180.28125 201.773438 180.46875 201.46875 180.648438 C 201.164062 180.832031 200.792969 181.003906 200.351562 181.164062 C 199.910156 181.328125 199.410156 181.480469 198.847656 181.621094 C 198.289062 181.757812 197.675781 181.882812 197.015625 181.992188 C 196.359375 182.101562 195.660156 182.191406 194.929688 182.269531 C 194.195312 182.34375 193.4375 182.398438 192.660156 182.4375 C 191.882812 182.476562 191.097656 182.496094 190.300781 182.496094 C 189.507812 182.496094 188.722656 182.476562 187.945312 182.4375 C 187.164062 182.398438 186.410156 182.34375 185.675781 182.269531 C 184.941406 182.191406 184.246094 182.101562 183.585938 181.992188 C 182.925781 181.882812 182.316406 181.757812 181.753906 181.621094 C 181.195312 181.480469 180.691406 181.328125 180.25 181.167969 C 179.808594 181.003906 179.4375 180.832031 179.132812 180.648438 C 178.832031 180.46875 178.601562 180.28125 178.445312 180.085938 C 178.292969 179.894531 178.214844 179.699219 178.214844 179.503906 C 178.214844 179.308594 178.292969 179.113281 178.445312 178.917969 C 178.601562 178.726562 178.832031 178.539062 179.132812 178.359375 C 179.4375 178.175781 179.808594 178.003906 180.25 177.839844 C 180.691406 177.675781 181.195312 177.527344 181.753906 177.386719 C 182.316406 177.25 182.925781 177.125 183.585938 177.015625 C 184.246094 176.90625 184.941406 176.8125 185.675781 176.738281 C 186.410156 176.664062 187.164062 176.605469 187.945312 176.570312 C 188.722656 176.53125 189.507812 176.511719 190.300781 176.511719 C 191.097656 176.511719 191.882812 176.53125 192.660156 176.570312 C 193.4375 176.605469 194.195312 176.664062 194.929688 176.738281 C 195.660156 176.8125 196.359375 176.90625 197.015625 177.015625 C 197.675781 177.125 198.289062 177.25 198.847656 177.386719 C 199.410156 177.527344 199.910156 177.675781 200.351562 177.839844 C 200.792969 178.003906 201.164062 178.175781 201.46875 178.359375 C 201.773438 178.539062 202.003906 178.726562 202.15625 178.917969 C 202.3125 179.113281 202.390625 179.308594 202.390625 179.503906 Z M 202.390625 179.503906 " fill-opacity="1" fill-rule="nonzero"/><path fill="#4b3d63" d="M 52.609375 115.707031 L 38.605469 128.347656 L 40.371094 123.621094 L 48.46875 116.308594 Z M 52.609375 115.707031 " fill-opacity="1" fill-rule="nonzero"/><path fill="#4b3d63" d="M 78.90625 111.945312 L 30.550781 149.902344 L 35.34375 137.066406 C 35.34375 137.066406 65.417969 113.851562 65.417969 113.851562 L 78.433594 111.964844 C 78.59375 111.945312 78.75 111.933594 78.898438 111.945312 Z M 78.90625 111.945312 " fill-opacity="1" fill-rule="nonzero"/><path fill="#4b3d63" d="M 128.542969 111.839844 L 80.78125 134.65625 L 84.066406 125.925781 L 113.753906 111.839844 Z M 128.542969 111.839844 " fill-opacity="1" fill-rule="nonzero"/><path fill="#4b3d63" d="M 147.964844 120.347656 L 146.597656 125.679688 L 92.34375 154.675781 L 83.078125 154.578125 C 79.804688 154.542969 77.242188 152.277344 76.515625 149.417969 L 142.828125 112.003906 C 146.492188 112.804688 148.933594 116.527344 147.960938 120.347656 Z M 147.964844 120.347656 " fill-opacity="1" fill-rule="nonzero"/><path fill="#b8d8d9" d="M 326.367188 156.761719 L 324.675781 156.761719 L 294.226562 129.9375 L 292.777344 123.429688 C 292.652344 122.867188 292.6875 122.324219 292.863281 121.824219 L 330.589844 152.167969 L 330.644531 152.359375 C 331.28125 154.613281 329.191406 156.761719 326.367188 156.761719 Z M 326.367188 156.761719 " fill-opacity="1" fill-rule="nonzero"/><path fill="#b8d8d9" d="M 287 156.734375 L 271.914062 118.707031 L 278.535156 118.980469 C 279.355469 119.015625 280.125 119.25 280.765625 119.628906 L 282.292969 121.261719 L 282.292969 121.273438 C 282.382812 121.457031 282.460938 121.648438 282.511719 121.84375 L 290.667969 152.238281 C 291.246094 154.40625 289.496094 156.484375 286.996094 156.738281 Z M 287 156.734375 " fill-opacity="1" fill-rule="nonzero"/><path fill="#b8d8d9" d="M 315.480469 156.761719 L 303.855469 156.761719 C 301.734375 156.761719 299.910156 155.519531 299.53125 153.816406 L 295.414062 135.304688 Z M 315.480469 156.761719 " fill-opacity="1" fill-rule="nonzero"/><path fill="#b8d8d9" d="M 247.867188 156.761719 L 243.785156 156.761719 L 230.8125 117.59375 L 237.675781 117.925781 C 239.933594 121.570312 243.429688 127.234375 247.21875 133.390625 L 251.554688 152.125 C 252.105469 154.5 250.300781 156.757812 247.863281 156.757812 Z M 247.867188 156.761719 " fill-opacity="1" fill-rule="nonzero"/><path fill="#b8d8d9" d="M 239.59375 156.761719 L 234.890625 156.761719 L 220.695312 117.730469 C 221.300781 117.359375 222.023438 117.167969 222.796875 117.203125 L 224.578125 117.292969 L 239.601562 156.761719 Z M 239.59375 156.761719 " fill-opacity="1" fill-rule="nonzero"/><path fill="#b8d8d9" d="M 281.375 156.761719 L 276.671875 156.761719 L 262.6875 118.316406 L 266.820312 118.488281 Z M 281.375 156.761719 " fill-opacity="1" fill-rule="nonzero"/><path fill="#b8d8d9" d="M 196.050781 155.632812 L 190.234375 155.632812 L 180.339844 118.992188 L 183.226562 118.992188 Z M 196.050781 155.632812 " fill-opacity="1" fill-rule="nonzero"/><path fill="#b8d8d9" d="M 183.9375 155.632812 L 172.792969 155.632812 L 168.167969 118.992188 L 173.292969 118.992188 Z M 183.9375 155.632812 " fill-opacity="1" fill-rule="nonzero"/></svg>